<svg width="32" height="33" viewBox="0 0 32 33" fill="none" xmlns="http://www.w3.org/2000/svg">
<g clip-path="url(#clip0)">
<path d="M19.75 16.4774C19.405 16.4774 19.125 16.7576 19.125 17.1028C19.125 17.4481 19.405 17.7283 19.75 17.7283C20.095 17.7283 20.375 17.4481 20.375 17.1028C20.375 16.7576 20.095 16.4774 19.75 16.4774Z" fill="#30302E"/>
<path d="M6.38595 23.3389L0.135945 31.2139C-0.0132246 31.4017 -0.0415449 31.6583 0.0627032 31.8741C0.166951 32.0901 0.385701 32.2274 0.625447 32.2274H31.3754C31.6152 32.2274 31.8339 32.0901 31.9382 31.8741C32.0427 31.6583 32.0141 31.4017 31.865 31.2139L25.615 23.3389C25.4965 23.1895 25.3161 23.1024 25.1254 23.1024H19.6506L24.3247 15.7713C25.4211 14.1275 26.0004 12.2105 26.0004 10.2274C26.0004 4.71344 21.5146 0.227356 16.0004 0.227356C10.4863 0.227356 6.00045 4.71344 6.00045 10.2274C6.00045 12.2105 6.57979 14.1273 7.67623 15.7713L12.3503 23.1024H6.87545C6.68477 23.1024 6.5046 23.1895 6.38595 23.3389ZM4.05245 28.2899H7.8315L5.69869 30.9774H1.91939L4.05245 28.2899ZM13.1474 24.3524L14.8608 27.0399H10.4194L12.5524 24.3524H13.1474ZM18.8537 24.3524H19.4487L21.5815 27.0399H17.1403L18.8537 24.3524ZM22.5737 28.2899L24.7065 30.9774H7.29439L9.42745 28.2899H22.5737ZM26.3025 30.9774L24.1694 28.2899H27.9487L30.0815 30.9774H26.3025ZM26.9565 27.0399H23.1775L21.0444 24.3524H24.8237L26.9565 27.0399ZM8.71969 15.0828C7.7585 13.6439 7.25045 11.9649 7.25045 10.2274C7.25045 5.40265 11.1757 1.47736 16.0004 1.47736C20.8252 1.47736 24.7504 5.40265 24.7504 10.2274C24.7504 11.9649 24.2424 13.6439 23.2815 15.0828C23.2788 15.0865 23.2766 15.0901 23.2741 15.0938C22.8637 15.7376 16.3166 26.0067 16.0004 26.5023C15.2053 25.2549 9.53658 16.3638 8.72677 15.0938C8.72457 15.0901 8.72213 15.0865 8.71969 15.0828ZM10.9565 24.3524L8.82369 27.0399H5.04439L7.17745 24.3524H10.9565Z" fill="#30302E"/>
<path d="M16 16.4774C19.4312 16.4774 22.25 13.6988 22.25 10.2274C22.25 6.78107 19.4463 3.97736 16 3.97736C12.5537 3.97736 9.75 6.78107 9.75 10.2274C9.75 13.6998 12.5698 16.4774 16 16.4774ZM16 5.22736C18.7571 5.22736 21 7.47028 21 10.2274C21 13.0101 18.739 15.2274 16 15.2274C13.2603 15.2274 11 13.0101 11 10.2274C11 7.47028 13.2429 5.22736 16 5.22736Z" fill="#30302E"/>
<path d="M18.6328 18.6102C18.3374 18.4319 17.9531 18.5272 17.7749 18.8228L15.4648 22.6553C15.2866 22.951 15.3818 23.335 15.6775 23.5132C15.9744 23.6922 16.3579 23.595 16.5354 23.3006L18.8455 19.4681C19.0237 19.1724 18.9285 18.7884 18.6328 18.6102Z" fill="#30302E"/>
</g>
<defs>
<clipPath id="clip0">
<rect width="32" height="32" fill="white" transform="translate(0 0.227356)"/>
</clipPath>
</defs>
</svg>
