<svg width="50" height="50" viewBox="0 0 50 50" fill="none" xmlns="http://www.w3.org/2000/svg">
<path d="M40.5078 36.4453H39.1015V32.2266C39.1015 31.8359 38.789 31.5234 38.3984 31.5234H38.0859V19.9609H40.5078C40.8984 19.9609 41.1718 19.6484 41.1718 19.2578C41.1718 19.0234 41.0546 18.7891 40.8593 18.6719L25.3515 8.90625C25.1171 8.75 24.8437 8.75 24.6093 8.90625L9.10152 18.6719C8.78902 18.8672 8.67183 19.2969 8.9062 19.6094C9.02339 19.8047 9.25777 19.9219 9.49214 19.9219H11.914V31.5234H11.6015C11.2109 31.5234 10.8984 31.8359 10.8984 32.2266V36.4453H9.49214C9.10152 36.4453 8.82808 36.7578 8.78902 37.1484V40.5469C8.78902 40.9375 9.10152 41.2109 9.49214 41.25H40.5078C40.8984 41.25 41.1718 40.9375 41.2109 40.5469V37.1094C41.1718 36.7188 40.8984 36.4453 40.5078 36.4453ZM33.5546 36.4453V32.9297H37.7343V36.4453H33.5546ZM28.4375 36.4453V32.2266C28.4375 31.8359 28.125 31.5234 27.7343 31.5234H27.4218V26.6797C30.1171 25.5859 31.7187 22.8125 31.3281 19.9609H33.2031V31.5625H32.8906C32.5 31.5625 32.1875 31.875 32.1875 32.2656V36.4844H28.4375V36.4453ZM22.9296 36.4453V32.9297H27.1093V36.4453H22.9296ZM17.8125 36.4453V32.2266C17.8125 31.8359 17.5 31.5234 17.1093 31.5234H16.7968V19.9609H18.6718C18.2812 22.8125 19.8828 25.5859 22.5781 26.6797V31.5625H22.2656C21.875 31.5625 21.5625 31.875 21.5625 32.2656V36.4844H17.8125V36.4453ZM30.039 20.7422C30.039 23.5547 27.7734 25.7812 25 25.7812C22.2265 25.7812 19.9609 23.5156 19.9609 20.7422C19.9609 17.9687 22.2265 15.7422 25 15.7422C27.7734 15.7422 30.039 17.9687 30.039 20.7422ZM23.9453 31.5625V27.0703C24.6484 27.1875 25.3906 27.1875 26.0937 27.0703V31.5625H23.9453ZM36.7187 31.5625H34.5703V19.9609H36.7187V31.5625ZM25 10.3125L38.125 18.5937H31.0156C29.8046 15.2734 26.1718 13.5547 22.8515 14.7266C21.0546 15.3906 19.6484 16.7969 18.9843 18.5937H11.875L25 10.3125ZM13.2812 19.9609H15.4296V31.5625H13.2812V19.9609ZM12.2656 32.9297H16.4453V36.4453H12.2656V32.9297ZM39.8046 39.8047H10.1953V37.7734H39.8437V39.8047H39.8046Z" fill="#30302E"/>
<path d="M25.2734 20.0781H25H24.7266C24.5312 20.0781 24.375 19.9219 24.375 19.7266V19.1797C24.375 18.9844 24.5312 18.8281 24.7266 18.8281H26.2891C26.6797 18.8281 26.9922 18.5156 26.9922 18.125C26.9922 17.7344 26.6797 17.4219 26.2891 17.4219H25.6641V17.3047C25.6641 16.9141 25.3516 16.6016 24.9609 16.6016C24.5703 16.6016 24.2578 16.9141 24.2578 17.3047V17.4609C23.5156 17.6563 22.9688 18.3203 22.9688 19.1016V19.6484C22.9688 20.5859 23.75 21.3672 24.6875 21.3672H25H25.2734C25.4687 21.3672 25.625 21.5234 25.625 21.7188V22.2656C25.625 22.4609 25.4687 22.6172 25.2734 22.6172H23.7109C23.3203 22.6172 23.0078 22.9297 23.0078 23.3203C23.0078 23.7109 23.3203 24.0234 23.7109 24.0234H24.3359V24.1406C24.3359 24.5313 24.6484 24.8438 25.0391 24.8438C25.4297 24.8438 25.7422 24.5313 25.7422 24.1406V23.9844C26.4844 23.7891 27.0312 23.125 27.0312 22.3438V21.7969C26.9922 20.8594 26.2109 20.0781 25.2734 20.0781Z" fill="#30302E"/>
</svg>
