<svg width="40" height="40" viewBox="0 0 40 40" fill="none" xmlns="http://www.w3.org/2000/svg">
<path d="M34.7515 16.3281L35.4617 13.2163C35.493 13.0789 35.493 12.9363 35.4617 12.799C35.4304 12.6617 35.3685 12.5332 35.2807 12.4231L33.2906 9.92766L32.5804 6.81586C32.549 6.67856 32.4872 6.55008 32.3994 6.43998C32.3116 6.32987 32.2001 6.24096 32.0732 6.17984L29.1975 4.79492L27.2073 2.29945C27.1195 2.18934 27.008 2.10043 26.8811 2.03932C26.7542 1.97822 26.6152 1.94648 26.4744 1.94649H23.2826L20.4068 0.561564C20.2799 0.500473 20.1408 0.46875 20 0.46875C19.8591 0.46875 19.7201 0.500473 19.5932 0.561564L16.7174 1.94649H13.5256C13.3848 1.9465 13.2458 1.97823 13.1189 2.03934C12.992 2.10045 12.8805 2.18935 12.7927 2.29945L10.8026 4.79492L7.92687 6.17969C7.79998 6.24079 7.68848 6.3297 7.60066 6.43981C7.51284 6.54992 7.45096 6.6784 7.41961 6.8157L6.70937 9.92766L4.7193 12.4231C4.63147 12.5332 4.56959 12.6617 4.53824 12.799C4.50688 12.9363 4.50687 13.0789 4.5382 13.2163L5.24851 16.3281L4.5382 19.44C4.50687 19.5773 4.50688 19.7199 4.53824 19.8572C4.56959 19.9945 4.63147 20.123 4.7193 20.2331L6.70937 22.7286L7.41961 25.8404C7.45096 25.9777 7.51284 26.1062 7.60066 26.2163C7.68848 26.3264 7.79998 26.4153 7.92687 26.4764L10.1442 27.5443L5.47883 33.6785C5.05383 34.2038 5.38359 35.062 6.05101 35.1673L9.71 35.8584L11.3532 39.2004C11.6333 39.815 12.5465 39.9048 12.9407 39.3542L18.7656 31.6959L19.5937 32.0944C19.7207 32.1555 19.8597 32.1872 20.0005 32.1872C20.1414 32.1872 20.2804 32.1555 20.4073 32.0944L21.2355 31.6959L27.0599 39.3542C27.4543 39.9048 28.3674 39.8152 28.6475 39.2004L30.2907 35.8584L33.9498 35.1673C34.6172 35.0619 34.9469 34.2037 34.5219 33.6785L29.8566 27.5443L32.0732 26.4766C32.2001 26.4155 32.3116 26.3265 32.3994 26.2164C32.4872 26.1063 32.549 25.9778 32.5804 25.8405L33.2906 22.7288L35.2807 20.2333C35.3685 20.1232 35.4304 19.9947 35.4617 19.8574C35.493 19.7201 35.493 19.5775 35.4617 19.4402L34.7515 16.3281ZM12.3666 37.0119L11.1859 34.6105C11.1217 34.4799 11.028 34.366 10.9121 34.2779C10.7963 34.1897 10.6615 34.1298 10.5185 34.1027L7.88937 33.606L11.5479 28.7956L12.7927 30.3565C12.8805 30.4666 12.992 30.5555 13.1189 30.6166C13.2458 30.6777 13.3848 30.7094 13.5256 30.7095H16.7174L17.041 30.8657L12.3666 37.0119ZM29.4814 34.103C29.3384 34.13 29.2036 34.19 29.0878 34.2781C28.972 34.3663 28.8783 34.4802 28.8141 34.6108L27.6334 37.0121L22.959 30.8656L23.2826 30.7094H26.4744C26.6152 30.7094 26.7542 30.6776 26.8811 30.6165C27.008 30.5554 27.1195 30.4665 27.2073 30.3564L28.4521 28.7956L32.1107 33.6059L29.4814 34.103ZM32.8759 16.5367L33.5333 19.417L31.6912 21.7266C31.6034 21.8367 31.5416 21.9652 31.5102 22.1025L30.8529 24.9827L28.1911 26.2648C28.0642 26.326 27.9527 26.4149 27.8649 26.525L26.0229 28.8348H23.0685C22.9277 28.8348 22.7886 28.8665 22.6617 28.9276L20 30.2095L17.3382 28.9276C17.2113 28.8665 17.0723 28.8348 16.9315 28.8348H13.9771L12.1351 26.525C12.0473 26.4149 11.9358 26.326 11.8089 26.2648L9.14711 24.983L8.48976 22.1027C8.45843 21.9654 8.39656 21.8369 8.30875 21.7268L6.46664 19.417L7.12406 16.5367C7.15539 16.3994 7.15539 16.2568 7.12406 16.1195L6.46664 13.2392L8.30875 10.9297C8.39656 10.8196 8.45843 10.6911 8.48976 10.5538L9.14711 7.67352L11.8089 6.39141C11.9358 6.33029 12.0473 6.24137 12.1351 6.13125L13.9771 3.82149H16.9315C17.0723 3.82149 17.2113 3.78976 17.3382 3.72867L20 2.4468L22.6617 3.72867C22.7886 3.78975 22.9277 3.82148 23.0685 3.82149H26.0229L27.8649 6.13125C27.9527 6.24137 28.0642 6.33029 28.1911 6.39141L30.8529 7.67328L31.5102 10.5535C31.5416 10.6908 31.6034 10.8193 31.6912 10.9295L33.5333 13.2392L32.8759 16.1195C32.8445 16.2568 32.8445 16.3994 32.8759 16.5367Z" fill="#30302E"/>
<path d="M20 5C13.7109 5 8.59375 10.1172 8.59375 16.4062C8.59375 22.6953 13.7109 27.8125 20 27.8125C26.2891 27.8125 31.4062 22.6957 31.4062 16.4062C31.4062 10.1168 26.2895 5 20 5ZM20 25.9375C18.1149 25.9375 16.2721 25.3785 14.7047 24.3312C13.1373 23.2839 11.9157 21.7953 11.1943 20.0537C10.4729 18.3121 10.2841 16.3957 10.6519 14.5468C11.0197 12.6979 11.9274 10.9996 13.2604 9.66664C14.5934 8.33367 16.2917 7.42591 18.1405 7.05814C19.9894 6.69037 21.9058 6.87913 23.6475 7.60052C25.3891 8.32192 26.8776 9.54356 27.9249 11.111C28.9723 12.6784 29.5312 14.5211 29.5312 16.4062C29.5284 18.9332 28.5233 21.3559 26.7365 23.1427C24.9496 24.9295 22.527 25.9346 20 25.9375Z" fill="#30302E"/>
<path d="M25.4191 15.1127C25.2667 15.0131 25.0885 14.9601 24.9064 14.9601C24.7243 14.9601 24.5462 15.0131 24.3937 15.1127L22.4719 16.3679L20.8007 13.6258C20.717 13.4885 20.5994 13.375 20.4592 13.2962C20.319 13.2175 20.1609 13.1761 20.0002 13.1761C19.8394 13.1761 19.6813 13.2175 19.5411 13.2962C19.4009 13.375 19.2833 13.4885 19.1996 13.6258L17.5285 16.3679L15.6066 15.1127C15.4542 15.0131 15.276 14.9601 15.0939 14.9601C14.9118 14.96 14.7336 15.0131 14.5811 15.1127C14.4287 15.2123 14.3085 15.3541 14.2354 15.5209C14.1622 15.6877 14.1392 15.8721 14.1691 16.0518L15.0612 21.4042C15.0977 21.623 15.2107 21.8218 15.3799 21.9652C15.5492 22.1087 15.7638 22.1874 15.9857 22.1875H24.0143C24.2362 22.1875 24.4509 22.1088 24.6203 21.9653C24.7896 21.8219 24.9026 21.623 24.9391 21.4041L25.8312 16.0517C25.8611 15.8721 25.8381 15.6876 25.7649 15.5209C25.6917 15.3541 25.5716 15.2123 25.4191 15.1127ZM23.2202 20.3125H16.7798L16.3695 17.8505L17.313 18.4666C17.4181 18.5353 17.536 18.5822 17.6595 18.6044C17.7831 18.6267 17.9099 18.6239 18.0324 18.5962C18.1549 18.5685 18.2706 18.5165 18.3726 18.4432C18.4746 18.37 18.5608 18.277 18.6262 18.1697L20 15.9151L21.3739 18.1695C21.4393 18.2767 21.5255 18.3697 21.6275 18.443C21.7295 18.5162 21.8452 18.5682 21.9677 18.5959C22.0901 18.6236 22.2169 18.6264 22.3405 18.6042C22.4641 18.5819 22.582 18.5351 22.6871 18.4664L23.6305 17.8503L23.2202 20.3125Z" fill="#30302E"/>
<path d="M20 12.5254C20.5178 12.5254 20.9375 12.1057 20.9375 11.5879C20.9375 11.0701 20.5178 10.6504 20 10.6504C19.4822 10.6504 19.0625 11.0701 19.0625 11.5879C19.0625 12.1057 19.4822 12.5254 20 12.5254Z" fill="#30302E"/>
<path d="M26.5625 15C27.0803 15 27.5 14.5803 27.5 14.0625C27.5 13.5447 27.0803 13.125 26.5625 13.125C26.0447 13.125 25.625 13.5447 25.625 14.0625C25.625 14.5803 26.0447 15 26.5625 15Z" fill="#30302E"/>
<path d="M13.4375 15C13.9553 15 14.375 14.5803 14.375 14.0625C14.375 13.5447 13.9553 13.125 13.4375 13.125C12.9197 13.125 12.5 13.5447 12.5 14.0625C12.5 14.5803 12.9197 15 13.4375 15Z" fill="#30302E"/>
</svg>
