<svg width="36" height="36" viewBox="0 0 36 36" fill="none" xmlns="http://www.w3.org/2000/svg">
<g clip-path="url(#clip0)">
<path d="M32.6812 31.8758H32.0399V30.7266C32.0399 30.2854 31.9912 29.9765 31.8865 29.7548C31.7436 29.4521 31.4792 29.2785 31.161 29.2785H30.4119V18.5273H31.161C31.6457 18.5273 32.0399 18.1331 32.0399 17.6484V16.3172H32.6746C32.9798 16.3172 33.2387 16.1194 33.319 15.825C33.3993 15.5306 33.2766 15.2287 33.0137 15.0738L26.5278 11.2508C26.2771 11.103 25.9537 11.1864 25.8057 11.4373C25.6579 11.6883 25.7413 12.0116 25.9923 12.1594L31.2568 15.2625H4.74305L18 7.4487L23.8693 10.9081C24.1201 11.0561 24.4435 10.9725 24.5913 10.7216C24.7393 10.4707 24.6558 10.1474 24.4048 9.99949L18.5273 6.5352V5.22612H20.4231V6.90251C20.4231 7.19374 20.6592 7.42985 20.9504 7.42985H27.1379C27.545 7.42985 27.8762 7.09868 27.8762 6.69157V3.57166C27.8762 3.16455 27.545 2.83338 27.1379 2.83338H25.0058V1.36793C25.0058 0.96082 24.6747 0.629648 24.2676 0.629648H18.5273V0.527344C18.5273 0.236109 18.2912 0 18 0C17.7087 0 17.4726 0.236109 17.4726 0.527344V6.5352L2.98622 15.0738C2.72332 15.2288 2.60062 15.5306 2.68092 15.8251C2.76122 16.1195 3.02018 16.3173 3.32533 16.3173H3.96005V17.6484C3.96005 18.1331 4.35429 18.5273 4.83895 18.5273H5.58806V29.2785H4.83895C4.35429 29.2785 3.96005 29.6727 3.96005 30.1574V31.8757H3.31873C2.83406 31.8757 2.43982 32.27 2.43982 32.7547V35.1211C2.43982 35.6058 2.83406 36 3.31873 36H32.6812C33.1659 36 33.5601 35.6058 33.5601 35.1211V32.7547C33.5601 32.2701 33.1658 31.8758 32.6812 31.8758ZM21.4778 5.95132V5.22612H22.6388L21.4778 5.95132ZM24.76 5.14413C24.9076 5.05062 25.0058 4.88637 25.0058 4.69877V3.88807H26.8215V6.37516H22.7897L24.76 5.14413ZM18.5273 1.68434H23.9512V4.17143H18.5273V1.68434ZM25.1532 29.2785V18.5273H26.6227V29.2785H25.1532ZM14.1086 26.6836C13.8174 26.6836 13.5813 26.9197 13.5813 27.2109V29.1998H11.9014V18.5273H13.5813V24.75C13.5813 25.0412 13.8174 25.2773 14.1086 25.2773C14.3998 25.2773 14.6359 25.0412 14.6359 24.75V18.5273H16.1054V29.2785H14.6359V27.2109C14.6359 26.9197 14.3998 26.6836 14.1086 26.6836ZM17.1601 29.1998V18.5273H18.8399V29.1998H17.1601ZM19.8945 18.5273H21.364V29.2785H19.8945V18.5273ZM22.4187 29.1998V18.5273H24.0985V29.1998H22.4187ZM29.3572 29.1998H27.6774V18.5273H29.3572V29.1998ZM5.01473 16.3172H30.9852V17.4727H5.01473V16.3172ZM8.32259 18.5273V29.1998H6.64275V18.5273H8.32259ZM9.37727 18.5273H10.8467V29.2785H9.37727V18.5273ZM32.5054 34.9453H3.49451V32.9305H25.0312C25.3225 32.9305 25.5586 32.6944 25.5586 32.4032C25.5586 32.1119 25.3225 31.8758 25.0312 31.8758H5.01473V30.3332H30.9626C30.9744 30.4134 30.9852 30.5382 30.9852 30.7266V31.8759H27.4922C27.2009 31.8759 26.9648 32.112 26.9648 32.4032C26.9648 32.6945 27.2009 32.9306 27.4922 32.9306H32.5054V34.9453Z" fill="#30302E"/>
<path d="M15.6624 11.9001C15.6624 13.1891 16.711 14.2376 18 14.2376C19.2889 14.2376 20.3376 13.189 20.3376 11.9001C20.3376 10.6112 19.2889 9.5625 18 9.5625C16.711 9.5625 15.6624 10.6111 15.6624 11.9001ZM19.2829 11.9001C19.2829 12.6075 18.7074 13.183 18 13.183C17.2926 13.183 16.717 12.6075 16.717 11.9001C16.717 11.1928 17.2926 10.6172 18 10.6172C18.7074 10.6172 19.2829 11.1927 19.2829 11.9001Z" fill="#30302E"/>
</g>
<defs>
<clipPath id="clip0">
<rect width="36" height="36" fill="white"/>
</clipPath>
</defs>
</svg>
