<svg width="32" height="33" viewBox="0 0 32 33" fill="none" xmlns="http://www.w3.org/2000/svg">
<g clip-path="url(#clip0)">
<path d="M25.2898 20.1373C24.6346 19.4551 23.8444 19.0904 23.007 19.0904C22.1763 19.0904 21.3793 19.4484 20.6972 20.1305L18.563 22.2579C18.3874 22.1634 18.2118 22.0756 18.0429 21.9878C17.7998 21.8662 17.5701 21.7514 17.3743 21.6298C15.3752 20.3601 13.5584 18.7054 11.8159 16.5645C10.9717 15.4974 10.4043 14.5991 9.99236 13.6874C10.5462 13.1808 11.0595 12.654 11.5592 12.1475C11.7484 11.9584 11.9375 11.7625 12.1266 11.5734C13.5449 10.1551 13.5449 8.31807 12.1266 6.89977L10.2828 5.05598C10.0734 4.84661 9.85728 4.63049 9.65467 4.41437C9.24944 3.99563 8.82395 3.56338 8.38495 3.15816C7.72983 2.50979 6.94639 2.16534 6.12242 2.16534C5.29846 2.16534 4.50151 2.50979 3.82612 3.15816C3.81937 3.16491 3.81937 3.16491 3.81262 3.17166L1.51632 5.48822C0.65183 6.35271 0.158801 7.40631 0.0507402 8.62875C-0.111351 10.6009 0.469477 12.4379 0.915229 13.6401C2.00935 16.5915 3.64377 19.3268 6.0819 22.2579C9.04007 25.7902 12.5993 28.5795 16.6651 30.5449C18.2185 31.281 20.2919 32.1523 22.6085 32.3009C22.7503 32.3076 22.8989 32.3144 23.034 32.3144C24.5941 32.3144 25.9044 31.7538 26.9309 30.6394C26.9377 30.6259 26.9512 30.6192 26.958 30.6057C27.3092 30.1802 27.7144 29.7952 28.1399 29.3832C28.4303 29.1063 28.7275 28.8159 29.0179 28.512C29.6865 27.8163 30.0377 27.0059 30.0377 26.1752C30.0377 25.3377 29.6797 24.534 28.9976 23.8586L25.2898 20.1373ZM27.7076 27.249C27.7009 27.249 27.7009 27.2558 27.7076 27.249C27.4442 27.5327 27.1741 27.7893 26.8837 28.073C26.4447 28.4917 25.9989 28.9307 25.5802 29.4237C24.898 30.1532 24.0943 30.4976 23.0407 30.4976C22.9394 30.4976 22.8314 30.4976 22.7301 30.4909C20.7242 30.3625 18.8601 29.5791 17.4621 28.9105C13.6394 27.0599 10.2828 24.4327 7.49345 21.103C5.1904 18.3272 3.65053 15.7608 2.6307 13.0052C2.00259 11.3235 1.77296 10.0133 1.87427 8.77733C1.94181 7.98713 2.24573 7.33201 2.8063 6.77145L5.10935 4.4684C5.44029 4.15772 5.79149 3.98887 6.13593 3.98887C6.56142 3.98887 6.90587 4.24552 7.12199 4.46164C7.12874 4.4684 7.1355 4.47515 7.14225 4.4819C7.55423 4.86687 7.94595 5.26535 8.35794 5.69084C8.56731 5.90696 8.78343 6.12308 8.99955 6.34596L10.8433 8.18975C11.5592 8.90565 11.5592 9.56753 10.8433 10.2834C10.6475 10.4793 10.4584 10.6752 10.2625 10.8643C9.69519 11.4451 9.15489 11.9854 8.56731 12.5122C8.5538 12.5257 8.54029 12.5325 8.53354 12.546C7.95271 13.1268 8.06077 13.6941 8.18234 14.0791C8.18909 14.0993 8.19585 14.1196 8.2026 14.1399C8.68212 15.3015 9.3575 16.3956 10.3841 17.6991L10.3908 17.7059C12.2549 20.0022 14.2203 21.7919 16.3882 23.163C16.6651 23.3386 16.9488 23.4804 17.2189 23.6155C17.4621 23.737 17.6917 23.8519 17.8876 23.9734C17.9146 23.9869 17.9416 24.0072 17.9686 24.0207C18.1983 24.1355 18.4144 24.1895 18.6372 24.1895C19.1978 24.1895 19.549 23.8383 19.6638 23.7235L21.9736 21.4137C22.2033 21.1841 22.568 20.9072 22.9935 20.9072C23.4122 20.9072 23.7566 21.1706 23.966 21.4002C23.9728 21.407 23.9728 21.407 23.9795 21.4137L27.7009 25.1351C28.3965 25.824 28.3965 26.5331 27.7076 27.249Z" fill="#30302E"/>
<path d="M17.293 7.92487C19.0625 8.22204 20.6699 9.05951 21.9531 10.3427C23.2363 11.626 24.067 13.2334 24.371 15.0029C24.4452 15.4486 24.8302 15.7593 25.2692 15.7593C25.3232 15.7593 25.3705 15.7526 25.4246 15.7458C25.9243 15.6648 26.2553 15.192 26.1742 14.6922C25.8095 12.5512 24.7964 10.5994 23.2498 9.05276C21.7032 7.50614 19.7514 6.49306 17.6104 6.12836C17.1106 6.04731 16.6446 6.37825 16.5568 6.87128C16.469 7.36431 16.7932 7.84383 17.293 7.92487Z" fill="#30302E"/>
<path d="M31.9628 14.4288C31.3617 10.9033 29.7002 7.69527 27.1473 5.14233C24.5944 2.58939 21.3863 0.927948 17.8608 0.326858C17.3678 0.239058 16.9018 0.576749 16.814 1.06978C16.7329 1.56956 17.0638 2.03557 17.5636 2.12337C20.7109 2.65693 23.5813 4.14952 25.8641 6.42556C28.1469 8.70835 29.6327 11.5787 30.1663 14.726C30.2406 15.1718 30.6255 15.4824 31.0645 15.4824C31.1185 15.4824 31.1658 15.4757 31.2199 15.4689C31.7129 15.3946 32.0506 14.9219 31.9628 14.4288Z" fill="#30302E"/>
</g>
<defs>
<clipPath id="clip0">
<rect width="32" height="32" fill="white" transform="translate(0 0.312958)"/>
</clipPath>
</defs>
</svg>
