<svg width="40" height="40" viewBox="0 0 40 40" fill="none" xmlns="http://www.w3.org/2000/svg">
<path d="M33.0081 21.1416C32.6866 21.1416 32.4259 21.4022 32.4259 21.7237C32.4259 22.1313 32.0944 22.4629 31.6868 22.4629C31.2793 22.4629 30.9477 22.1313 30.9477 21.7237C30.9477 21.4021 30.687 21.1416 30.3656 21.1416C30.0441 21.1416 29.7834 21.4022 29.7834 21.7237C29.7834 22.7732 30.6374 23.6271 31.6868 23.6271C32.7363 23.6271 33.5902 22.7732 33.5902 21.7237C33.5902 21.4021 33.3295 21.1416 33.0081 21.1416Z" fill="#30302E"/>
<path d="M38.4722 21.2368L36.8337 20.7119C36.6239 20.6447 36.4585 20.4772 36.3914 20.2638C36.0461 19.1659 35.525 18.1352 34.8426 17.2002C34.5316 16.774 34.1857 16.3671 33.8079 15.9797C34.0496 14.9193 34.181 13.7192 34.164 12.6824C34.1396 11.1992 33.8432 10.3293 33.2579 10.0227C32.9427 9.85739 31.9833 9.35521 26.7905 11.7322C26.6676 11.7885 26.5527 11.8578 26.4464 11.9372C26.0963 11.8431 25.7385 11.7561 25.3785 11.6779C25.3352 11.6685 25.2905 11.6601 25.2468 11.6509C25.6676 10.7317 25.9133 9.73333 25.9595 8.70271C25.9738 8.38146 25.7252 8.10942 25.4039 8.09513C25.0835 8.07919 24.8106 8.32935 24.7963 8.6506C24.7205 10.3452 24.0175 11.9397 22.817 13.1402C22.0998 13.8575 21.2599 14.3785 20.3648 14.7066C18.8126 14.4888 17.2315 14.4888 15.6792 14.7066C14.7841 14.3785 13.9443 13.8575 13.227 13.1402C11.9462 11.8594 11.2409 10.1565 11.2409 8.34521C11.2409 6.5338 11.9462 4.83099 13.227 3.55021C14.5078 2.26935 16.2108 1.56396 18.022 1.56396C19.8333 1.56396 21.5363 2.26935 22.817 3.55021C23.3317 4.06489 23.757 4.65224 24.0812 5.29575C24.2258 5.58294 24.5759 5.69857 24.863 5.55388C25.1502 5.40935 25.2657 5.05927 25.1211 4.77216C24.7412 4.01755 24.243 3.3295 23.6404 2.72685C22.1397 1.22614 20.1444 0.399658 18.0221 0.399658C15.8998 0.399658 13.9045 1.22614 12.4038 2.72685C10.9031 4.22763 10.0766 6.22286 10.0766 8.34513C10.0766 10.4674 10.9031 12.4627 12.4038 13.9634C12.8367 14.3963 13.3077 14.7686 13.8058 15.0804C13.8059 15.0804 13.8061 15.0804 13.8062 15.0804C13.4443 15.1744 13.0851 15.2801 12.7298 15.3988C12.4249 15.5008 12.2604 15.8305 12.3623 16.1355C12.4642 16.4404 12.7941 16.605 13.099 16.5031C16.2737 15.4418 19.7705 15.4418 22.9452 16.5031C23.0065 16.5236 23.0687 16.5333 23.1298 16.5333C23.3734 16.5333 23.6004 16.3792 23.6819 16.1355C23.7838 15.8306 23.6193 15.5008 23.3144 15.3988C22.9591 15.2801 22.5999 15.1743 22.238 15.0804C22.2381 15.0804 22.2383 15.0804 22.2384 15.0804C22.7366 14.7686 23.2075 14.3963 23.6404 13.9634C24.0234 13.5804 24.3614 13.1622 24.6549 12.7178C24.8154 12.749 24.9747 12.7816 25.1316 12.8157C25.3407 12.8611 25.5488 12.9098 25.7551 12.961C25.7486 12.9863 25.742 13.0115 25.7366 13.0372C25.4527 14.3845 25.4711 15.5761 25.7913 16.5786C26.0791 17.4798 26.5986 18.2099 27.3351 18.7487C28.2031 19.3837 29.2511 19.658 30.2004 19.658C30.9148 19.658 31.5735 19.5026 32.0573 19.2286C32.6045 18.9186 33.0629 18.2656 33.4258 17.2851C33.5935 17.4809 33.7525 17.6815 33.9023 17.8868C34.5099 18.7191 34.9738 19.6365 35.2809 20.6132C35.4613 21.1868 35.9091 21.6383 36.4788 21.8208L38.1172 22.3457C38.5471 22.4834 38.8359 22.8791 38.8359 23.3305V26.0473C38.8359 26.4987 38.5471 26.8944 38.1172 27.0322L35.4774 27.8777C35.0551 28.0131 34.6977 28.3033 34.471 28.6951C33.4339 30.4874 31.8034 31.9706 29.6244 33.1035C29.3727 33.2345 29.1983 33.4688 29.1458 33.7465L28.3003 38.2233C28.277 38.3466 28.1689 38.4361 28.0434 38.4361H25.2944C25.1688 38.4361 25.0608 38.3465 25.0374 38.2233L24.5691 35.7491C24.477 35.2623 24.0204 34.939 23.529 35.0134C22.3448 35.1925 21.1247 35.2832 19.9026 35.2832C18.9934 35.2832 18.0958 35.2325 17.2346 35.1324C16.7584 35.0776 16.3148 35.4022 16.2259 35.8724L15.7809 38.2233C15.7575 38.3466 15.6495 38.4361 15.5239 38.4361H12.7749C12.6494 38.4361 12.5413 38.3465 12.5177 38.2214L11.7036 33.9931C11.6512 33.7207 11.4801 33.489 11.2339 33.3576C7.51953 31.3747 5.55625 28.0618 5.55625 23.7775C5.55625 21.6128 6.02984 19.6986 6.96383 18.088C7.83539 16.585 9.10836 15.3422 10.7473 14.3942C11.0256 14.2332 11.1207 13.8771 10.9598 13.5987C10.7988 13.3204 10.4427 13.2255 10.1644 13.3863C6.98633 15.2247 5.06953 18.061 4.5418 21.6633V21.6633C4.48578 21.6582 4.42969 21.6533 4.37383 21.6476C4.38398 21.2589 4.31367 20.8667 4.16055 20.4861C3.82281 19.6465 3.12906 19.0406 2.39305 18.9424C1.81305 18.8647 1.26109 19.111 0.878047 19.6171C0.322656 20.351 0.413203 20.9318 0.586875 21.2897C0.880078 21.8939 1.63375 22.3212 2.88445 22.5899C2.85008 22.6414 2.81227 22.6931 2.77086 22.7451C2.03187 23.6718 1.16125 23.8768 0.595937 23.8961C0.265 23.9072 0 24.1729 0 24.5041V24.5069C0 24.8336 0.257734 25.1 0.584062 25.1149C0.625859 25.1168 0.669531 25.1179 0.715 25.1179C1.43031 25.1179 2.57836 24.854 3.68133 23.471C3.85547 23.2527 3.99734 23.0224 4.10641 22.7844C4.21625 22.7969 4.3218 22.8075 4.42289 22.8168C4.42289 22.8166 4.42289 22.8165 4.42297 22.8162C4.40312 23.1317 4.39211 23.4518 4.39211 23.7775C4.39211 26.2015 4.97 28.3629 6.10961 30.2017C7.16039 31.897 8.66484 33.2851 10.5827 34.329L11.3741 38.4397C11.5013 39.1122 12.0905 39.6003 12.7749 39.6003H15.5239C16.2084 39.6003 16.7975 39.1122 16.9248 38.4397L17.3271 36.314C18.1627 36.4026 19.0279 36.4474 19.9025 36.4474C21.1025 36.4474 22.3011 36.3638 23.4692 36.1988L23.8934 38.4398C24.0207 39.1123 24.6098 39.6004 25.2942 39.6004H28.0432C28.7277 39.6004 29.3168 39.1122 29.4441 38.4395L30.2673 34.0808C32.593 32.8511 34.3459 31.2356 35.4786 29.2781C35.5602 29.137 35.6859 29.0335 35.8325 28.9865L38.4722 28.141C39.386 27.8481 40 27.0068 40 26.0472V23.3304C40 22.3708 39.386 21.5295 38.4722 21.2368ZM32.9123 14.3183C32.6883 16.2343 32.0873 17.8734 31.4834 18.2154C30.797 18.6043 29.2122 18.6793 28.0223 17.809C26.8311 16.9375 26.4346 15.3705 26.8756 13.2772C26.8756 13.2772 26.8756 13.2772 26.8756 13.2772C26.9199 13.0669 27.0693 12.885 27.2752 12.7908C30.1895 11.4568 31.8698 11.0204 32.494 11.0204C32.5882 11.0204 32.6584 11.0304 32.7051 11.0486C32.8926 11.2485 33.1385 12.3845 32.9123 14.3183ZM1.63445 20.7814C1.57422 20.6572 1.71641 20.4388 1.80656 20.3196C1.94945 20.1308 2.08109 20.0922 2.18055 20.0922C2.20156 20.0922 2.22117 20.094 2.23914 20.0964C2.5068 20.1321 2.8818 20.4266 3.08047 20.9204C3.12727 21.0367 3.18805 21.2293 3.20227 21.4694C2.39641 21.3025 1.77031 21.0618 1.63445 20.7814Z" fill="#30302E"/>
<path d="M18.5874 7.67792V5.59479C19.3057 5.64612 19.5726 5.97448 19.8189 5.97448C20.1267 5.97448 20.2704 5.58456 20.2704 5.38956C20.2704 4.88667 19.2852 4.6712 18.5874 4.65065V4.37347C18.5874 4.25034 18.4334 4.13745 18.2795 4.13745C18.1049 4.13745 17.9818 4.25034 17.9818 4.37347V4.67105C17.0069 4.7737 16.032 5.28683 16.032 6.57987C16.032 7.89347 17.0582 8.26292 17.9818 8.59128V11.0029C16.935 10.9208 16.658 10.2025 16.3193 10.2025C16.0628 10.2025 15.8473 10.5411 15.8473 10.7875C15.8473 11.2903 16.7093 11.9778 17.9818 11.9984V12.3165C17.9818 12.4396 18.105 12.5525 18.2795 12.5525C18.4335 12.5525 18.5874 12.4396 18.5874 12.3165V11.9676C19.6957 11.8136 20.4551 11.1158 20.4551 9.85355C20.4551 8.45792 19.4802 8.00628 18.5874 7.67792ZM18.0434 7.483C17.4995 7.27776 17.0582 7.0623 17.0582 6.47737C17.0582 5.9437 17.4687 5.68714 18.0434 5.61534V7.483ZM18.5257 10.9824V8.81706C19.0285 9.03253 19.4288 9.31987 19.4288 9.96636C19.4288 10.5514 19.0799 10.8798 18.5257 10.9824Z" fill="#30302E"/>
</svg>
