<svg width="244" height="90" viewBox="0 0 244 90" fill="none" xmlns="http://www.w3.org/2000/svg">
<path d="M181.172 65.0456V35.9062L202.888 14.1899L209.484 20.7881V14.4656H216.907V27.1106L225.429 35.9062V65.0456H181.172Z" fill="white" fill-opacity="0.9"/>
<path d="M32.012 63.0167L31.5751 61.1923C30.6395 61.9329 29.6138 62.4917 28.502 62.8667C27.3882 63.2398 26.1807 63.4311 24.8757 63.4311C22.7888 63.4311 21.1351 62.923 19.9145 61.9086C18.6938 60.8904 18.0845 59.5179 18.0845 57.7854C18.0845 56.2723 18.6001 55.0236 19.6407 54.0429C20.6776 53.0623 22.3801 52.2148 24.7482 51.4986C25.3145 51.3373 26.0795 51.1217 27.047 50.8536C29.8201 50.0923 31.2038 49.2279 31.2038 48.2679C31.2038 47.6792 31.007 47.2273 30.6076 46.9198C30.2101 46.6161 29.6363 46.4623 28.8863 46.4623C27.9845 46.4623 27.3132 46.6667 26.8763 47.0773C26.4413 47.4917 26.2238 48.1254 26.2238 48.9823V49.1211H18.7501C18.7501 46.8542 19.5882 45.1704 21.2626 44.0642C22.937 42.9617 25.4757 42.4086 28.8845 42.4086C30.4182 42.4086 31.7907 42.5154 32.9945 42.7311C34.2001 42.9429 35.2088 43.2504 36.0226 43.6573C37.067 44.1879 37.7982 44.8329 38.222 45.5829C38.6457 46.3329 38.8557 47.7036 38.8557 49.6911V50.2986V57.4292C38.8557 58.9929 38.927 60.1873 39.0732 61.0104C39.2195 61.8317 39.4613 62.5011 39.7988 63.0167H32.012ZM31.067 53.3867C29.1526 53.7936 27.7576 54.2942 26.8782 54.8998C25.997 55.4998 25.5582 56.2517 25.5582 57.1517C25.5582 57.7892 25.7757 58.2973 26.2145 58.6779C26.6495 59.0623 27.2363 59.2536 27.9695 59.2536C29.057 59.2536 29.8445 58.9761 30.3357 58.4192C30.827 57.8661 31.0707 56.9323 31.0707 55.6292V53.3867H31.067Z" fill="white" fill-opacity="0.9"/>
<path d="M43.5901 63.0168V42.9786H50.4245V45.7911C51.2401 44.788 52.1345 44.0305 53.1095 43.513C54.0845 42.9936 55.1851 42.6899 56.417 42.598V48.9636C56.0007 48.8905 55.6051 48.8324 55.2301 48.7949C54.8532 48.7574 54.5101 48.7405 54.2045 48.7405C53.0045 48.7405 52.172 49.0593 51.7032 49.6968C51.2345 50.3305 51.0001 51.5755 51.0001 53.4243V63.0186H43.5901V63.0168Z" fill="white" fill-opacity="0.9"/>
<path d="M79.2958 42.9786V63.0186H72.332V60.6486C71.5033 61.6124 70.5733 62.3155 69.5458 62.7618C68.5164 63.208 67.3033 63.4311 65.9083 63.4311C63.8495 63.4311 62.3383 62.9118 61.3708 61.8674C60.4033 60.8268 59.9214 59.1899 59.9214 56.9605V42.9786H67.3914V55.363C67.3914 56.9699 67.5301 57.9674 67.8058 58.3555C68.0795 58.7399 68.5708 58.9349 69.2776 58.9349C70.1026 58.9349 70.7514 58.6349 71.2183 58.0349C71.6851 57.4349 71.9195 56.5911 71.9195 55.5036V42.9786H79.2958Z" fill="white" fill-opacity="0.9"/>
<path d="M83.7673 53.0062C83.7673 49.1024 84.5117 46.3668 86.0042 44.7956C87.493 43.2243 90.0505 42.4406 93.6767 42.4406C97.3048 42.4406 99.8623 43.2206 101.353 44.7768C102.844 46.3368 103.588 49.0799 103.588 53.0062C103.588 56.9099 102.844 59.6455 101.353 61.2093C99.8623 62.7768 97.3048 63.5568 93.6767 63.5568C90.0373 63.5568 87.4723 62.7805 85.9911 61.228C84.508 59.6737 83.7673 56.9343 83.7673 53.0062ZM91.3348 53.0062C91.3348 55.8337 91.498 57.5981 91.828 58.3124C92.158 59.0231 92.7748 59.3774 93.6767 59.3774C94.5805 59.3774 95.1973 59.0362 95.5255 58.3555C95.8555 57.6712 96.0205 55.888 96.0205 53.0043C96.0205 50.1262 95.8555 48.3393 95.5255 47.6512C95.1955 46.963 94.5805 46.6181 93.6767 46.6181C92.7748 46.6181 92.1561 46.9762 91.828 47.6943C91.4998 48.4124 91.3348 50.1824 91.3348 53.0062Z" fill="white" fill-opacity="0.9"/>
<path d="M127.065 36.3617V63.0186H120.231V60.8286C119.522 61.7267 118.658 62.4111 117.634 62.8836C116.612 63.3561 115.479 63.5905 114.236 63.5905C113.188 63.5905 112.241 63.448 111.386 63.1649C110.531 62.8817 109.815 62.4805 109.232 61.9592C108.57 61.3367 108.105 60.5024 107.837 59.458C107.567 58.4099 107.432 56.4505 107.432 53.5724C107.432 49.0461 107.94 46.0686 108.954 44.6399C109.969 43.2149 111.789 42.5005 114.418 42.5005C115.541 42.5005 116.524 42.688 117.369 43.0611C118.215 43.4342 118.976 44.0136 119.653 44.7974V36.3599H127.065V36.3617ZM117.386 47.2517C116.447 47.2517 115.802 47.6174 115.455 48.3467C115.11 49.0761 114.938 50.6905 114.938 53.1917C114.938 55.7999 115.099 57.4217 115.423 58.0667C115.746 58.708 116.338 59.0305 117.203 59.0305C118.189 59.0305 118.873 58.6424 119.25 57.8661C119.627 57.0936 119.816 55.0461 119.816 51.7349C119.816 50.0324 119.634 48.8605 119.273 48.2155C118.909 47.5742 118.283 47.2517 117.386 47.2517Z" fill="white" fill-opacity="0.9"/>
<path d="M144.994 63.0167L144.555 61.1923C143.619 61.9329 142.596 62.4917 141.482 62.8667C140.368 63.2417 139.161 63.4311 137.856 63.4311C135.769 63.4311 134.117 62.923 132.894 61.9086C131.676 60.8904 131.064 59.5179 131.064 57.7854C131.064 56.2723 131.582 55.0236 132.621 54.0429C133.658 53.0623 135.36 52.2148 137.73 51.4986C138.294 51.3373 139.061 51.1217 140.027 50.8536C142.8 50.0923 144.184 49.2279 144.184 48.2679C144.184 47.6792 143.987 47.2273 143.588 46.9198C143.192 46.6161 142.616 46.4623 141.866 46.4623C140.964 46.4623 140.293 46.6667 139.858 47.0773C139.421 47.4917 139.204 48.1254 139.204 48.9823V49.1211H131.732C131.732 46.8542 132.568 45.1704 134.243 44.0642C135.917 42.9617 138.458 42.4086 141.864 42.4086C143.4 42.4086 144.771 42.5154 145.974 42.7311C147.18 42.9429 148.191 43.2504 149.003 43.6573C150.047 44.1879 150.778 44.8329 151.202 45.5829C151.626 46.3329 151.836 47.7036 151.836 49.6911V50.2986V57.4292C151.836 58.9929 151.907 60.1873 152.053 61.0104C152.199 61.8317 152.441 62.5011 152.781 63.0167H144.994ZM144.049 53.3867C142.134 53.7936 140.738 54.2942 139.86 54.8998C138.979 55.4998 138.538 56.2517 138.538 57.1517C138.538 57.7892 138.758 58.2973 139.194 58.6779C139.629 59.0623 140.216 59.2536 140.951 59.2536C142.037 59.2536 142.824 58.9761 143.316 58.4192C143.807 57.8661 144.053 56.9323 144.053 55.6292V53.3867H144.049Z" fill="white" fill-opacity="0.9"/>
<path d="M155.115 56.6568L161.764 56.6718C161.841 57.7124 162.112 58.4699 162.576 58.9462C163.039 59.4262 163.734 59.6643 164.661 59.6643C165.403 59.6643 166.014 59.4993 166.492 59.1693C166.972 58.843 167.211 58.4193 167.211 57.898C167.211 57.4518 167.046 57.0768 166.712 56.7843C166.378 56.4918 165.643 56.1393 164.498 55.7362C164.25 55.6443 163.867 55.5055 163.346 55.3218C160.657 54.3843 158.786 53.5087 157.727 52.6893C156.975 52.1362 156.399 51.4874 156 50.7487C155.601 50.0118 155.402 49.2356 155.402 48.4312C155.402 46.6068 156.227 45.1537 157.879 44.0662C159.529 42.9824 161.758 42.4406 164.569 42.4406C167.488 42.4406 169.734 42.9599 171.307 44.0081C172.882 45.0524 173.67 46.5487 173.67 48.5006V48.8662L167.147 48.8474C167.115 47.8406 166.912 47.1187 166.536 46.6912C166.161 46.2618 165.551 46.0462 164.704 46.0462C163.952 46.0462 163.352 46.1999 162.906 46.5074C162.463 46.8149 162.24 47.218 162.24 47.7168C162.24 48.5962 163.354 49.4043 165.579 50.1449C165.887 50.2518 166.125 50.3324 166.294 50.3906C169.341 51.4162 171.377 52.4155 172.41 53.3868C173.439 54.358 173.955 55.6274 173.955 57.1987C173.955 59.2199 173.124 60.7837 171.465 61.8937C169.804 63.0037 167.438 63.5568 164.363 63.5568C161.441 63.5568 159.171 62.9962 157.549 61.8768C155.927 60.7574 155.115 59.1805 155.115 57.1555V56.6568Z" fill="white" fill-opacity="0.9"/>
<path d="M184.043 63.0167V56.908H192.21V63.0167H184.043Z" fill="#30302E" fill-opacity="0.9"/>
<path d="M204.362 63.0167H196.984V36.3617H204.362V63.0167Z" fill="#30302E" fill-opacity="0.9"/>
<path d="M221.411 62.9549C220.507 63.0786 219.716 63.1742 219.041 63.2399C218.368 63.3017 217.792 63.3355 217.316 63.3355C215.844 63.3355 214.59 63.1555 213.555 62.7974C212.518 62.443 211.757 61.9255 211.265 61.2561C210.943 60.7949 210.716 60.2155 210.589 59.5161C210.457 58.8167 210.392 57.7517 210.392 56.3192V53.8442V47.1242H207.512V42.9786H210.392V37.438H217.865V42.9786H221.411V47.1242H217.865V55.2974C217.865 57.0411 218.034 58.1136 218.372 58.5205C218.709 58.9236 219.36 59.1242 220.329 59.1242C220.498 59.1242 220.774 59.1055 221.158 59.0736C221.265 59.0624 221.349 59.0549 221.411 59.0549V62.9549Z" fill="#30302E" fill-opacity="0.9"/>
</svg>
