<svg xmlns="http://www.w3.org/2000/svg" width="1000" height="500" viewBox="0 0 1000 500">
  <path fill="#FFF" d="M766.886447 49.8037172L766.886447 1.26454751 738.266178 1.26454751 738.266178 25.5827688 712.869353.291818656 629.059829 83.6546813 629.059829 195.518499 799.70696 195.518499 799.70696 83.6546813 766.886447 49.8037172zM671.648352 187.736668L640.19536 187.736668 640.19536 164.293903 671.648352 164.293903 671.648352 187.736668zM718.437118 187.736668L690.01221 187.736668 690.01221 85.4055932 718.437118 85.4055932 718.437118 187.736668zM784.273504 126.746569L770.598291 126.746569 770.598291 158.165711C770.598291 164.87754 771.282051 168.963002 772.551893 170.519368 773.821734 172.075734 776.361416 172.853917 780.07326 172.853917 780.757021 172.853917 781.831502 172.756644 783.296703 172.659371 783.687424 172.659371 784.078144 172.562098 784.273504 172.562098L784.273504 187.542123C780.757021 188.028487 777.728938 188.417579 775.091575 188.612124 772.454212 188.80667 770.30525 189.001216 768.449328 189.001216 762.783883 189.001216 757.899878 188.320306 753.894994 186.958485 749.89011 185.596665 746.959707 183.651207 745.103785 181.024839 743.833944 179.273927 742.954823 177.036651 742.466422 174.31301 741.978022 171.589369 741.684982 167.503908 741.684982 162.056627L741.684982 126.746569 730.647131 126.746569 730.647131 110.793816 741.782662 110.793816 741.782662 89.4910544 770.598291 89.4910544 770.598291 110.793816 784.273504 110.793816 784.273504 126.746569zM53.8217338 187.736668L52.1611722 180.733021C48.5470085 183.553934 44.6398046 185.693938 40.3418803 187.153031 36.043956 188.612124 31.3553114 189.293035 26.3736264 189.293035 18.3638584 189.293035 11.9169719 187.347577 7.22832723 183.456661 2.53968254 179.565746.195360195 174.31301.195360195 167.601181.195360195 161.764808 2.14896215 156.998437 6.15384615 153.204794 10.1587302 149.411152 16.7032967 146.201146 25.8852259 143.380233 28.034188 142.796595 31.0622711 141.921139 34.7741148 140.948411 45.4212454 138.030224 50.7936508 134.722946 50.7936508 131.026576 50.7936508 128.7893 50.01221 127.038388 48.4493284 125.871113 46.8864469 124.703839 44.7374847 124.120201 41.8070818 124.120201 38.2905983 124.120201 35.7509158 124.898385 34.0903541 126.454751 32.4297924 128.011117 31.5506716 130.442939 31.5506716 133.750217L31.5506716 134.236582 2.73504274 134.236582C2.73504274 125.579295 5.95848596 119.062011 12.4053724 114.782005 18.8522589 110.501998 28.6202686 108.459267 41.8070818 108.459267 47.7655678 108.459267 53.040293 108.848359 57.6312576 109.723814 62.3199023 110.501998 66.1294261 111.766545 69.3528694 113.322911 73.3577534 115.365642 76.1904762 117.797464 77.8510379 120.715651 79.5115995 123.633837 80.2930403 128.886573 80.2930403 136.473858L80.2930403 138.808407 80.2930403 166.239361C80.2930403 172.27028 80.5860806 176.842105 81.1721612 179.954838 81.7582418 183.06757 82.6373626 185.693938 84.004884 187.639396L53.8217338 187.639396 53.8217338 187.736668zM50.2075702 150.772972C42.7838828 152.329338 37.4114774 154.274796 34.0903541 156.609345 30.6715507 158.943894 29.010989 161.764808 29.010989 165.266632 29.010989 167.698454 29.8901099 169.643912 31.5506716 171.103005 33.2112332 172.562098 35.4578755 173.340281 38.2905983 173.340281 42.4908425 173.340281 45.5189255 172.27028 47.3748474 170.130276 49.2307692 167.990273 50.2075702 164.391176 50.2075702 159.430259L50.2075702 150.772972zM98.4615385 187.736668L98.4615385 110.793816 124.835165 110.793816 124.835165 121.591106C127.960928 117.797464 131.379731 114.879277 135.189255 112.836547 138.901099 110.891089 143.199023 109.723814 147.985348 109.334723L147.985348 133.750217C146.422466 133.458398 144.859585 133.263853 143.394383 133.069307 141.929182 132.972034 140.659341 132.874761 139.487179 132.874761 134.896215 132.874761 131.672772 134.139309 129.81685 136.571131 128.058608 139.002953 127.081807 143.769324 127.081807 150.870245L127.081807 187.736668 98.4615385 187.736668zM236.190476 110.793816L236.190476 187.736668 209.328449 187.736668 209.328449 178.593017C206.105006 182.289387 202.588523 185.013028 198.583639 186.666667 194.578755 188.417579 189.98779 189.195762 184.517705 189.195762 176.605617 189.195762 170.744811 187.153031 167.032967 183.164843 163.321123 179.176655 161.465201 172.853917 161.465201 164.293903L161.465201 110.59927 190.28083 110.59927 190.28083 158.165711C190.28083 164.293903 190.769231 168.184818 191.843712 169.643912 192.918193 171.103005 194.774115 171.881188 197.509158 171.881188 200.732601 171.881188 203.174603 170.713913 205.030525 168.379364 206.788767 166.044815 207.765568 162.83481 207.765568 158.652076L207.765568 110.501998 236.190476 110.501998 236.190476 110.793816zM253.382173 149.313879C253.382173 134.333854 256.214896 123.828383 261.978022 117.797464 267.741148 111.766545 277.606838 108.751086 291.575092 108.751086 305.543346 108.751086 315.409035 111.766545 321.172161 117.700191 326.935287 123.73111 329.76801 134.236582 329.76801 149.313879 329.76801 164.293903 326.935287 174.799375 321.172161 180.830294 315.409035 186.861212 305.543346 189.876672 291.575092 189.876672 277.509158 189.876672 267.643468 186.861212 261.978022 180.927566 256.312576 174.896648 253.382173 164.391176 253.382173 149.313879zM282.588523 149.313879C282.588523 160.111169 283.174603 166.920271 284.444444 169.643912 285.714286 172.367553 288.058608 173.729373 291.575092 173.729373 295.091575 173.729373 297.435897 172.464825 298.705739 169.838458 299.97558 167.21209 300.659341 160.402988 300.659341 149.313879 300.659341 138.22477 299.97558 131.415668 298.705739 128.7893 297.435897 126.162932 295.091575 124.801112 291.575092 124.801112 288.058608 124.801112 285.714286 126.162932 284.444444 128.886573 283.272283 131.610214 282.588523 138.419316 282.588523 149.313879zM420.41514 85.3083203L420.41514 187.736668 394.041514 187.736668 394.041514 179.273927C391.306471 182.678478 387.985348 185.304846 384.078144 187.153031 380.17094 189.001216 375.775336 189.876672 370.989011 189.876672 366.984127 189.876672 363.272283 189.293035 360.04884 188.223033 356.727717 187.153031 353.992674 185.596665 351.746032 183.553934 349.206349 181.122112 347.448107 177.912107 346.373626 173.923919 345.299145 169.93573 344.810745 162.348445 344.810745 151.356609 344.810745 133.944763 346.764347 122.563835 350.671551 117.019281 354.578755 111.571999 361.611722 108.848359 371.770452 108.848359 376.068376 108.848359 379.8779 109.529269 383.199023 110.988362 386.422466 112.447455 389.352869 114.684732 391.990232 117.700191L391.990232 85.3083203 420.41514 85.3083203 420.41514 85.3083203zM383.101343 127.135661C379.487179 127.135661 376.947497 128.497481 375.677656 131.318395 374.310134 134.139309 373.626374 140.364773 373.626374 149.897516 373.626374 159.916623 374.212454 166.142088 375.482295 168.57391 376.752137 171.005732 378.998779 172.27028 382.319902 172.27028 386.129426 172.27028 388.766789 170.811186 390.23199 167.795727 391.697192 164.780268 392.380952 156.998437 392.380952 144.255689 392.380952 137.738405 391.697192 133.263853 390.32967 130.734758 388.962149 128.400208 386.520147 127.135661 383.101343 127.135661zM489.57265 187.736668L487.912088 180.733021C484.297924 183.553934 480.39072 185.693938 476.092796 187.153031 471.794872 188.612124 467.106227 189.293035 462.124542 189.293035 454.114774 189.293035 447.667888 187.347577 442.979243 183.456661 438.290598 179.565746 435.946276 174.31301 435.946276 167.601181 435.946276 161.764808 437.899878 156.998437 441.904762 153.204794 445.909646 149.411152 452.454212 146.201146 461.636142 143.380233 463.785104 142.796595 466.813187 141.921139 470.525031 140.948411 481.172161 138.030224 486.544567 134.722946 486.544567 131.026576 486.544567 128.7893 485.763126 127.038388 484.200244 125.871113 482.637363 124.703839 480.4884 124.120201 477.557998 124.120201 474.041514 124.120201 471.501832 124.898385 469.84127 126.454751 468.180708 128.011117 467.301587 130.442939 467.301587 133.750217L467.301587 134.236582 438.485958 134.236582C438.485958 125.579295 441.709402 119.062011 448.156288 114.782005 454.603175 110.501998 464.371184 108.459267 477.557998 108.459267 483.516484 108.459267 488.791209 108.848359 493.382173 109.723814 498.070818 110.501998 501.880342 111.766545 505.103785 113.322911 509.108669 115.365642 511.941392 117.797464 513.601954 120.715651 515.262515 123.633837 516.043956 128.886573 516.043956 136.473858L516.043956 138.808407 516.043956 166.239361C516.043956 172.27028 516.336996 176.842105 516.923077 179.954838 517.509158 183.06757 518.388278 185.693938 519.7558 187.639396L489.57265 187.639396 489.57265 187.736668zM485.860806 150.772972C478.437118 152.329338 473.064713 154.274796 469.74359 156.609345 466.324786 158.943894 464.664225 161.764808 464.664225 165.266632 464.664225 167.698454 465.543346 169.643912 467.203907 171.103005 468.864469 172.562098 471.111111 173.340281 473.943834 173.340281 478.144078 173.340281 481.172161 172.27028 483.028083 170.130276 484.884005 167.990273 485.860806 164.391176 485.860806 159.430259L485.860806 150.772972 485.860806 150.772972zM528.547009 163.321174L554.139194 163.418447C554.432234 167.406635 555.506716 170.324822 557.264957 172.173007 559.023199 174.021192 561.758242 174.896648 565.274725 174.896648 568.107448 174.896648 570.45177 174.31301 572.307692 173.048463 574.163614 171.783915 575.042735 170.130276 575.042735 168.184818 575.042735 166.433907 574.358974 165.072086 573.089133 163.904812 571.819292 162.737537 568.986569 161.472989 564.590965 159.916623 563.614164 159.527532 562.148962 159.041167 560.19536 158.360257 549.84127 154.76116 542.612943 151.356609 538.510379 148.243877 535.579976 146.103874 533.431013 143.672051 531.868132 140.753865 530.30525 137.932951 529.52381 134.917492 529.52381 131.804759 529.52381 124.801112 532.747253 119.256557 539.096459 115.073823 545.445665 110.891089 554.041514 108.848359 564.884005 108.848359 576.117216 108.848359 584.810745 110.891089 590.866911 114.879277 596.923077 118.867466 599.95116 124.606566 599.95116 132.096578L599.95116 133.458398 574.749695 133.361126C574.652015 129.47021 573.870574 126.746569 572.405372 125.09293 570.940171 123.439291 568.595849 122.661108 565.372405 122.661108 562.442002 122.661108 560.19536 123.244746 558.437118 124.41202 556.678877 125.579295 555.897436 127.135661 555.897436 129.081119 555.897436 132.48567 560.19536 135.598402 568.791209 138.419316 569.96337 138.808407 570.940171 139.100226 571.526252 139.392044 583.247863 143.380233 591.159951 147.173875 595.067155 150.870245 599.072039 154.566615 601.025641 159.430259 601.025641 165.461178 601.025641 173.243009 597.802198 179.273927 591.452991 183.456661 585.006105 187.736668 575.921856 189.876672 564.102564 189.876672 552.869353 189.876672 544.078144 187.736668 537.826618 183.456661 531.575092 179.176655 528.449328 173.145736 528.449328 165.363905L528.449328 163.321174 528.547009 163.321174z" transform="translate(100.48 152)"/>
</svg>
