<svg xmlns="http://www.w3.org/2000/svg" width="1000" height="500" viewBox="0 0 1000 500">
  <g fill="#FFF" fill-rule="evenodd" transform="translate(100 174)">
    <g transform="translate(0 15.956)">
      <path d="M52.2666667,35.900277 C49.3333333,32.1772853 46.4,28.9861496 43.4666667,27.3905817 C43.2,26.5927978 42.6666667,26.5927978 42.4,26.3268698 C39.2,24.465374 34.9333333,23.1357341 30.6666667,23.1357341 C21.8666667,23.1357341 15.2,27.1246537 10.4,34.5706371 C5.06666667,42.2825485 2.4,52.3878116 2.4,64.6204986 C2.4,76.8531856 4.8,86.4265928 10.4,94.1385042 C15.7333333,101.31856 22.4,105.041551 30.6666667,105.041551 C34.9333333,105.041551 38.9333333,104.243767 42.6666667,101.850416 C43.2,101.31856 43.2,101.31856 43.4666667,101.31856 C46.6666667,98.6592798 50.1333333,95.468144 53.3333333,90.9473684 L53.3333333,102.382271 L84.5333333,102.382271 L84.5333333,25.7950139 L52.2666667,25.7950139 L52.2666667,35.900277 L52.2666667,35.900277 Z M49.8666667,71.800554 C48.5333333,73.6620499 46.1333333,74.4598338 43.7333333,74.4598338 C41.3333333,74.4598338 39.2,73.6620499 37.6,71.800554 C36,69.4072022 35.2,67.2797784 35.2,63.5567867 C35.2,60.365651 36,57.7063712 37.6,55.8448753 C39.2,53.4515235 41.3333333,52.6537396 43.7333333,52.6537396 C46.1333333,52.6537396 48.2666667,53.4515235 49.8666667,55.8448753 C51.4666667,57.7063712 52.2666667,60.365651 52.2666667,63.5567867 C52.2666667,67.0138504 51.4666667,69.9390582 49.8666667,71.800554 L49.8666667,71.800554 Z"/>
      <polygon points="218.933 .266 184.8 .266 184.8 25.795 175.467 25.795 175.467 53.983 184.8 53.983 184.8 102.116 218.933 102.116 218.933 53.983 228.533 53.983 228.533 25.795 218.933 25.795"/>
      <path d="M136.266667 63.0249307C136.266667 68.3434903 135.733333 72.066482 134.933333 73.3961219 134.133333 75.2576177 132.8 75.7894737 130.666667 75.7894737 128.533333 75.7894737 126.933333 74.9916898 126.133333 73.3961219 125.333333 72.066482 125.333333 68.3434903 125.333333 63.0249307L125.333333 25.7950139 92 25.7950139 92 66.7479224C92 80.3102493 95.2 89.8836565 101.6 95.734072 107.733333 102.116343 117.333333 104.775623 131.2 104.775623 144.533333 104.775623 154.4 102.116343 160.533333 95.734072 166.666667 89.8836565 169.6 80.3102493 169.6 66.7479224L169.6 25.7950139 136.266667 25.7950139 136.266667 63.0249307 136.266667 63.0249307zM317.066667 64.0886427C317.066667 68.0775623 316.533333 71.800554 315.466667 75.5235457 297.866667 67.5457064 285.333333 48.6648199 285.333333 26.5927978 285.333333 26.0609418 285.333333 25.2631579 285.333333 24.7313019 303.466667 28.4542936 317.066667 44.6759003 317.066667 64.0886427zM305.866667 91.7451524C298.4 99.4570637 288 104.509695 276.266667 104.509695 264.533333 104.509695 254.133333 99.4570637 246.666667 91.7451524 254.933333 84.8310249 265.066667 80.8421053 276.266667 80.8421053 287.466667 80.5761773 297.6 84.8310249 305.866667 91.7451524zM267.466667 26.0609418C267.466667 48.132964 254.933333 67.0138504 237.333333 74.9916898 236.266667 71.534626 235.733333 67.8116343 235.733333 64.0886427 235.733333 44.9418283 249.066667 28.7202216 267.2 24.7313019 267.2 24.9972299 267.466667 25.5290859 267.466667 26.0609418z"/>
    </g>
    <g transform="translate(237.333)">
      <g transform="translate(88)">
        <polygon points="132.8 118.072 166.933 118.072 166.933 41.751 132.8 41.751"/>
        <path d="M316 78.4487535C313.066667 74.7257618 308 72.598338 301.066667 70.7368421 300.266667 70.2049861 299.466667 70.2049861 298.133333 69.9390582 292.8 68.6094183 290.133333 67.2797784 290.133333 65.4182825 290.133333 64.0886427 290.666667 63.0249307 291.466667 62.2271468 292.8 61.6952909 293.6 61.4293629 295.2 61.4293629 297.333333 61.4293629 299.466667 61.9612188 301.866667 63.2908587 304.266667 64.0886427 307.2 65.9501385 310.133333 68.3434903L318.4 45.7396122C314.666667 43.6121884 310.4 42.0166205 305.866667 41.2188366 301.333333 40.4210526 296.8 39.3573407 291.733333 39.3573407 282.133333 39.3573407 273.866667 42.0166205 268 47.0692521 261.866667 52.1218837 258.933333 58.7700831 258.933333 66.4819945 258.933333 72.33241 260.266667 76.8531856 263.2 80.5761773 266.4 83.767313 271.2 86.4265928 277.6 88.2880886 278.4 88.8199446 279.2 88.8199446 280.8 89.0858726 284.533333 89.8836565 286.666667 91.4792244 286.666667 93.0747922 286.666667 94.4044321 286.133333 95.468144 285.333333 96.265928 284 97.0637119 282.933333 97.5955679 281.066667 97.5955679 278.933333 97.5955679 276 96.7977839 273.066667 95.2022161 269.866667 93.8725762 266.4 91.4792244 262.666667 88.8199446L253.6 112.487535C258.666667 115.146814 264 117.540166 269.333333 118.869806 274.666667 120.199446 280.266667 120.731302 285.866667 120.731302 296.266667 120.731302 304.533333 118.072022 310.666667 113.019391 316.8 107.700831 320.266667 100.254848 320.266667 91.7451524 321.066667 86.4265928 319.466667 81.6398892 316 78.4487535L316 78.4487535zM219.466667 78.9806094C219.466667 84.299169 218.933333 88.0221607 218.666667 89.3518006 217.866667 91.2132964 216.266667 91.7451524 214.133333 91.7451524 212 91.7451524 210.933333 90.9473684 209.866667 89.3518006 209.066667 88.0221607 208.533333 84.299169 208.533333 78.9806094L208.533333 41.7506925 175.2 41.7506925 175.2 82.7036011C175.2 96.265928 178.133333 105.839335 184.266667 111.689751 190.4 118.072022 200.533333 120.731302 213.6 120.731302 227.2 120.731302 236.8 118.072022 243.2 111.689751 249.333333 105.839335 252.8 96.265928 252.8 82.7036011L252.8 41.7506925 219.2 41.7506925 219.2 78.9806094 219.466667 78.9806094zM149.866667.531855956C144.533333.531855956 140 1.86149584 136.533333 5.05263158 133.333333 8.24376731 131.466667 12.232687 131.466667 17.8171745 131.466667 23.1357341 133.066667 27.9224377 136.533333 31.1135734 139.733333 34.3047091 144.533333 36.166205 149.866667 36.166205 155.733333 36.166205 160.266667 34.3047091 163.2 31.1135734 166.4 27.9224377 168.266667 23.401662 168.266667 17.8171745 168.266667 12.232687 166.666667 8.24376731 163.733333 5.05263158 160.266667 1.86149584 155.733333.531855956 149.866667.531855956L149.866667.531855956z"/>
        <polygon points="89.067 118.072 122.933 118.072 122.933 3.723 89.067 3.723"/>
        <path d="M54.6666667 39.0914127C50.1333333 39.0914127 46.4 40.4210526 42.6666667 42.2825485 42.1333333 42.8144044 41.8666667 42.8144044 41.3333333 43.0803324 38.4 44.9418283 35.4666667 48.132964 32.5333333 51.5900277L32.5333333 41.4847645.266666667 41.4847645.266666667 151.047091 33.8666667 151.047091 33.8666667 120.731302C33.8666667 118.33795 33.8666667 115.67867 33.3333333 113.551247 33.3333333 111.689751 32.8 109.562327 32.8 107.700831 35.2 111.689751 38.1333333 114.880886 41.0666667 117.274238 41.6 117.274238 41.8666667 117.274238 42.4 117.806094 45.6 120.199446 49.8666667 120.99723 54.4 120.99723 62.4 120.99723 69.0666667 117.274238 74.4 109.562327 79.7333333 102.382271 82.1333333 92.8088643 82.1333333 80.5761773 82.1333333 68.3434903 79.7333333 58.2382271 74.6666667 50.5263158 69.6 43.0803324 62.9333333 39.0914127 54.6666667 39.0914127L54.6666667 39.0914127zM48 88.0221607C46.4 89.8836565 44.2666667 91.2132964 41.3333333 91.2132964 38.9333333 91.2132964 36.8 89.8836565 35.2 88.0221607 33.6 85.6288089 32.8 82.9695291 32.8 79.7783934 32.8 76.5872576 33.6 73.9279778 35.2 71.534626 36.8 69.6731302 38.9333333 68.3434903 41.3333333 68.3434903 44.2666667 68.3434903 46.4 69.6731302 48 71.534626 49.3333333 73.6620499 50.1333333 76.5872576 50.1333333 79.7783934 50.1333333 82.9695291 49.3333333 85.8947368 48 88.0221607L48 88.0221607zM346.933333 84.8310249C341.6 84.8310249 337.066667 86.1606648 333.6 89.3518006 330.4 92.5429363 328.533333 96.531856 328.533333 102.116343 328.533333 107.434903 330.133333 112.221607 333.6 115.412742 337.066667 118.603878 341.6 120.465374 346.933333 120.465374 352.8 120.465374 357.333333 118.603878 360.266667 115.412742 363.466667 112.221607 365.333333 107.700831 365.333333 102.116343 365.333333 96.7977839 363.733333 92.5429363 360.8 89.3518006 357.333333 86.1606648 352.8 84.8310249 346.933333 84.8310249L346.933333 84.8310249z"/>
        <polygon points="376.267 117.806 410.133 117.806 410.133 3.457 376.267 3.457"/>
        <polygon points="462.667 16.488 428.533 16.488 428.533 41.751 419.2 41.751 419.2 69.939 428.533 69.939 428.533 118.072 462.667 118.072 462.667 69.939 472.267 69.939 472.267 41.751 462.667 41.751"/>
      </g>
      <path d="M75.7333333,97.3296399 C74.6666667,99.1911357 73.6,101.31856 72.5333333,102.914127 C63.2,94.9362881 51.7333333,90.1495845 38.9333333,90.1495845 C26.4,90.1495845 14.6666667,94.9362881 5.6,102.648199 C4.26666667,100.786704 3.2,98.9252078 2.4,96.7977839 C22.1333333,88.0221607 36,66.7479224 36,42.0166205 C36,41.2188366 36,40.4210526 36,39.6232687 C37.0666667,39.6232687 38.1333333,39.3573407 39.2,39.3573407 C40.2666667,39.3573407 41.0666667,39.3573407 42.1333333,39.3573407 C42.1333333,40.1551247 42.1333333,41.2188366 42.1333333,42.0166205 C41.8666667,67.0138504 56,88.2880886 75.7333333,97.3296399 Z"/>
    </g>
  </g>
</svg>
