<svg xmlns="http://www.w3.org/2000/svg" width="1000" height="500" viewBox="0 0 1000 500">
  <path fill="#FFF" fill-rule="evenodd" d="M57.475817 97.4648366C54.1738562 98.5498039 49.9228758 99.6922876 44.6993464 100.884444 36.2 102.790327 31.951634 106.105359 31.951634 110.821699 31.951634 112.941961 32.6941176 114.638693 34.2052288 115.911895 35.7137255 117.182484 37.7111111 117.817778 40.1947712 117.817778 45.3660131 117.817778 49.4627451 116.042614 52.4823529 112.463529 55.5045752 108.889673 57.1673203 103.880523 57.475817 97.4648366L57.475817 97.4648366zM56.0431373 135.124967L54.9921569 127.203399C50.5372549 130.730196 45.9803922 133.375948 41.2954248 135.179869 36.6366013 136.955033 31.7712418 137.856993 26.7019608 137.856993 18.6130719 137.856993 12.1346405 135.710588 7.26928105 131.415163 2.43267974 127.124967.00130718954 121.425621.00130718954 114.319739.00130718954 104.64915 3.04705882 97.412549 9.1124183 92.6151634 15.1830065 87.8177778 25.551634 84.6648366 40.220915 83.0988235 41.3215686 82.9942484 42.8065359 82.860915 44.7281046 82.7040523 55.172549 81.6687582 60.3934641 79.0726797 60.3934641 74.8583007 60.3934641 72.6569935 59.4732026 70.9079739 57.6535948 69.6347712 55.8392157 68.364183 53.3294118 67.7288889 50.1267974 67.7288889 46.5712418 67.7288889 43.8810458 68.419085 42.0640523 69.7942484 40.220915 71.1484967 39.1699346 73.3210458 38.8640523 76.2622222L8.4745098 76.2622222C9.77908497 66.6935948 14.0562092 59.564183 21.3006536 54.8739869 28.5477124 50.1837908 38.9660131 47.8491503 52.5084967 47.8491503 65.0522876 47.8491503 74.6287582 50.1053595 81.2091503 54.6360784 87.7895425 59.1694118 91.0653595 65.7681046 91.0653595 74.4086275 91.0653595 75.8648366 90.9633987 77.6661438 90.7568627 79.867451 90.5529412 82.0661438 90.2705882 84.4243137 89.8627451 86.915817L85.2797386 117.420392C84.9973856 119.250458 84.7673203 120.709281 84.6653595 121.820392 84.5372549 122.934118 84.4588235 123.80732 84.4588235 124.497516 84.4588235 126.246536 84.6915033 127.809935 85.151634 129.161569 85.5856209 130.487059 86.3019608 131.731503 87.2509804 132.871373L87.2509804 135.124967 56.0431373 135.124967zM152.853595 135.124967L153.904575 123.702745C150.346405 128.262222 146.249673 131.734118 141.616993 134.121046 136.955556 136.505359 131.964706 137.697516 126.613072 137.697516 118.061438 137.697516 111.381699 135.153725 106.566013 130.089673 101.779085 125.002092 99.3738562 117.953725 99.3738562 108.889673 99.3738562 107.697516 99.4235294 106.453072 99.5254902 105.177255 99.6300654 103.93281 99.7581699 102.636078 99.9098039 101.334118L106.950327 50.7145098 138.466667 50.7145098 132.168627 95.8230065C132.014379 96.7511111 131.886275 97.7315033 131.810458 98.7118954 131.734641 99.694902 131.708497 100.698824 131.708497 101.734118 131.708497 104.887059 132.579085 107.352418 134.343791 109.101438 136.084967 110.876601 138.594771 111.752418 141.820915 111.752418 145.687582 111.752418 148.70719 110.560261 150.858824 108.14719 153.033987 105.734118 154.545098 101.89098 155.339869 96.6177778L161.943791 50.7145098 193.279739 50.7145098 181.426144 135.124967 152.853595 135.124967zM244.43268 134.968105C241.284967 135.38902 238.236601 135.68183 235.321569 135.896209 232.401307 136.107974 229.585621 136.212549 226.871895 136.212549 219.345098 136.212549 213.481046 134.518431 209.334641 131.098824 205.188235 127.68183 203.115033 122.855686 203.115033 116.654379 203.115033 115.511895 203.19085 114.162876 203.342484 112.651765 203.499346 111.11451 203.703268 109.336732 204.00915 107.32366L209.258824 69.4230065 197.711111 69.4230065 200.47451 50.7118954 211.969935 50.7118954 215.554248 24.7929412 246.071895 24.7929412 242.40915 50.7118954 254.853595 50.7118954 252.215686 69.4230065 239.773856 69.4230065 235.216993 102.050458C235.164706 102.311895 235.112418 102.60732 235.088889 102.952418 235.062745 103.268758 235.062745 103.770719 235.062745 104.460915 235.062745 106.740654 235.752941 108.35634 237.109804 109.336732 238.49281 110.317124 240.746405 110.819085 243.894118 110.819085 244.945098 110.819085 245.737255 110.819085 246.223529 110.792941 246.738562 110.766797 247.224837 110.711895 247.734641 110.659608L244.43268 134.968105zM304.827451 70.3511111C299.705882 70.3511111 295.789542 72.7903268 293 77.694902 290.233987 82.570719 288.85098 89.4857516 288.85098 98.3903268 288.85098 103.93281 289.849673 108.04 291.820915 110.740654 293.792157 113.420392 296.840523 114.769412 300.986928 114.769412 305.8 114.769412 309.614379 112.306667 312.456209 107.402092 315.298039 102.473987 316.733333 95.8752941 316.733333 87.5798693 316.733333 81.8543791 315.734641 77.5354248 313.763399 74.6700654 311.789542 71.7837908 308.822222 70.3511111 304.827451 70.3511111L304.827451 70.3511111zM256.594771 97.1458824C256.594771 82.0922876 261.020915 70.060915 269.90719 61.0491503 278.79085 52.0373856 290.670588 47.5328105 305.569935 47.5328105 318.960784 47.5328105 329.559477 51.1903268 337.368627 58.4792157 345.175163 65.7681046 349.067974 75.7053595 349.067974 88.2151634 349.067974 103.799477 344.76732 116.016471 336.137255 124.866144 327.509804 133.718431 315.606536 138.14719 300.47451 138.14719 286.95817 138.14719 276.281046 134.460915 268.396078 127.093595 260.534641 119.702745 256.594771 109.736732 256.594771 97.1458824L256.594771 97.1458824zM352.770458 137.35451L352.770458 136.246013C352.770458 128.998954 353.596601 122.666928 355.248889 117.189804 356.869804 111.71268 359.405752 106.964967 362.799216 102.946667 366.009673 99.2420915 370.046275 95.3179085 374.880261 91.1375163 379.711634 86.9623529 385.371765 82.5597386 391.821438 77.9061438 393.839739 76.4185621 396.746928 74.3584314 400.506405 71.7022222 417.478954 59.7022222 425.949542 50.1100654 425.949542 42.9571242 425.949542 38.8734641 424.665882 35.6447059 422.06719 33.2682353 419.468497 30.8943791 415.920784 29.6917647 411.426667 29.6917647 405.76915 29.6917647 401.458039 31.6551634 398.522092 35.5793464 395.614902 39.5035294 394.025359 45.3911111 393.782222 53.2447059L359.928627 53.2447059C360.540392 36.4342484 365.617516 23.3309804 375.157386 13.9898039 384.726013 4.65385621 397.782222.000261437908 414.388758.000261437908 429.528627.000261437908 441.45281 3.57673203 450.229281 10.700915 459.005752 17.8538562 463.408366 27.5087582 463.408366 39.6969935 463.408366 47.1375163 461.912941 53.6264052 458.914248 59.2290196 455.946928 64.8342484 450.809673 70.5623529 443.502484 76.4185621 440.715556 78.7296732 434.36 82.8760784 424.420131 88.9257516 414.511634 94.9388235 406.315556 100.256471 399.865882 104.910065L460.106405 104.910065 455.335163 137.357124 352.770458 137.357124 352.770458 137.35451zM503.596601 137.35451L507.970458 107.500915 448.033203 107.500915 452.773072 72.6172549 519.162614 4.18065359 557.878954 4.18065359 547.235817 78.4760784 560.660654 78.4760784 556.438431 107.503529 543.016209 107.503529 538.793987 137.357124 503.596601 137.357124 503.596601 137.35451zM479.928627 78.4760784L513.170458 78.4760784 519.165229 37.0983007 479.928627 78.4760784zM560.216471 135.125752L565.079216 101.282614 597.643922 101.282614 592.624314 135.125752 560.216471 135.125752zM642.020392 83.4211765L670.127582 83.4211765C670.028235 78.4904575 668.84915 74.7022222 666.59817 72.0512418 664.344575 69.3741176 661.194248 68.0486275 657.073987 68.0486275 653.026928 68.0486275 649.675294 69.4002614 647.037386 72.0773856 644.375948 74.7780392 642.710588 78.5427451 642.020392 83.4211765L642.020392 83.4211765zM666.749804 110.506144L697.293595 110.506144C694.684444 119.358431 689.56549 126.168889 681.910588 130.966275 674.279216 135.76366 664.679216 138.147974 653.105359 138.147974 639.411242 138.147974 628.577255 134.571503 620.642614 127.38719 612.68183 120.234248 608.713203 110.506144 608.713203 98.2368627 608.713203 82.8643137 613.037386 70.5924183 621.693595 61.4473203 630.34719 52.2813072 641.941961 47.6956863 656.485752 47.6956863 670.843922 47.6956863 681.779869 51.4603922 689.280523 58.9845752 696.781176 66.5375163 700.519739 77.4839216 700.519739 91.8734641 700.519739 93.2277124 700.493595 94.576732 700.420392 95.9571242 700.341961 97.3375163 700.213856 98.7126797 700.059608 100.116601L640.663529 100.116601 640.663529 101.601569C640.663529 106.715294 641.863529 110.610719 644.271373 113.313987 646.655686 115.993725 650.161569 117.342745 654.768105 117.342745 657.866144 117.342745 660.454379 116.762353 662.553725 115.570196 664.650458 114.375425 666.059608 112.678693 666.749804 110.506144L666.749804 110.506144zM741.20732 83.4211765L769.319739 83.4211765C769.215163 78.4904575 768.038693 74.7022222 765.787712 72.0512418 763.534118 69.3741176 760.386405 68.0486275 756.260915 68.0486275 752.216471 68.0486275 748.862222 69.4002614 746.226928 72.0773856 743.562876 74.7780392 741.900131 78.5427451 741.20732 83.4211765L741.20732 83.4211765zM765.939346 110.506144L796.483137 110.506144C793.868758 119.358431 788.749804 126.168889 781.094902 130.966275 773.463529 135.76366 763.866144 138.147974 752.292288 138.147974 738.595556 138.147974 727.766797 134.571503 719.832157 127.38719 711.868758 120.234248 707.897516 110.506144 707.897516 98.2368627 707.897516 82.8643137 712.226928 70.5924183 720.877908 61.4473203 729.534118 52.2813072 741.126275 47.6956863 755.67268 47.6956863 770.036078 47.6956863 780.966797 51.4603922 788.470065 58.9845752 795.970719 66.5375163 799.706667 77.4839216 799.706667 91.8734641 799.706667 93.2277124 799.683137 94.576732 799.604706 95.9571242 799.528889 97.3375163 799.39817 98.7126797 799.246536 100.116601L739.850458 100.116601 739.850458 101.601569C739.850458 106.715294 741.053072 110.610719 743.458301 113.313987 745.84 115.993725 749.351111 117.342745 753.952418 117.342745 757.055686 117.342745 759.636078 116.762353 761.738039 115.570196 763.837386 114.375425 765.24915 112.678693 765.939346 110.506144L765.939346 110.506144z" transform="translate(100 181)"/>
</svg>
