<svg width="217" height="80" viewBox="0 0 217 80" fill="none" xmlns="http://www.w3.org/2000/svg">
<path d="M74.8046 46.6064C74.8046 43.0001 75.8656 40.1175 77.9939 37.9588C80.1222 35.8001 82.9681 34.7207 86.5377 34.7207C89.7454 34.7207 92.2846 35.5969 94.1553 37.3429C96.0259 39.0889 96.9582 41.4699 96.9582 44.4667C96.9582 48.2001 95.9278 51.127 93.8608 53.2477C91.7939 55.3683 88.9419 56.4286 85.3171 56.4286C82.0787 56.4286 79.5211 55.5461 77.632 53.781C75.7491 52.0101 74.8046 49.6228 74.8046 46.6064ZM86.3598 40.1874C85.1331 40.1874 84.1947 40.7715 83.5262 41.9461C82.8638 43.1143 82.5326 44.7715 82.5326 46.9048C82.5326 48.2318 82.7718 49.2159 83.244 49.8636C83.7163 50.5048 84.4462 50.8286 85.4398 50.8286C86.5928 50.8286 87.5067 50.2382 88.1875 49.0635C88.8683 47.8826 89.2118 46.3016 89.2118 44.3143C89.2118 42.9429 88.9726 41.908 88.5003 41.2223C88.028 40.5302 87.3166 40.1874 86.3598 40.1874ZM71.8913 55.6673C71.1369 55.7683 70.407 55.8387 69.7083 55.8895C69.0091 55.9403 68.3344 55.9657 67.6843 55.9657C65.8811 55.9657 64.4766 55.5593 63.483 54.7403C62.4894 53.9212 61.9926 52.7657 61.9926 51.28C61.9926 51.0064 62.011 50.6831 62.0478 50.3207C62.0846 49.9524 62.1336 49.527 62.2072 49.0445L63.4646 39.9651H60.6979L61.3603 35.4826H64.1142L64.9729 29.2731H72.2838L71.4067 35.4826H74.3875L73.7558 39.9651H70.775L69.6833 47.781C69.671 47.8445 69.6587 47.9143 69.6526 47.9969C69.6465 48.0731 69.6465 48.1937 69.6465 48.3588C69.6465 48.9048 69.8121 49.2921 70.1371 49.527C70.4683 49.762 71.0081 49.8821 71.7625 49.8821C72.0139 49.8821 72.204 49.8821 72.3206 49.8757C72.4432 49.8694 72.5598 49.8567 72.6824 49.844L71.8913 55.6673ZM49.9523 55.7053L50.2038 52.9688C49.3512 54.0609 48.3699 54.8927 47.2598 55.4641C46.1435 56.0355 44.9475 56.3212 43.6657 56.3212C41.6171 56.3212 40.0163 55.7117 38.8633 54.499C37.7163 53.28 37.1398 51.5911 37.1398 49.4196C37.1398 49.1339 37.1521 48.8355 37.1766 48.5307C37.2011 48.2323 37.2318 47.9212 37.2686 47.6101L38.9553 35.4831H46.5054L44.9966 46.2895C44.9598 46.5117 44.9291 46.7466 44.9107 46.9815C44.8923 47.2165 44.8862 47.4577 44.8862 47.7053C44.8862 48.4609 45.0947 49.0514 45.5179 49.4704C45.935 49.8958 46.5361 50.1054 47.3089 50.1054C48.235 50.1054 48.9587 49.8196 49.4739 49.2419C49.9953 48.6641 50.3571 47.7434 50.5472 46.48L52.1297 35.4831H59.6369L56.7971 55.7053H49.9523ZM26.7591 55.7053L26.5077 53.8069C25.4405 54.6519 24.3487 55.2863 23.2263 55.718C22.1101 56.1434 20.9447 56.3593 19.7303 56.3593C17.7922 56.3593 16.2405 55.845 15.0751 54.8165C13.9159 53.7879 13.3333 52.4228 13.3333 50.7207C13.3333 48.4038 14.0631 46.6704 15.5167 45.5207C16.9703 44.3715 19.4543 43.6159 22.9687 43.2413C23.2325 43.2159 23.5882 43.1842 24.0482 43.1461C26.5506 42.8985 27.8018 42.2762 27.8018 41.2667C27.8018 40.7397 27.581 40.3207 27.1455 40.0159C26.7101 39.7112 26.109 39.5588 25.3423 39.5588C24.4898 39.5588 23.8458 39.7239 23.4103 40.054C22.9687 40.3778 22.7173 40.8985 22.6437 41.6032H15.3634C15.6762 39.3112 16.7005 37.6032 18.4362 36.4794C20.1719 35.3556 22.6682 34.7969 25.9127 34.7969C28.9181 34.7969 31.2119 35.3366 32.7882 36.4223C34.3645 37.508 35.1495 39.0889 35.1495 41.1588C35.1495 41.508 35.125 41.9397 35.0759 42.4667C35.0269 42.9937 34.9594 43.5588 34.8612 44.1556L33.7634 51.4636C33.6959 51.9016 33.6407 52.2509 33.6162 52.5175C33.5855 52.7842 33.5671 52.9937 33.5671 53.1588C33.5671 53.5778 33.6223 53.9524 33.7327 54.2762C33.837 54.5937 34.0087 54.8921 34.2357 55.1651V55.7048H26.7591V55.7053ZM27.1026 46.6826C26.3114 46.9429 25.2933 47.2159 24.0421 47.5016C22.0058 47.9588 20.9877 48.7524 20.9877 49.8826C20.9877 50.3905 21.1655 50.7974 21.5274 51.1016C21.8893 51.4064 22.3677 51.5588 22.9626 51.5588C24.2015 51.5588 25.1829 51.1334 25.9066 50.2762C26.6303 49.4196 27.029 48.2196 27.1026 46.6826Z" fill="white"/>
<path d="M128.308 42.1334H136.272L137.708 32.2212L128.308 42.1334ZM133.979 56.2392L135.026 49.0873H120.667L121.803 40.7302L137.708 24.3344H146.982L144.433 42.1334H147.649L146.638 49.0879H143.422L142.41 56.2397H133.979V56.2392ZM97.8457 56.2392V55.9736C97.8457 54.2371 98.0435 52.7201 98.4391 51.4085C98.8275 50.0963 99.4353 48.9588 100.248 47.9958C101.018 47.1085 101.985 46.1683 103.142 45.1672C104.3 44.1662 105.655 43.1122 107.201 41.9969C107.685 41.6408 108.381 41.1477 109.282 40.5106C113.348 37.636 115.377 35.3381 115.377 33.6244C115.377 32.6461 115.069 31.8725 114.447 31.3037C113.824 30.735 112.974 30.4466 111.898 30.4466C110.542 30.4466 109.509 30.917 108.806 31.8572C108.11 32.7974 107.729 34.208 107.67 36.0889H99.5605C99.7072 32.0619 100.923 28.9223 103.209 26.6852C105.501 24.4482 108.629 23.3334 112.607 23.3334C116.234 23.3334 119.091 24.1905 121.193 25.8969C123.296 27.6106 124.351 29.9239 124.351 32.8434C124.351 34.626 123.992 36.1805 123.275 37.5228C122.564 38.8651 121.333 40.2376 119.582 41.6408C118.915 42.1942 117.392 43.1879 115.01 44.6366C112.637 46.0778 110.674 47.3514 109.128 48.4662H123.56L122.417 56.2397H97.8457V56.2392Z" fill="white"/>
<path d="M196.827 49.8069H204.144C203.518 51.9275 202.291 53.5593 200.458 54.7085C198.63 55.8577 196.33 56.4291 193.558 56.4291C190.276 56.4291 187.682 55.572 185.781 53.8513C183.874 52.1371 182.922 49.8069 182.922 46.8672C182.922 43.1847 183.959 40.245 186.031 38.0545C188.105 35.8577 190.883 34.7593 194.367 34.7593C197.808 34.7593 200.426 35.6614 202.224 37.464C204.022 39.2736 204.917 41.8958 204.917 45.3434C204.917 45.6672 204.911 45.991 204.892 46.3212C204.874 46.6519 204.843 46.982 204.806 47.318H190.577V47.6736C190.577 48.899 190.865 49.8323 191.441 50.4799C192.012 51.1212 192.853 51.445 193.956 51.445C194.698 51.445 195.317 51.3053 195.82 51.0196C196.323 50.7339 196.662 50.3275 196.827 49.8069ZM190.902 43.318H197.637C197.612 42.1371 197.33 41.2291 196.79 40.5942C196.25 39.9529 195.497 39.6355 194.508 39.6355C193.54 39.6355 192.736 39.9593 192.104 40.6005C191.466 41.2476 191.068 42.1498 190.902 43.318ZM173.065 49.8069H180.382C179.757 51.9275 178.53 53.5593 176.696 54.7085C174.868 55.8577 172.568 56.4291 169.796 56.4291C166.515 56.4291 163.92 55.572 162.019 53.8513C160.111 52.1371 159.16 49.8069 159.16 46.8672C159.16 43.1847 160.197 40.245 162.27 38.0545C164.343 35.8577 167.121 34.7593 170.606 34.7593C174.045 34.7593 176.665 35.6614 178.462 37.464C180.259 39.2736 181.154 41.8958 181.154 45.3434C181.154 45.6672 181.148 45.991 181.13 46.3212C181.112 46.6519 181.081 46.982 181.045 47.318H166.815V47.6736C166.815 48.899 167.103 49.8323 167.68 50.4799C168.25 51.1212 169.091 51.445 170.194 51.445C170.936 51.445 171.556 51.3053 172.059 51.0196C172.562 50.7339 172.899 50.3275 173.065 49.8069ZM167.14 43.318H173.874C173.85 42.1371 173.567 41.2291 173.028 40.5942C172.488 39.9529 171.734 39.6355 170.746 39.6355C169.777 39.6355 168.974 39.9593 168.342 40.6005C167.705 41.2476 167.305 42.1498 167.14 43.318ZM147.542 55.7053L148.708 47.5974H156.509L155.307 55.7053H147.542Z" fill="white"/>
</svg>
