<svg width="244" height="90" viewBox="0 0 244 90" fill="none" xmlns="http://www.w3.org/2000/svg">
<path fill-rule="evenodd" clip-rule="evenodd" d="M29.88 44.6683C29.1113 43.7064 28.3425 42.8627 27.5757 42.3808C27.465 42.2608 27.3582 42.2608 27.2475 42.1389C26.3682 41.6589 25.2694 41.2952 24.1744 41.2952C21.8663 41.2952 20.1113 42.3808 18.7875 44.3064C17.3625 46.3558 16.7063 49.0052 16.7063 52.2583C16.7063 55.5114 17.3644 58.0408 18.7875 60.092C20.22 62.0139 21.9732 62.9777 24.1744 62.9777C25.2694 62.9777 26.3682 62.7395 27.3563 62.1395C27.465 62.0158 27.465 62.0158 27.5738 62.0158C28.4513 61.2939 29.3307 60.452 30.21 59.2502V62.2577H38.4413V42.0227H29.88V44.6683ZM29.22 54.1839C28.8938 54.6677 28.2319 54.9058 27.5738 54.9058C26.9119 54.9058 26.3663 54.6677 25.9257 54.1839C25.4888 53.5839 25.2675 52.982 25.2675 52.0164C25.2675 51.1745 25.4869 50.4527 25.9257 49.9689C26.3663 49.3689 26.9119 49.1308 27.5738 49.1308C28.2319 49.1308 28.7832 49.3689 29.22 49.9689C29.6607 50.4527 29.88 51.1745 29.88 52.0164C29.88 52.9839 29.6607 53.702 29.22 54.1839Z" fill="white" fill-opacity="0.9"/>
<path fill-rule="evenodd" clip-rule="evenodd" d="M73.9782 35.2726H64.9763V42.0226H62.4507V49.487H64.9763V62.2557H73.9782V49.487H76.5038V42.0226H73.9782V35.2726Z" fill="white" fill-opacity="0.9"/>
<path fill-rule="evenodd" clip-rule="evenodd" d="M52.1439 51.9001C52.1439 53.3438 52.0314 54.3057 51.8158 54.6695C51.5927 55.1532 51.2627 55.2695 50.7171 55.2695C50.1677 55.2695 49.7271 55.0313 49.5058 54.6695C49.2921 54.3076 49.2921 53.3438 49.2921 51.9001V42.0226H40.3989V52.8601C40.3989 56.4713 41.2783 59.0082 42.9189 60.5757C44.5727 62.2557 47.0946 62.9776 50.7189 62.9776C54.2308 62.9776 56.8652 62.2557 58.5133 60.5757C60.1633 59.0082 60.9283 56.4713 60.9283 52.8601V42.0226H52.1439V51.9001Z" fill="white" fill-opacity="0.9"/>
<path fill-rule="evenodd" clip-rule="evenodd" d="M91.5227 41.6646C91.5115 41.8258 91.5002 41.9871 91.5002 42.1521C91.5002 48.0171 94.8077 53.0458 99.484 55.1402C99.7634 54.1839 99.919 53.177 99.919 52.1327C99.9209 47.0102 96.3246 42.7333 91.5227 41.6646Z" fill="white" fill-opacity="0.9"/>
<path fill-rule="evenodd" clip-rule="evenodd" d="M86.7899 42.0938C86.7899 41.9569 86.7787 41.82 86.7693 41.6813C82.0031 42.7781 78.4443 47.0363 78.4443 52.1344C78.4443 53.1488 78.5962 54.1257 78.8587 55.0613C83.5068 52.9425 86.7899 47.9363 86.7899 42.0938Z" fill="white" fill-opacity="0.9"/>
<path fill-rule="evenodd" clip-rule="evenodd" d="M81.3618 59.477C83.3212 61.5639 86.0943 62.8745 89.1824 62.8745C92.2593 62.8745 95.0249 61.5751 96.9824 59.5014C94.8131 57.6657 92.0999 56.5576 89.1506 56.5576C86.2199 56.5576 83.5256 57.6564 81.3618 59.477Z" fill="white" fill-opacity="0.9"/>
<path d="M146.288 42.0226H137.282V62.2576H146.288V42.0226Z" fill="white" fill-opacity="0.9"/>
<path fill-rule="evenodd" clip-rule="evenodd" d="M181.781 49.7306C181.565 49.6106 181.346 49.6106 181.016 49.485C179.587 49.1306 178.929 48.7631 178.929 48.2831C178.929 47.9212 179.04 47.6793 179.259 47.4375C179.589 47.3212 179.808 47.1993 180.249 47.1993C180.795 47.1993 181.346 47.3193 182.006 47.6793C182.664 47.9212 183.435 48.4012 184.2 49.005L186.393 42.9806C185.409 42.3806 184.31 42.0206 183.103 41.7731C181.895 41.5368 180.692 41.2931 179.375 41.2931C176.844 41.2931 174.648 42.0206 173.111 43.3425C171.461 44.6662 170.7 46.4756 170.7 48.525C170.7 50.0887 171.026 51.2943 171.793 52.2562C172.676 53.0981 173.883 53.8237 175.637 54.3037C175.854 54.4237 176.079 54.4237 176.522 54.5456C177.502 54.7875 178.055 55.1493 178.055 55.6331C178.055 55.9912 177.943 56.2293 177.725 56.4675C177.395 56.7131 177.063 56.8331 176.623 56.8331C176.079 56.8331 175.31 56.5912 174.542 56.2293C173.662 55.8712 172.783 55.2656 171.793 54.5456L169.382 60.8118C170.7 61.5337 172.125 62.1375 173.552 62.4993C174.98 62.8612 176.405 62.9756 177.945 62.9756C180.693 62.9756 182.887 62.2537 184.533 60.9281C186.178 59.4843 187.059 57.5587 187.059 55.2656C187.059 53.8218 186.624 52.6181 185.743 51.7762C184.968 50.8162 183.652 50.2106 181.781 49.7306Z" fill="white" fill-opacity="0.9"/>
<path fill-rule="evenodd" clip-rule="evenodd" d="M160.207 51.9001C160.207 53.3438 160.091 54.3057 159.984 54.6695C159.763 55.1532 159.322 55.2695 158.773 55.2695C158.225 55.2695 157.895 55.0313 157.676 54.6695C157.457 54.3076 157.346 53.3438 157.346 51.9001V42.0226H148.562V52.8601C148.562 56.4713 149.328 59.0082 150.977 60.5757C152.625 62.2557 155.261 62.9776 158.771 62.9776C162.395 62.9776 164.921 62.2557 166.569 60.5757C168.215 59.0082 169.093 56.4713 169.093 52.8601V42.0226H160.205V51.9001H160.207Z" fill="white" fill-opacity="0.9"/>
<path fill-rule="evenodd" clip-rule="evenodd" d="M141.782 31.0557C140.351 31.0557 139.144 31.4213 138.266 32.2632C137.392 33.1088 136.95 34.1888 136.95 35.6382C136.95 37.0819 137.392 38.2838 138.266 39.1313C139.144 39.9713 140.351 40.4532 141.782 40.4532C143.317 40.4532 144.529 39.9713 145.297 39.1313C146.177 38.2838 146.612 37.08 146.612 35.6382C146.612 34.1907 146.177 33.1088 145.402 32.2632C144.529 31.4213 143.319 31.0557 141.782 31.0557Z" fill="white" fill-opacity="0.9"/>
<path d="M134.67 31.8975H125.666V62.2556H134.67V31.8975Z" fill="white" fill-opacity="0.9"/>
<path fill-rule="evenodd" clip-rule="evenodd" d="M116.58 41.295C115.37 41.295 114.386 41.6588 113.398 42.1388C113.283 42.2588 113.178 42.2588 113.068 42.3807C112.295 42.8625 111.528 43.7063 110.762 44.6682V42.0225H102.197V71.0532H111.09V62.9775C111.09 62.3775 111.09 61.6557 110.981 61.0557C110.981 60.5757 110.87 59.9682 110.87 59.4882C111.528 60.5757 112.295 61.4138 113.068 62.0157C113.178 62.0157 113.283 62.0157 113.398 62.1394C114.273 62.7394 115.372 62.9775 116.58 62.9775C118.663 62.9775 120.423 62.0138 121.852 59.9682C123.273 58.0425 123.932 55.5113 123.932 52.26C123.932 49.0088 123.272 46.3575 121.953 44.3082C120.534 42.3807 118.777 41.295 116.58 41.295ZM114.825 54.3057C114.386 54.7894 113.837 55.1513 113.066 55.1513C112.406 55.1513 111.857 54.7894 111.418 54.3057C110.979 53.7019 110.758 52.9838 110.758 52.1419C110.758 51.2963 110.977 50.5707 111.418 49.9707C111.857 49.4869 112.406 49.1325 113.066 49.1325C113.835 49.1325 114.384 49.4869 114.825 49.9707C115.151 50.5707 115.37 51.2963 115.37 52.1419C115.37 52.9838 115.151 53.7019 114.825 54.3057Z" fill="white" fill-opacity="0.9"/>
<path fill-rule="evenodd" clip-rule="evenodd" d="M193.922 53.415C192.495 53.415 191.289 53.7769 190.404 54.6169C189.529 55.4625 189.088 56.5463 189.088 57.99C189.088 59.4357 189.529 60.6413 190.404 61.4832C191.289 62.3288 192.495 62.8088 193.922 62.8088C195.459 62.8088 196.667 62.3288 197.436 61.4832C198.313 60.6413 198.754 59.4357 198.754 57.99C198.754 56.5463 198.313 55.4625 197.544 54.6169C196.667 53.7788 195.459 53.415 193.922 53.415Z" fill="white" fill-opacity="0.9"/>
<path d="M210.656 31.8469H201.652V62.205H210.656V31.8469Z" fill="white" fill-opacity="0.9"/>
<path fill-rule="evenodd" clip-rule="evenodd" d="M224.52 42.032V35.282H215.518V42.032H212.994V49.5001H215.518V62.267H224.52V49.5001H227.046V42.032H224.52Z" fill="white" fill-opacity="0.9"/>
<path fill-rule="evenodd" clip-rule="evenodd" d="M89.9342 42.1519C89.9342 41.9137 89.953 41.6756 89.9661 41.4412C89.7073 41.4206 89.4486 41.4019 89.1823 41.4019C88.8955 41.4019 88.6086 41.4225 88.3273 41.445C88.3367 41.6587 88.3573 41.8744 88.3573 42.0937C88.3573 48.6525 84.6673 54.2737 79.4492 56.6419C79.6986 57.1837 79.9836 57.7031 80.3192 58.1906C82.7623 56.1037 85.8242 54.8475 89.1523 54.8475C92.5011 54.8475 95.5761 56.1187 98.0267 58.2206C98.3548 57.7481 98.6361 57.24 98.8855 56.715C93.6392 54.36 89.9342 48.7312 89.9342 42.1519Z" fill="white" fill-opacity="0.9"/>
</svg>
