<svg xmlns="http://www.w3.org/2000/svg" width="1000" height="500" viewBox="0 0 1000 500">
  <g fill="none" fill-rule="evenodd" transform="translate(100 109.362)">
    <path d="M134.857922,57.5014651 L134.857922,224.565179 C134.857922,264.559727 160.696422,281.197547 191.137308,281.197547 L191.137308,281.197547 C220.869506,281.197547 246.706644,265.269779 246.706644,224.565179 L246.706644,224.565179 L246.706644,137.636388 C226.76661,137.636388 210.601704,153.801295 210.601704,173.739966 L210.601704,173.739966 L210.601704,219.964157 C210.601704,239.785622 200.693697,246.864327 190.780239,246.864327 L190.780239,246.864327 C180.870869,246.864327 170.962862,239.785622 170.962862,219.964157 L170.962862,219.964157 L170.962862,62.1011244 C170.962862,42.2796593 180.870869,35.200954 190.780239,35.200954 L190.780239,35.200954 C200.693697,35.200954 210.601704,42.2796593 210.601704,62.1011244 L210.601704,62.1011244 L210.601704,99.9736968 C230.541738,99.9736968 246.706644,83.8101533 246.706644,63.8701193 L246.706644,63.8701193 L246.706644,55.0224191 C246.706644,14.3164566 220.516525,0.869097104 192.197615,0.869097104 L192.197615,0.869097104 C160.342078,0.869097104 134.857922,17.5028279 134.857922,57.5014651"/>
    <path fill="#FFF" d="M134.857922,57.5014651 L134.857922,224.565179 C134.857922,264.559727 160.696422,281.197547 191.137308,281.197547 L191.137308,281.197547 C220.869506,281.197547 246.706644,265.269779 246.706644,224.565179 L246.706644,224.565179 L246.706644,137.636388 C226.76661,137.636388 210.601704,153.801295 210.601704,173.739966 L210.601704,173.739966 L210.601704,219.964157 C210.601704,239.785622 200.693697,246.864327 190.780239,246.864327 L190.780239,246.864327 C180.870869,246.864327 170.962862,239.785622 170.962862,219.964157 L170.962862,219.964157 L170.962862,62.1011244 C170.962862,42.2796593 180.870869,35.200954 190.780239,35.200954 L190.780239,35.200954 C200.693697,35.200954 210.601704,42.2796593 210.601704,62.1011244 L210.601704,62.1011244 L210.601704,99.9736968 C230.541738,99.9736968 246.706644,83.8101533 246.706644,63.8701193 L246.706644,63.8701193 L246.706644,55.0224191 C246.706644,14.3164566 220.516525,0.869097104 192.197615,0.869097104 L192.197615,0.869097104 C160.342078,0.869097104 134.857922,17.5028279 134.857922,57.5014651"/>
    <path d="M1.42108547e-14,0.749165247 L1.42108547e-14,187.68477 L1.42108547e-14,224.586985 C1.42108547e-14,263.881022 21.9502555,281.223441 49.2061329,281.223441 L49.2061329,281.223441 L61.432368,281.223441 L64.4265758,281.223441 C91.6824532,281.223441 113.620443,263.881022 113.620443,224.586985 L113.620443,224.586985 L113.620443,181.034003 C113.620443,160.858194 106.191482,145.637751 84.2548552,137.498739 L84.2548552,137.498739 C103.358092,130.054787 110.087905,114.834344 110.087905,96.4316184 L110.087905,96.4316184 L110.087905,57.3828961 C110.087905,18.0915843 88.1362862,0.749165247 60.8804089,0.749165247 L60.8804089,0.749165247 L1.42108547e-14,0.749165247 Z M36.109029,35.0837479 L54.1642249,35.0837479 C67.6115843,35.0837479 73.9788756,42.1501874 73.9788756,61.9784668 L73.9788756,61.9784668 L73.9788756,93.9593867 C73.9788756,113.774037 67.6115843,120.854106 54.1642249,120.854106 L54.1642249,120.854106 L36.109029,120.854106 L36.109029,35.0837479 Z M36.109029,219.980511 L36.109029,187.68477 L36.109029,155.188688 L54.1642249,155.188688 C67.6115843,155.188688 77.5250426,162.268756 77.5250426,182.097036 L77.5250426,182.097036 L77.5250426,219.980511 C77.5250426,239.807428 71.1577513,246.886133 57.6967632,246.886133 L57.6967632,246.886133 L55.9373083,246.886133 C42.4763203,246.886133 36.109029,239.807428 36.109029,219.980511 L36.109029,219.980511 Z"/>
    <path fill="#FFF" d="M1.42108547e-14,0.749165247 L1.42108547e-14,187.68477 L1.42108547e-14,224.586985 C1.42108547e-14,263.881022 21.9502555,281.223441 49.2061329,281.223441 L49.2061329,281.223441 L61.432368,281.223441 L64.4265758,281.223441 C91.6824532,281.223441 113.620443,263.881022 113.620443,224.586985 L113.620443,224.586985 L113.620443,181.034003 C113.620443,160.858194 106.191482,145.637751 84.2548552,137.498739 L84.2548552,137.498739 C103.358092,130.054787 110.087905,114.834344 110.087905,96.4316184 L110.087905,96.4316184 L110.087905,57.3828961 C110.087905,18.0915843 88.1362862,0.749165247 60.8804089,0.749165247 L60.8804089,0.749165247 L1.42108547e-14,0.749165247 Z M36.109029,35.0837479 L54.1642249,35.0837479 C67.6115843,35.0837479 73.9788756,42.1501874 73.9788756,61.9784668 L73.9788756,61.9784668 L73.9788756,93.9593867 C73.9788756,113.774037 67.6115843,120.854106 54.1642249,120.854106 L54.1642249,120.854106 L36.109029,120.854106 L36.109029,35.0837479 Z M36.109029,219.980511 L36.109029,187.68477 L36.109029,155.188688 L54.1642249,155.188688 C67.6115843,155.188688 77.5250426,162.268756 77.5250426,182.097036 L77.5250426,182.097036 L77.5250426,219.980511 C77.5250426,239.807428 71.1577513,246.886133 57.6967632,246.886133 L57.6967632,246.886133 L55.9373083,246.886133 C42.4763203,246.886133 36.109029,239.807428 36.109029,219.980511 L36.109029,219.980511 Z"/>
    <path d="M268.294378,57.5014651 L268.294378,224.565179 C268.294378,264.559727 294.135605,281.197547 326.344123,281.197547 L326.344123,281.197547 C357.846678,281.197547 383.682453,265.269779 383.682453,224.565179 L383.682453,224.565179 L383.682453,170.872504 C383.682453,152.633322 368.898126,137.847632 350.658944,137.847632 L350.658944,137.847632 L323.513458,137.847632 L323.513458,148.114072 C323.513458,161.406065 334.288245,172.179489 347.580239,172.179489 L347.580239,172.179489 L347.580239,219.964157 C347.580239,239.785622 337.670869,246.864327 325.991141,246.864327 L325.991141,246.864327 C314.311414,246.864327 304.397956,239.785622 304.397956,219.964157 L304.397956,219.964157 L304.397956,62.1011244 C304.397956,42.2796593 314.311414,35.200954 325.991141,35.200954 L325.991141,35.200954 C337.670869,35.200954 347.580239,42.2796593 347.580239,62.1011244 L347.580239,62.1011244 L347.580239,99.6207155 C367.51891,99.6207155 383.682453,83.4571721 383.682453,63.517138 L383.682453,63.517138 L383.682453,57.5014651 C383.682453,17.8585349 359.970017,0.869097104 326.344123,0.869097104 L326.344123,0.869097104 C293.072572,0.869097104 268.294378,17.5028279 268.294378,57.5014651"/>
    <path fill="#FFF" d="M268.294378 57.5014651L268.294378 224.565179C268.294378 264.559727 294.135605 281.197547 326.344123 281.197547L326.344123 281.197547C357.846678 281.197547 383.682453 265.269779 383.682453 224.565179L383.682453 224.565179 383.682453 170.872504C383.682453 152.633322 368.898126 137.847632 350.658944 137.847632L350.658944 137.847632 323.513458 137.847632 323.513458 148.114072C323.513458 161.406065 334.288245 172.179489 347.580239 172.179489L347.580239 172.179489 347.580239 219.964157C347.580239 239.785622 337.670869 246.864327 325.991141 246.864327L325.991141 246.864327C314.311414 246.864327 304.397956 239.785622 304.397956 219.964157L304.397956 219.964157 304.397956 62.1011244C304.397956 42.2796593 314.311414 35.200954 325.991141 35.200954L325.991141 35.200954C337.670869 35.200954 347.580239 42.2796593 347.580239 62.1011244L347.580239 62.1011244 347.580239 99.6207155C367.51891 99.6207155 383.682453 83.4571721 383.682453 63.517138L383.682453 63.517138 383.682453 57.5014651C383.682453 17.8585349 359.970017.869097104 326.344123.869097104L326.344123.869097104C293.072572.869097104 268.294378 17.5028279 268.294378 57.5014651M470.208927 57.4214651L470.208927 47.8173765C470.208927 41.0017036 467.524089 39.2449744 462.771789 39.2449744L455.338739 39.2449744 455.338739 66.4054514 462.155775 66.4054514C467.419148 66.4054514 470.208927 64.8572402 470.208927 57.4214651L470.208927 57.4214651zM469.794617 24.3734242L469.794617 17.0412266C469.794617 9.70902896 467.419148 7.74650767 461.636525 7.74650767L455.338739 7.74650767 455.338739 33.3574106 462.463782 33.3574106C467.318296 33.3574106 469.794617 32.0149915 469.794617 24.3734242L469.794617 24.3734242zM461.947257.620102215C471.034821.620102215 477.12954 4.95809199 477.12954 14.4599659L477.12954 25.3028961C477.12954 31.6020443 475.063441 34.8034072 471.344191 36.2494037 475.269233 37.8003407 477.541124 40.5873935 477.541124 47.3008518L477.541124 59.7955707C477.541124 69.3996593 471.449131 73.4282794 462.358842 73.4282794L448.003816 73.4282794 448.003816.620102215 461.947257.620102215zM507.903237 50.7084157L501.188416 13.9424872 494.372743 50.7084157 507.903237 50.7084157zM508.832709 57.1111414L493.341056 57.1111414 490.240545 73.4286882 482.807496 73.4286882 497.263373.51693356 505.012606.51693356 519.261329 73.4286882 511.825554 73.4286882 508.832709 57.1111414z"/>
    <polygon fill="#FFF" points="525.662 73.429 525.662 .62 533.098 .62 533.098 66.302 550.035 66.302 550.035 73.429"/>
    <polygon fill="#FFF" points="565.525 7.747 565.525 73.429 558.088 73.429 558.088 7.747 547.553 7.747 547.553 .621 576.266 .621 576.266 7.747"/>
    <polygon fill="#FFF" points="583.699 73.429 591.034 73.429 591.034 .621 583.699 .621"/>
    <path fill="#FFF" d="M624.905758 15.802385C624.905758 9.91482112 621.292811 7.12640545 616.747666 7.12640545 612.202521 7.12640545 608.690426 9.91482112 608.690426 15.802385L608.690426 58.2473595C608.690426 64.1335605 612.306099 66.9219761 616.747666 66.9219761 621.186508 66.9219761 624.905758 64.1335605 624.905758 58.2473595L624.905758 54.9424191 632.236593 54.9424191 632.236593 58.0402044C632.236593 67.4398637 625.833867 74.0483816 616.747666 74.0483816 607.660102 74.0483816 601.359591 67.4398637 601.359591 58.0402044L601.359591 16.1131175C601.359591 6.60988075 607.660102 4.97379915e-14 616.747666 4.97379915e-14 625.833867 4.97379915e-14 632.236593 6.60988075 632.236593 16.1131175L632.236593 18.4872232 624.905758 18.4872232 624.905758 15.802385zM470.622828 119.182147C470.622828 113.294583 467.009881 110.50753 462.464736 110.50753 457.919591 110.50753 454.407496 113.294583 454.407496 119.182147L454.407496 161.627121C454.407496 167.513322 458.023169 170.301738 462.464736 170.301738 466.903578 170.301738 470.622828 167.513322 470.622828 161.627121L470.622828 158.322181 477.953663 158.322181 477.953663 161.421329C477.953663 170.818262 471.550937 177.429506 462.464736 177.429506 453.377172 177.429506 447.076661 170.818262 447.076661 161.421329L447.076661 119.492879C447.076661 109.989642 453.377172 103.381124 462.464736 103.381124 471.550937 103.381124 477.953663 109.989642 477.953663 119.492879L477.953663 121.866985 470.622828 121.866985 470.622828 119.182147z"/>
    <polygon fill="#FFF" points="486.109 176.809 486.109 104.001 493.545 104.001 493.545 169.683 510.483 169.683 510.483 176.809"/>
    <path fill="#FFF" d="M538.883135 154.088859L532.168313 117.32293 525.352641 154.088859 538.883135 154.088859zM539.812606 160.491584L524.320954 160.491584 521.220443 176.809131 513.787394 176.809131 528.243271 103.897376 535.992504 103.897376 550.241227 176.809131 542.805451 176.809131 539.812606 160.491584zM582.872641 118.975264L575.642658 118.975264C575.642658 112.779693 571.927496 110.300647 567.897513 110.300647 563.664463 110.300647 560.359523 112.985486 560.359523 117.736422 560.359523 121.14494 561.806882 124.346303 564.38678 128.166405L577.192232 146.652266C581.737376 153.262147 583.285588 157.600136 583.285588 162.660443 583.285588 171.540852 577.192232 177.531993 568.104668 177.531993 559.017104 177.531993 552.509438 171.748007 552.509438 161.316661L559.844361 161.316661C559.844361 167.926542 563.664463 170.405588 568.209608 170.405588 572.750664 170.405588 575.954753 167.307802 575.954753 162.351073 575.954753 159.04477 575.22971 156.463509 571.6154 151.299625L558.912164 132.815128C555.197002 127.340511 553.12954 122.176627 553.12954 117.736422 553.12954 108.751073 559.637206 103.279182 568.002453 103.279182 576.369063 103.279182 582.872641 108.854651 582.872641 118.975264M617.777445 118.975264L610.547462 118.975264C610.547462 112.779693 606.8323 110.300647 602.80368 110.300647 598.569267 110.300647 595.264327 112.985486 595.264327 117.736422 595.264327 121.14494 596.711687 124.346303 599.291584 128.166405L612.097036 146.652266C616.642181 153.262147 618.191755 157.600136 618.191755 162.660443 618.191755 171.540852 612.097036 177.531993 603.009472 177.531993 593.921908 177.531993 587.415605 171.748007 587.415605 161.316661L594.749165 161.316661C594.749165 167.926542 598.569267 170.405588 603.114412 170.405588 607.656831 170.405588 610.859557 167.307802 610.859557 162.351073 610.859557 159.04477 610.134514 156.463509 606.520204 151.299625L593.816968 132.815128C590.101806 127.340511 588.035707 122.176627 588.035707 117.736422 588.035707 108.751073 594.54201 103.279182 602.907257 103.279182 611.273867 103.279182 617.777445 108.854651 617.777445 118.975264"/>
    <polygon fill="#FFF" points="625.83 176.809 633.165 176.809 633.165 104.001 625.83 104.001"/>
    <polygon fill="#FFF" points="651.753 111.127 651.753 136.428 664.248 136.428 664.248 142.935 651.753 142.935 651.753 176.809 644.418 176.809 644.418 104.001 669.308 104.001 669.308 111.127"/>
    <polygon fill="#FFF" points="677.261 176.809 684.594 176.809 684.594 104.001 677.261 104.001"/>
    <polygon fill="#FFF" points="703.182 111.127 703.182 136.428 716.71 136.428 716.71 142.935 703.182 142.935 703.182 169.681 721.668 169.681 721.668 176.809 695.847 176.809 695.847 104.001 721.668 104.001 721.668 111.127"/>
    <path fill="#FFF" d="M745.522998 111.127496L738.80954 111.127496 738.80954 169.78644 745.522998 169.78644C750.377513 169.78644 754.505622 167.101601 754.505622 159.664463L754.505622 121.040954C754.505622 113.812334 750.377513 111.127496 745.522998 111.127496M761.735605 121.040954L761.735605 159.664463C761.735605 170.923066 755.437819 176.809267 746.346167 176.809267L731.477342 176.809267 731.477342 104.00109 746.346167 104.00109C755.437819 104.104668 761.735605 109.990869 761.735605 121.040954M798.810358 118.975264L791.579012 118.975264C791.579012 112.779693 787.865213 110.300647 783.83523 110.300647 779.600818 110.300647 776.295877 112.985486 776.295877 117.736422 776.295877 121.14494 777.7446 124.346303 780.324497 128.166405L793.128586 146.652266C797.673731 153.262147 799.223305 157.600136 799.223305 162.660443 799.223305 171.540852 793.128586 177.531993 784.042385 177.531993 774.954821 177.531993 768.447155 171.748007 768.447155 161.316661L775.782078 161.316661C775.782078 167.926542 779.600818 170.405588 784.145963 170.405588 788.688382 170.405588 791.89247 167.307802 791.89247 162.351073 791.89247 159.04477 791.167428 156.463509 787.553118 151.299625L774.849881 132.815128C771.133356 127.340511 769.067257 122.176627 769.067257 117.736422 769.067257 108.751073 775.574923 103.279182 783.94017 103.279182 792.305417 103.279182 798.810358 108.854651 798.810358 118.975264M477.852402 264.902624C477.852402 274.30092 471.550528 280.807223 462.464327 280.807223 453.376763 280.807223 447.076252 274.30092 447.076252 264.902624L447.076252 222.870596C447.076252 213.368722 453.376763 206.758842 462.464327 206.758842 471.344736 206.758842 477.747462 213.266508 477.852402 222.664804L470.520204 222.664804C470.520204 216.775877 466.904532 213.990187 462.464327 213.990187 457.919182 213.990187 454.407087 216.775877 454.407087 222.561227L454.407087 265.108416C454.407087 271.407564 458.642862 273.784395 462.464327 273.784395 466.904532 273.784395 470.520204 270.997342 470.520204 265.108416L470.520204 253.128859 462.257172 253.128859 462.257172 246.622555 477.852402 246.622555 477.852402 264.902624zM495.199727 251.580102L501.087291 251.580102C506.354753 251.580102 510.072641 249.515366 510.072641 239.909915L510.072641 223.799523C510.072641 216.776695 506.042658 214.506167 501.087291 214.506167L495.199727 214.506167 495.199727 251.580102zM487.763952 207.378399L501.914549 207.378399C511.002112 207.378399 517.299898 212.956593 517.299898 223.799523L517.299898 241.458126C517.299898 250.444838 513.478433 254.781465 508.005179 256.743986L517.61063 280.186576 509.452538 280.186576C506.66276 273.061533 503.872981 265.729336 500.982351 258.60293L495.199727 258.60293 495.199727 280.186576 487.763952 280.186576 487.763952 207.378399zM549.932402 265.005111L549.932402 222.560136C549.932402 216.673935 546.319455 213.88552 541.77431 213.88552 537.229165 213.88552 533.718433 216.673935 533.718433 222.560136L533.718433 265.005111C533.718433 270.892675 537.334106 273.68109 541.77431 273.68109 546.214514 273.68109 549.932402 270.892675 549.932402 265.005111M526.386235 264.799319L526.386235 222.870869C526.386235 213.368995 532.688109 206.759114 541.77431 206.759114 550.861874 206.759114 557.2646 213.368995 557.2646 222.870869L557.2646 264.799319C557.2646 274.197615 550.861874 280.807496 541.77431 280.807496 532.688109 280.807496 526.386235 274.197615 526.386235 264.799319M597.748416 207.378944L597.748416 264.799046C597.748416 274.197342 591.34569 280.807223 582.360341 280.807223 573.272777 280.807223 566.870051 274.197342 566.870051 264.799046L566.870051 207.378944 574.202249 207.378944 574.202249 265.108416C574.202249 271.407564 578.53615 273.680818 582.360341 273.680818 586.699693 273.680818 590.413492 270.997342 590.413492 265.108416L590.413492 207.378944 597.748416 207.378944zM615.919455 252.820579L621.807019 252.820579C626.661533 252.820579 630.792368 250.341533 630.792368 243.628075L630.792368 223.696218C630.792368 216.880545 626.762385 214.50644 621.807019 214.50644L615.919455 214.50644 615.919455 252.820579zM608.48368 207.378671L622.634276 207.378671C631.72184 207.378671 638.019625 213.162658 638.019625 223.696218L638.019625 243.731652C638.019625 254.266576 631.72184 259.840681 622.634276 259.840681L615.919455 259.840681 615.919455 280.186848 608.48368 280.186848 608.48368 207.378671z"/>
  </g>
</svg>
