<svg xmlns="http://www.w3.org/2000/svg" width="1000" height="500" viewBox="0 0 1000 500">
  <g fill="#FFF" transform="translate(100 155)">
    <path d="M174.936673 27.7435336C172.548783 25.3646142 171.354839 22.6884331 171.354839 19.4174746 171.354839 16.146516 172.548783 13.1729461 174.936673 10.7940903 177.324562 8.41523439 180.309106 7.22580645 183.89094 7.22580645 187.472774 7.22580645 190.457954 8.41523439 192.845843 10.496765 194.935088 12.8756209 196.129032 15.551802 196.129032 18.8227606 196.129032 22.3910444 194.935088 25.067289 192.547198 27.4461449 190.159309 29.8250007 187.174765 31.0144287 183.592931 31.0144287 180.011097 31.0144287 177.324562 29.8250007 174.936673 27.7435336zM174.638027 50.6399262L193.144489 50.6399262 193.144489 151.741935 174.638027 151.741935 174.638027 50.6399262zM375.733145 51.1451358L340.619424 131.809877 305.208609 51.1451358 247.777206 51.1451358 247.777206 28.9032258 229.327473 28.9032258 229.327473 50.8484184 210.580645 50.8484184 210.580645 65.9734131 229.327473 65.9734131 229.327473 121.429829C229.327473 131.513159 232.005773 139.5201 237.659467 144.858482 243.313796 150.196232 251.05033 153.16214 261.465799 153.16214 265.631478 153.16214 269.797793 152.568706 273.665742 151.382469 277.534327 150.196232 280.807452 148.417193 283.485751 146.044719L277.832057 132.996113C273.963472 136.258107 269.202333 137.741061 263.548639 137.741061 258.489769 137.741061 254.621185 136.258107 251.942885 133.292198 249.26522 130.326922 247.777206 126.174777 247.777206 120.837027L247.777206 65.9734131 292.7103 65.9734131 330.80005 151.679186 327.526291 158.796607C325.145721 164.431075 322.468056 168.58322 319.492027 170.955694 316.516632 173.328167 312.648048 174.514404 308.184638 174.514404 301.340024 174.514404 295.3886 172.141931 290.032635 167.100266L282.295466 180.742306C285.271496 183.707582 289.139446 186.080056 293.900585 187.56301 298.661724 189.045964 303.423499 189.935484 308.184638 189.935484 316.218902 189.935484 323.360611 187.859727 329.014306 183.707582 334.668 179.556069 339.726869 172.141931 344.190279 162.058601L393.290323 51.1451358 375.733145 51.1451358z"/>
    <polygon points="611.097 119.119 585.901 119.119 585.901 151.742 567.523 151.742 567.523 119.119 493.419 119.119 493.419 105.773 561.595 18.581 582.048 18.581 516.837 102.807 568.116 102.807 568.116 73.743 585.901 73.743 585.901 102.807 611.097 102.807"/>
    <path d="M424.027985 135.574776L464.746208 96.429923C473.364885 88.4233087 479.012392 81.0094724 481.984196 74.7824572 484.956635 68.5548093 486.44222 61.7343836 486.44222 54.6166199 486.44222 43.0515033 482.281567 34.1550895 473.959626 27.6310527 465.637686 21.1069526 454.640678 17.5483871 440.671866 17.5483871 430.268965 17.5483871 420.758176 19.3276699 412.436236 22.8862354 408.86969 24.3690027 405.600515 26.1482854 402.62871 28.2241469L411.247387 43.0515033C418.67785 37.4171395 427.891268 34.451605 439.185646 34.451605 448.399065 34.451605 455.23542 36.5274665 460.287551 40.3826108 465.042945 44.2376918 467.718013 49.5757932 467.718013 56.6929242 467.718013 61.4376783 466.529164 66.1824323 464.151467 70.6304811 461.77377 75.3752351 457.315746 80.7133997 450.776762 87.2371202L396.387097 139.72612 396.387097 152.774194 492.387097 152.774194 492.387097 136.167554 424.027985 136.167554 424.027985 135.574776zM138.650708 75.9639658C138.650708 89.91583 133.00985 103.868327 122.915084 113.664587 112.820951 123.460213 98.8663843 129.100867 84.9124507 129.100867 70.9585171 129.100867 57.0039501 123.460213 46.9098173 113.664587 36.8151778 103.868327 30.8772663 90.2128398 31.1741302 75.9639658 31.1741302 62.0121016 36.8151778 48.0602374 46.9098173 38.2637882 57.0039501 28.4676556 70.9585171 22.8274446 84.9124507 22.8274446 97.678802 22.8274446 110.148733 27.2801861 119.649391 35.2952094L130.634686 22.8274446C117.867701 12.1407258 101.241549 5.90681171 84.6153968 6.20369492 66.2081879 6.20369492 47.8003457 13.6250152 34.7368771 26.3896632 21.3765446 39.1543111 13.6572597 57.5588535 13.6572597 75.9639658 13.6572597 90.8068595 18.7044528 105.64912 27.6113833 117.820192L0 157.895625 6.23483871 164.129032 47.5032917 135.334274C58.7856402 142.162335 71.8490454 146.02093 84.9124507 146.02093 103.320293 146.02093 121.727502 138.600116 134.790907 125.835025 148.151366 113.070567 155.870968 94.6654546 155.870968 76.2609756L138.650708 76.2609756 138.650708 75.9639658zM628.271969 150.097773C626.458399 148.312858 625.548387 146.230985 625.548387 143.851521 625.548387 141.472058 626.458399 139.390185 628.271969 137.60527 630.091993 135.82099 632.2089 135.225806 634.325808 135.225806 636.746052 135.225806 638.86296 136.117947 640.373192 137.60527 642.193216 139.390185 643.096774 141.174466 643.096774 143.851521 643.096774 146.230985 642.193216 148.312858 640.373192 150.097773 638.559622 151.882053 636.442715 152.774194 634.325808 152.774194 632.2089 152.774194 630.091993 151.882053 628.271969 150.097773z"/>
    <polygon points="662.71 0 673.032 0 673.032 151.742 662.71 151.742"/>
    <polygon points="800 44.387 751.396 151.742 740.956 151.742 692.645 44.387 703.683 44.387 746.625 140.41 789.866 44.387"/>
  </g>
</svg>
