<svg width="217" height="80" viewBox="0 0 217 80" fill="none" xmlns="http://www.w3.org/2000/svg">
<path d="M144.411 51.7355H141.483V55.5237H144.635V51.7355H144.411Z" fill="white"/>
<path d="M160.191 29.4176C166.355 29.4176 169.713 34.6931 169.9 39.9779H150.425C150.93 34.6931 154.401 29.4176 160.181 29.4176H160.191ZM152.053 30.4932C149.434 33.1497 147.947 37.284 147.947 41.8767C147.947 41.9796 147.947 42.0732 147.947 42.1761C147.947 42.2789 147.947 42.3631 147.947 42.4567C147.947 46.6939 149.284 50.3699 151.688 52.8487C153.938 55.0644 156.997 56.264 160.153 56.1693C166.804 56.1693 171.06 52.6055 172.135 46.1327V45.8614H169.666V46.0485C169.022 50.7551 164.889 54.1898 160.144 53.9618C157.692 54.0383 155.319 53.0891 153.596 51.3427C151.408 48.8297 150.272 45.5702 150.425 42.2415V42.1854H172.388V41.9703C172.388 41.6148 172.388 41.2656 172.388 40.9227C172.388 36.6854 171.134 33.0562 168.805 30.6335C166.538 28.3312 163.4 27.0975 160.172 27.2381C157.123 27.1692 154.178 28.3523 152.025 30.5119" fill="white"/>
<path d="M187.681 29.4176C193.845 29.4176 197.203 34.6931 197.39 39.9779H177.925C178.44 34.6931 181.91 29.4176 187.681 29.4176ZM179.534 30.4932C176.915 33.1497 175.428 37.284 175.428 41.8767C175.428 41.9796 175.428 42.0732 175.428 42.1761C175.428 42.2789 175.428 42.3631 175.428 42.4567C175.428 46.6846 176.765 50.3699 179.169 52.8487C181.422 55.0658 184.484 56.2655 187.644 56.1693C194.285 56.1693 198.541 52.6055 199.626 46.1327V45.8614H197.194V46.0485C196.259 51.006 192.695 53.9618 187.681 53.9618C185.229 54.0383 182.856 53.0891 181.134 51.3427C178.914 48.843 177.748 45.5817 177.878 42.2415C177.878 42.2415 177.878 42.2415 177.878 42.1854H199.841V41.9703C199.841 41.6148 199.841 41.2687 199.841 40.9227C199.841 36.6948 198.588 33.0562 196.259 30.6335C193.991 28.3312 190.854 27.0975 187.625 27.2381C184.576 27.1692 181.632 28.3523 179.478 30.5119" fill="white"/>
<path d="M59.6284 18.5485H57.1497V20.2151H59.6284V18.5485Z" fill="white"/>
<path d="M49.0867 18.5485H46.6079V20.2151H49.0867V18.5485Z" fill="white"/>
<path d="M46.6079 27.7432V55.5518H49.0867V27.7432H48.8622H46.6079Z" fill="white"/>
<path d="M57.1497 27.7432H52.0986V29.9601H57.1497V48.8266C57.1497 48.9856 57.1497 49.1539 57.1497 49.3036C57.0074 51.036 57.59 52.7498 58.7585 54.0366C60.4141 55.6454 63.1454 55.6828 65.3061 55.5519H65.5213V53.3257H65.3061C63.0425 53.3912 61.5646 53.2602 60.6292 52.3903C59.9277 51.7075 59.6003 50.5757 59.6003 48.8266V29.9601H65.2126L75.8197 55.2152C74.6599 58.5544 73.7245 60.9022 72.9294 61.6786C72.1252 62.5258 71.0562 63.0735 69.8988 63.2313H74.9311C75.911 61.6974 76.7321 60.0677 77.3818 58.3674L89.2143 27.7806H86.4082L77.2134 52.2968L67.1769 27.7432H59.6284V18.6046H57.1497V27.7432Z" fill="white"/>
<path d="M39.3776 45.665C38.9198 50.4367 34.8729 54.0561 30.0799 53.9805C23.6259 53.9805 19.7908 49.3037 19.7908 41.3904C19.7908 35.3946 23.3265 29.3334 30.0799 29.3334C35.3087 29.3334 38.7696 32.0647 39.1063 36.461V36.6761H41.5944V36.4235C41.0425 30.5962 36.7492 27.1166 30.0893 27.1166C22.6063 27.1166 17.3027 32.9907 17.3027 41.3904C17.3027 48.546 20.6607 56.1974 30.0893 56.1974C36.3095 56.188 40.9864 52.0817 41.8563 45.7212L41.9218 45.4593H39.4056L39.3776 45.665Z" fill="white"/>
<path d="M130.446 55.5518H132.924V46.1981H139.098V43.9719H132.924V24.17H130.782L113.253 43.8129V46.1513H130.408V55.5051L130.446 55.5518ZM116.05 43.9719L130.446 27.6871V43.9719H116.05Z" fill="white"/>
<path d="M49.0867 18.6046H46.6079V23.0383H49.0867V18.6046Z" fill="white"/>
<path d="M112.515 53.0544H93.5732C93.9661 50.2483 96.8844 48.3775 100.261 46.2823L102.777 44.6828L103.32 44.318C108.296 41.0068 112.225 38.3971 112.225 33.0935C112.225 27.6309 108.221 24.0952 102.02 24.0952C95.4159 24.0952 91.7305 27.9022 91.3938 35.0952V35.3384H93.8819V35.17C93.8819 29.6607 97.0434 26.3682 102.3 26.3682C106.519 26.3682 109.699 29.2585 109.699 33.0935C109.699 37.7704 105.434 40.3333 100.916 43.0365L100.299 43.4107C95.4627 46.3104 90.4678 49.3036 90.4678 55.3554V55.5893H112.477V53.0544H112.515Z" fill="white"/>
</svg>
