<svg xmlns="http://www.w3.org/2000/svg" width="1000" height="500" viewBox="0 0 1000 500">
  <g fill="#FFF" transform="translate(100 165)">
    <path d="M161.149468 20.5699774C159.03695 18.5745124 157.844185 15.8030164 157.851483 12.9068165 157.831697 9.91966171 159.019925 7.04972305 161.149468 4.94116226 163.404118 2.71172996 166.495833 1.52313872 169.67349 1.66415263 172.713662 1.61111621 175.66381 2.69015364 177.943822 4.6890846 179.902247 6.76595434 180.990832 9.50616436 180.988116 12.3522456 181.066528 15.3356864 179.867982 18.2122242 177.690131 20.2674842 175.43212 22.4816942 172.332587 23.6366267 169.166108 23.4436628 166.222406 23.5394932 163.353606 22.5111285 161.149468 20.5699774zM161.149468 41.6436702L178.197513 41.6436702 178.197513 134.710744 160.895777 134.710744 161.149468 41.6436702zM347.271836 42.0374577L314.896335 116.612728 282.268295 42.0374577 229.33612 42.0374577 229.33612 21.4876033 212.31499 21.4876033 212.31499 41.6840204 195.041322 41.6840204 195.041322 55.6700392 212.31499 55.6700392 212.31499 107.01943C211.748211 114.992919 214.53015 122.841969 219.992176 128.680087 226.002057 134.059678 233.909527 136.821831 241.96307 136.354725 245.753049 136.433283 249.533186 135.939645 253.175802 134.890485 256.540407 133.895286 259.644418 132.171408 262.267206 129.841381L257.216426 117.774022C253.517423 120.782919 248.84996 122.344206 244.084398 122.166742 240.080698 122.422028 236.16653 120.90856 233.376744 118.026477 230.686334 114.812854 229.314637 110.699127 229.538151 106.514519L229.538151 56.0234765 270.803025 56.0234765 305.855439 134.890485 302.824971 141.454321C301.291622 145.737341 298.764487 149.595999 295.450832 152.713823 292.439118 154.961743 288.75227 156.119064 284.995717 155.995741 278.72983 156.027865 272.710893 153.555648 268.277634 149.128959L261.156034 161.75172C264.157601 164.696145 267.833421 166.862773 271.863688 168.0631 276.1061 169.446155 280.533763 170.178179 284.995717 170.234215 291.846992 170.435542 298.579668 168.416409 304.188681 164.478236 310.499589 159.049656 315.315912 152.096985 318.179342 144.281819L363.636364 41.7345114 347.271836 42.0374577z"/>
    <polygon points="563.636 104.492 540.487 104.492 540.487 134.711 523.564 134.711 523.564 104.492 455.372 104.492 455.372 92.153 518.091 11.57 536.922 11.57 476.914 89.433 524.117 89.433 524.117 62.64 540.487 62.64 540.487 89.433 563.636 89.433"/>
    <path d="M390.799778 119.205524L428.258903 83.110579C434.760974 77.4432448 440.14684 70.6141468 444.139959 62.9739293 446.90679 57.1736441 448.320276 50.8223506 448.274075 44.3978699 448.801991 34.6341889 444.507924 25.2312762 436.779215 19.2270578 427.913943 12.7482861 417.101571 9.48095116 406.126257 9.96419897 397.200597 9.84180665 388.345258 11.5554242 380.111575 14.9983614 376.926609 16.3387856 373.900022 18.0271203 371.087102 20.0325238L379.002422 33.7254456C386.440975 28.277178 395.494178 25.4766009 404.714607 25.771469 411.634603 25.3658008 418.489812 27.2987404 424.175203 31.258706 428.734974 34.9183886 431.280369 40.5249415 431.031786 46.3611933 430.997838 50.842232 429.873183 55.2478258 427.754742 59.1983075 424.415811 64.820125 420.252298 69.9107777 415.40281 74.3007947L365.289256 122.679096 365.289256 134.710744 453.719008 134.710744 453.719008 119.608257 390.799778 119.608257 390.799778 119.205524zM127.86851 64.1828826C127.839177 77.2170368 122.6127 89.7013521 113.347165 98.8695476 93.8577707 117.890792 62.7509018 117.890792 43.2615071 98.8695476 33.7446574 89.8567089 28.4101633 77.2889286 28.5384767 64.1828826 28.5240279 51.110376 33.7551889 38.5785476 43.0598217 29.3953842 52.5405656 20.2602439 65.1884989 15.147339 78.3547576 15.1274682 90.0511349 15.1022806 101.384197 19.188943 110.372307 26.6728843L120.456574 15.1274682C108.537743 5.22667451 93.4964638-.131954326 78.0018082.00246889811 60.8439226.0709728872 44.3732649 6.75252836 32.0175489 18.6566347 19.6422273 30.6607755 12.6263936 47.1446395 12.5549129 64.3845492 12.6827508 78.2800986 17.2006371 91.7795622 25.4627751 102.953297L0 139.707046 5.74803241 145.454545 43.6648778 119.036213C69.3773352 134.996018 102.658633 131.377012 124.339017 110.263714 136.704754 98.2529984 143.718789 81.7733612 143.801653 64.5357992L127.86851 64.5357992 127.86851 64.1828826zM580.128375 133.057168C578.563871 131.528339 577.67987 129.396069 577.686463 127.167116 577.661519 124.93432 578.548554 122.794734 580.128375 121.277064 583.142662 118.251998 587.928273 118.251998 590.94256 121.277064 592.560806 122.766289 593.455765 124.924987 593.384472 127.167116 593.391065 129.396069 592.507064 131.528339 590.94256 133.057168 589.541313 134.597865 587.602421 135.491276 585.560385 135.53719 583.505815 135.48228 581.554588 134.591433 580.128375 133.057168L580.128375 133.057168z"/>
    <path d="M580.093751 133.014523C578.553025 131.457416 577.68595 129.334635 577.68595 127.11972 577.68595 124.904805 578.553025 122.782024 580.093751 121.224917 581.532069 119.754395 583.498888 118.953786 585.532216 119.011148 587.62857 118.997141 589.642308 119.845898 591.119942 121.366282 592.597576 122.886665 593.414872 124.950847 593.387777 127.093978 593.397787 129.320357 592.525872 131.456065 590.970681 133.014523 589.553378 134.554595 587.599179 135.461063 585.532216 135.53719 583.528445 135.218589 581.647907 134.34629 580.093751 133.014523zM693.082701 87.6622586L608.526564 87.6622586C608.664684 94.8697908 610.624376 101.926025 614.224145 108.177454 617.757847 114.061265 622.829706 118.875833 628.896677 122.105662 635.355693 125.459303 642.539578 127.185597 649.821422 127.133896 655.89485 127.244723 661.918773 126.026089 667.468797 123.56385 672.808509 121.308943 677.478568 117.725142 681.032065 113.155405L686.578383 119.390416C682.301153 124.657386 676.796408 128.80048 670.544482 131.458178 663.910667 134.190311 656.796879 135.574965 649.619737 135.531047 640.531418 135.671594 631.569244 133.398167 623.652886 128.94406 616.152295 124.773371 609.956743 118.612271 605.753405 111.144112 601.279835 103.236255 599.0162 94.2760861 599.198666 85.1984239 598.915147 76.0957451 601.036517 67.0787168 605.350037 59.0516067 609.172653 51.6695845 615.010879 45.5162206 622.190675 41.3019403 629.477069 36.8818754 637.865014 34.5989641 646.392789 34.7149537 654.779919 34.6383966 663.03381 36.8090668 670.292377 41.0002463 677.509282 45.3025107 683.350118 51.563261 687.133015 59.0516067 691.333817 66.9621255 693.483153 75.7950984 693.385227 84.7458829L693.082701 87.6622586zM627.888256 48.2911857C622.308421 51.3390586 617.696943 55.8855899 614.577093 61.4148767 611.286721 67.2864121 609.34095 73.8117099 608.879512 80.5221662L684.158171 80.5221662C683.978931 73.8355051 681.993082 67.3210798 678.410169 61.6662884 675.146032 56.2484311 670.56876 51.7356248 665.099006 48.5425974 659.414688 45.2998438 652.93779 43.698132 646.392789 43.9166221 639.922956 43.4753648 633.470997 45.00064 627.888256 48.2911857L627.888256 48.2911857zM799.997788 87.6611383L715.28363 87.6611383C715.447327 94.8645819 717.404289 101.914287 720.978276 108.175372 724.523989 114.04785 729.589791 118.858922 735.643249 122.102928 742.098937 125.456411 749.279122 127.182624 756.557214 127.130926 762.627514 127.241747 768.648333 126.023171 774.195498 123.561047 779.546219 121.30581 784.230117 117.723024 787.802174 113.15309L793.19445 119.387808C788.937903 124.652418 783.452756 128.795725 777.219204 131.455005 770.586089 134.177988 763.4778 135.56222 756.305239 135.527683 747.175989 135.70315 738.164939 133.446855 730.200578 128.991285 722.714963 124.806113 716.526173 118.648852 712.310319 111.192171 707.879474 103.270715 705.63606 94.31756 705.809352 85.247699 705.530149 76.1237691 707.668284 67.0878052 712.007948 59.0518272 715.833146 51.6569561 721.688663 45.5009081 728.890306 41.3029927 736.147389 36.8668507 744.519752 34.5823531 753.029557 34.7163147 761.413295 34.6323389 769.664867 36.8034158 776.916833 41.0013128 784.130021 45.3033756 789.967848 51.5638324 793.748796 59.0518272 797.931116 66.9319799 800.078848 75.7279358 799.997788 84.6443392L799.997788 87.6611383zM734.484162 48.2919105C728.885663 51.3107174 724.269357 55.8641405 721.179856 61.4149864 717.846467 67.267327 715.898602 73.8027083 715.48521 80.5213805L790.674695 80.5213805C790.482916 73.8298729 788.480371 67.3147531 784.879259 61.6663864 781.603285 56.2593969 777.031406 51.7497957 771.574953 48.5433104 765.878865 45.2916209 759.386575 43.6896684 752.827977 43.9175519 746.410692 43.4913164 740.014696 45.0165377 734.484162 48.2919105L734.484162 48.2919105z"/>
  </g>
</svg>
