<svg width="217" height="80" viewBox="0 0 217 80" fill="none" xmlns="http://www.w3.org/2000/svg">
<path d="M155.076 50.6763H152.086V54.562H155.314V50.6763H155.076Z" fill="white"/>
<path d="M162.895 16.7905H160.619V54.562H163.124V16.7905H162.895Z" fill="white"/>
<path d="M190.505 26.3334H188.076L178.771 51.4667L168.81 26.3334H165.952L177.381 54.5619H180.238L190.886 26.3429H190.562L190.505 26.3334Z" fill="white"/>
<path d="M68.7428 16.8857H66.219V18.5524H68.7428V16.8857Z" fill="white"/>
<path d="M58.0096 16.8857H55.4858V18.5524H58.0096V16.8857Z" fill="white"/>
<path d="M55.4858 26.2477V54.562H58.0096V26.2477H57.7811H55.4858Z" fill="white"/>
<path d="M66.2193 26.2476H61.0764V28.5048H66.2193V47.7143C66.2193 47.8762 66.2193 48.0476 66.2193 48.2C66.0744 49.9639 66.6676 51.7088 67.8574 53.0191C69.5431 54.6572 72.324 54.6953 74.524 54.5619H74.7431V52.2952H74.524C72.2193 52.3619 70.7145 52.2286 69.7621 51.3429C69.0478 50.6476 68.7145 49.4953 68.7145 47.7143V28.5048H74.4288L85.2288 54.2191C84.0478 57.6191 83.0955 60.0095 82.2859 60.8C81.4671 61.6626 80.3787 62.2203 79.2002 62.381H84.324C85.3217 60.8192 86.1578 59.1598 86.8193 57.4286L98.8669 26.2857H96.0097L86.6478 51.2476L76.4288 26.2476H68.7431V16.9429H66.2193V26.2476Z" fill="white"/>
<path d="M48.1239 44.4952C47.6578 49.3536 43.5374 53.0388 38.6572 52.9619C32.0858 52.9619 28.181 48.2 28.181 40.1428C28.181 34.0381 31.781 27.8666 38.6572 27.8666C43.981 27.8666 47.5049 30.6476 47.8477 35.1238V35.3428H50.381V35.0857C49.8191 29.1524 45.4477 25.6095 38.6668 25.6095C31.0477 25.6095 25.6477 31.5904 25.6477 40.1428C25.6477 47.4285 29.0668 55.219 38.6668 55.219C45.0001 55.2095 49.762 51.0285 50.6477 44.5524L50.7144 44.2857H48.1525L48.1239 44.4952Z" fill="white"/>
<path d="M140.848 54.562H143.372V45.0382H149.657V42.7715H143.372V22.6096H141.191L123.343 42.6096V44.9906H140.81V54.5144L140.848 54.562ZM126.191 42.7715L140.848 26.1906V42.7715H126.191Z" fill="white"/>
<path d="M58.0096 16.9429H55.4858V21.4572H58.0096V16.9429Z" fill="white"/>
<path d="M122.591 52.019H103.305C103.705 49.1619 106.676 47.2571 110.115 45.1238L112.676 43.4952L113.229 43.1238C118.295 39.7524 122.295 37.0952 122.295 31.6952C122.295 26.1333 118.219 22.5333 111.905 22.5333C105.181 22.5333 101.429 26.4095 101.086 33.7333V33.9809H103.619V33.8095C103.619 28.2 106.838 24.8476 112.191 24.8476C116.486 24.8476 119.724 27.7905 119.724 31.6952C119.724 36.4571 115.381 39.0667 110.781 41.819L110.153 42.2C105.229 45.1524 100.143 48.2 100.143 54.3619V54.6H122.553V52.019H122.591Z" fill="white"/>
</svg>
