<svg xmlns="http://www.w3.org/2000/svg" width="1000" height="500" viewBox="0 0 1000 500">
  <g fill="#FFF" transform="translate(99.86 146)">
    <path d="M285.755744,68.4948837 C271.922612,19.3488372 203.143894,-4.35348837 132.140266,15.6725581 C61.1366385,35.6018605 14.7037485,91.6167442 28.5368803,140.762791 C42.3700121,189.908837 111.14873,213.514419 182.152358,193.585116 C253.155985,173.655814 299.49214,117.64093 285.755744,68.4948837 Z M152.454655,151.694884 C143.168077,159.144186 129.528416,162.917209 111.825877,162.917209 C94.1233374,162.917209 80.0967352,158.370233 70.2297461,149.566512 C60.2660218,140.666047 55.235792,128.379535 55.235792,112.997209 C55.235792,98.6790698 60.8464329,86.5860465 71.8742443,76.9116279 C82.8053204,67.3339535 96.9286578,62.4967442 113.954051,62.4967442 C128.367594,62.4967442 140.169287,64.7218605 148.875453,69.2688372 L151.003628,70.3330233 L139.395405,87.8437209 L137.557437,86.4893023 C133.107618,83.1032558 125.562273,81.3618605 115.308343,81.3618605 C105.634825,81.3618605 97.7025393,84.4576744 91.5114873,90.455814 C85.3204353,96.5506977 82.3216445,104.193488 82.3216445,113.577674 C82.3216445,122.96186 85.1269649,130.217674 90.834341,135.732093 C96.4449819,141.149767 104.183797,143.858605 113.76058,143.858605 C124.788392,143.858605 133.494559,140.956279 139.588875,135.054884 L141.330109,133.410233 L154.195889,150.340465 L152.454655,151.694884 Z M216.106409,162.530233 L201.40266,162.530233 L153.131802,64.0446512 L182.055623,64.0446512 L209.334946,123.929302 L238.065296,64.0446512 L266.505441,64.0446512 L216.106409,162.530233 Z"/>
    <path d="M23.9903265 158.08C1.25755744 117.157209 30.7617896 57.3693023 89.9637243 24.4762791 121.789601 6.77209302 165.320435-1.83813953 193.37364 2.51534884 169.770254-1.64465116 133.397823 1.93488372 106.118501 9.57767442 35.0181378 29.4102326-11.3180169 85.4251163 2.41837969 134.571163 9.86698912 161.07907 33.7605804 186.522791 64.8125756 195.326512 47.2067715 189.908837 32.3095526 173.075349 23.9903265 158.08zM312.648126 73.7190698C305.199516 47.307907 276.275695 20.7032558 245.2237 11.8027907 262.926239 17.3172093 282.756953 35.2148837 291.172914 50.2102326 313.905683 91.1330233 284.401451 150.92093 225.199516 183.813953 193.37364 201.51814 152.841596 210.32186 124.788392 205.968372 148.391778 210.128372 181.862152 206.355349 209.04474 198.712558 280.048368 178.88 326.384522 122.865116 312.648126 73.7190698z"/>
    <g transform="translate(337.606 38.698)">
      <path d="M14.6070133 107.386047L10.5441354 113.093953.290205562 113.093953.290205562 4.74046512 18.4764208.386976744 18.4764208 36.7627907C23.3131802 33.7637209 28.6336155 32.3125581 34.3409915 32.3125581 45.7557437 32.3125581 54.9455865 35.892093 61.91052 43.147907 68.8754534 50.3069767 72.3579202 59.5944186 72.3579202 70.8167442 72.3579202 83.8772093 68.8754534 94.2288372 61.8137848 101.774884 54.7521161 109.32093 45.2720677 113.190698 33.1801693 113.190698 26.0217654 113.093953 19.7339782 111.255814 14.6070133 107.386047zM18.4764208 52.3386047L18.4764208 92.9711628C21.185006 96.1637209 24.764208 97.7116279 29.3107618 97.7116279 38.1136638 97.7116279 44.3047158 95.5832558 47.980653 91.4232558 51.6565901 87.2632558 53.4945586 80.587907 53.4945586 71.3972093 53.4945586 55.627907 45.949214 47.6948837 30.7617896 47.6948837 25.3446191 47.6948837 21.2817412 49.2427907 18.4764208 52.3386047zM131.753325 103.903256C130.108827 106.612093 127.206771 108.837209 123.143894 110.578605 119.081016 112.32 114.727932 113.190698 110.278114 113.190698 101.862152 113.190698 95.2841596 111.062326 90.4474002 106.902326 85.6106409 102.742326 83.2889964 96.744186 83.2889964 89.0046512 83.2889964 80.0074419 86.6747279 72.9451163 93.4461911 67.8176744 100.217654 62.6902326 109.794438 60.1748837 122.273277 60.1748837 124.401451 60.1748837 126.916566 60.5618605 129.818622 61.2390698 129.818622 52.0483721 124.01451 47.5013953 112.406288 47.5013953 105.538089 47.5013953 99.8307134 48.6623256 95.1874244 50.8874419L91.2212817 36.7627907C97.5090689 33.7637209 104.957678 32.215814 113.56711 32.215814 125.465538 32.215814 134.171705 34.9246512 139.685611 40.3423256 145.199516 45.76 148.004837 56.0148837 148.004837 71.1069767L148.004837 87.7469767C148.004837 98.0986047 150.133011 104.677209 154.292624 107.289302 152.744861 109.901395 151.100363 111.546047 149.262394 112.126512 147.424426 112.706977 145.296252 112.997209 142.974607 112.997209 140.362757 112.997209 138.041112 112.029767 135.912938 110.094884 133.881499 108.256744 132.430472 106.225116 131.753325 103.903256zM130.012092 74.9767442C126.916566 74.2995349 124.594921 74.0093023 123.047158 74.0093023 108.730351 74.0093023 101.475212 78.7497674 101.475212 88.1339535 101.475212 95.0995349 105.538089 98.5823256 113.663845 98.5823256 124.594921 98.5823256 130.012092 93.1646512 130.012092 82.2325581L130.012092 74.9767442zM217.847642 111.642791L217.847642 66.56C217.847642 59.8846512 216.590085 55.0474419 214.07497 52.0483721 211.559855 48.9525581 207.400242 47.5013953 201.596131 47.5013953 198.887545 47.5013953 196.082225 48.2753488 193.083434 49.7265116 190.084643 51.2744186 187.666264 53.1125581 186.021765 55.3376744L186.021765 111.642791 167.83555 111.642791 167.83555 33.6669767 180.8948 33.6669767 184.280532 40.9227907C189.214027 35.1181395 196.565901 32.215814 206.142684 32.215814 215.429262 32.215814 222.684401 35.0213953 228.101572 40.535814 233.422007 46.0502326 236.130593 53.8865116 236.130593 63.7544186L236.130593 111.546047 217.847642 111.546047 217.847642 111.642791z"/>
      <polygon points="305.586 111.643 282.66 76.428 273.954 85.715 273.954 111.74 255.768 111.74 255.768 4.74 273.954 .387 273.954 63.658 299.976 33.764 321.838 33.764 295.526 63.271 327.255 111.643"/>
      <path d="M376.106409 103.903256C374.461911 106.612093 371.559855 108.837209 367.496977 110.578605 363.434099 112.32 359.081016 113.190698 354.631197 113.190698 346.215236 113.190698 339.637243 111.062326 334.800484 106.902326 329.963724 102.742326 327.64208 96.744186 327.64208 89.0046512 327.64208 80.0074419 331.027811 72.9451163 337.799274 67.8176744 344.570738 62.6902326 354.147521 60.1748837 366.62636 60.1748837 368.754534 60.1748837 371.269649 60.5618605 374.171705 61.2390698 374.171705 52.0483721 368.367594 47.5013953 356.759371 47.5013953 349.891173 47.5013953 344.183797 48.6623256 339.637243 50.8874419L335.6711 36.7627907C341.958888 33.7637209 349.407497 32.215814 358.016929 32.215814 369.915357 32.215814 378.621524 34.9246512 384.135429 40.3423256 389.649335 45.76 392.454655 56.0148837 392.454655 71.1069767L392.454655 87.7469767C392.454655 98.0986047 394.58283 104.677209 398.742443 107.289302 397.19468 109.901395 395.550181 111.546047 393.712213 112.126512 391.874244 112.706977 389.74607 112.997209 387.424426 112.997209 384.812576 112.997209 382.490931 112.029767 380.362757 110.094884 378.234583 108.256744 376.783555 106.225116 376.106409 103.903256zM374.26844 74.9767442C371.172914 74.2995349 368.85127 74.0093023 367.303507 74.0093023 352.986699 74.0093023 345.73156 78.7497674 345.73156 88.1339535 345.73156 95.0995349 349.794438 98.5823256 357.920193 98.5823256 368.85127 98.5823256 374.26844 93.1646512 374.26844 82.2325581L374.26844 74.9767442zM407.255139 106.708837L413.736397 92.1972093C419.153567 96.5506977 425.344619 98.6790698 432.116082 98.6790698 439.177751 98.6790698 442.756953 96.1637209 442.756953 91.1330233 442.756953 88.1339535 441.692866 85.7153488 439.564692 83.8772093 437.436518 81.9423256 433.276904 79.7172093 427.085852 77.2018605 413.639661 71.5906977 406.964933 63.8511628 406.964933 53.7897674 406.964933 47.0176744 409.576784 41.7934884 414.703748 38.0204651 419.830713 34.2474419 426.408706 32.4093023 434.437727 32.4093023 442.563482 32.4093023 450.108827 34.2474419 457.267231 37.8269767L452.043531 51.9516279C448.077388 48.5655814 442.563482 46.824186 435.405079 46.824186 429.020556 46.824186 425.828295 49.3395349 425.828295 54.3702326 425.828295 56.4018605 426.892382 58.1432558 428.923821 59.787907 431.051995 61.4325581 435.501814 63.5609302 442.273277 66.2697674 449.141475 68.9786047 454.07497 72.267907 457.073761 76.0409302 460.072551 79.9106977 461.620314 84.5544186 461.620314 89.972093 461.620314 97.227907 458.911729 102.935814 453.591294 106.99907 448.270859 111.15907 440.918984 113.190698 431.729141 113.190698 426.505441 113.190698 422.345828 112.803721 419.250302 111.933023 416.154776 111.062326 412.188634 109.32093 407.255139 106.708837z"/>
    </g>
  </g>
</svg>
