<svg width="244" height="90" viewBox="0 0 244 90" fill="none" xmlns="http://www.w3.org/2000/svg">
<path d="M93.8046 40.9875C97.3221 53.5087 85.5003 67.7793 67.399 72.8625C49.3053 77.9456 31.7778 71.9212 28.2621 59.4C24.7428 46.8787 36.5684 32.6043 54.6659 27.5212C72.7634 22.4381 90.2871 28.4681 93.8046 40.9875Z" fill="white" fill-opacity="0.9"/>
<path d="M27.1051 63.8025C21.3113 53.3794 28.8376 38.1413 43.9107 29.7563C52.0257 25.245 63.0994 23.0475 70.2601 24.1538C64.2507 23.1 54.9713 24.0075 48.0357 25.9556C29.9344 31.0388 18.1144 45.3131 21.6301 57.8306C23.5238 64.5769 29.6138 71.0588 37.5319 73.3106C33.0263 71.9119 29.2407 67.6406 27.1051 63.8025Z" fill="white" fill-opacity="0.9"/>
<path d="M100.652 42.3056C98.7599 35.5706 91.3931 28.7999 83.4806 26.5443C87.9843 27.9393 93.0431 32.4956 95.1768 36.3374C100.971 46.7606 93.4481 62.0024 78.3674 70.3799C70.2506 74.8949 59.9362 77.1431 52.7737 76.0387C58.7887 77.0962 67.3068 76.1381 74.2462 74.1824C92.3456 69.1012 104.167 54.8268 100.652 42.3056Z" fill="white" fill-opacity="0.9"/>
<path d="M49.5094 65.0344C45.0019 65.0344 41.4338 63.8888 38.9082 61.6332C36.3675 59.3588 35.0813 56.2238 35.0813 52.3238C35.0813 48.6732 36.5025 45.5813 39.3113 43.1288C42.0975 40.6969 45.7051 39.4669 50.0269 39.4669C53.7038 39.4669 56.7001 40.0463 58.9257 41.1882L59.4676 41.4657L56.5163 45.9338L56.0513 45.585C54.9094 44.7244 52.9969 44.2857 50.3719 44.2857C47.9138 44.2857 45.8776 45.0694 44.3176 46.6107C42.7369 48.1707 41.9682 50.0963 41.9682 52.5C41.9682 54.9038 42.6732 56.745 44.1282 58.1325C45.5682 59.5125 47.5294 60.2119 49.9613 60.2119C52.7663 60.2119 54.9807 59.4582 56.5426 57.9713L56.9813 57.5494L60.2701 61.8525L59.8538 62.1863C57.4894 64.0744 54.0113 65.0344 49.5094 65.0344Z" fill="#30302E" fill-opacity="0.9"/>
<path d="M72.3282 64.9539L60.032 39.8645H67.397L74.3364 55.1195L81.6639 39.8645H88.907L76.0707 64.9539H72.3282Z" fill="#30302E" fill-opacity="0.9"/>
<path d="M111.604 61.3198L110.565 62.7842H107.951V35.1617L112.585 34.048V43.3198C113.822 42.5661 115.17 42.1873 116.627 42.1873C119.531 42.1873 121.873 43.1023 123.655 44.938C125.434 46.7755 126.325 49.1267 126.325 51.9955C126.325 55.3198 125.426 57.9505 123.632 59.8798C121.841 61.8167 119.413 62.7842 116.348 62.7842C114.508 62.7842 112.928 62.2948 111.604 61.3198ZM112.586 47.2873V57.6505C113.267 58.453 114.188 58.8561 115.352 58.8561C117.587 58.8561 119.171 58.3255 120.105 57.2623C121.039 56.1973 121.504 54.5005 121.504 52.1605C121.504 48.1367 119.578 46.1173 115.721 46.1173C114.347 46.1192 113.305 46.5111 112.586 47.2873Z" fill="white" fill-opacity="0.9"/>
<path d="M141.45 60.4292C141.032 61.1211 140.301 61.6892 139.253 62.1242C138.209 62.563 137.119 62.7842 135.983 62.7842C133.845 62.7842 132.165 62.2498 130.941 61.1811C129.72 60.1161 129.105 58.5955 129.105 56.6286C129.105 54.3317 129.968 52.5336 131.693 51.2342C133.418 49.9386 135.869 49.2898 139.045 49.2898C139.587 49.2898 140.23 49.3817 140.972 49.5673C140.972 47.2311 139.495 46.063 136.542 46.063C134.796 46.063 133.341 46.3555 132.167 46.9348L131.166 43.3386C132.76 42.5698 134.657 42.1892 136.857 42.1892C139.885 42.1892 142.105 42.8773 143.513 44.2555C144.923 45.6317 145.624 48.2473 145.624 52.0892V56.3342C145.624 58.9817 146.157 60.6411 147.22 61.3217C146.837 61.9873 146.412 62.4017 145.943 62.5555C145.469 62.7092 144.934 62.7861 144.329 62.7861C143.663 62.7861 143.061 62.5405 142.53 62.0455C142 61.5505 141.638 61.0123 141.45 60.4292ZM141.006 53.0698C140.217 52.9123 139.624 52.8317 139.227 52.8317C135.57 52.8317 133.739 54.0298 133.739 56.428C133.739 58.2073 134.774 59.098 136.834 59.098C139.617 59.098 141.006 57.7067 141.006 54.9261V53.0698Z" fill="white" fill-opacity="0.9"/>
<path d="M163.402 62.4148V50.9379C163.402 49.2466 163.076 48.0091 162.429 47.231C161.781 46.451 160.721 46.0629 159.247 46.0629C158.571 46.0629 157.841 46.2541 157.069 46.6385C156.296 47.0191 155.694 47.4954 155.263 48.0673V62.4148H150.626V42.5585H153.962L154.817 44.411C156.077 42.9279 157.937 42.1873 160.397 42.1873C162.759 42.1873 164.621 42.8941 165.986 44.3116C167.353 45.7216 168.036 47.6998 168.036 50.2291V62.4129H163.402V62.4148Z" fill="white" fill-opacity="0.9"/>
<path d="M185.741 62.4148L179.901 53.4205L177.677 55.7755V62.4148H173.04V35.1617L177.677 34.048V50.1805L184.294 42.5605H189.878L183.165 50.0905L191.248 62.4167H185.741V62.4148Z" fill="white" fill-opacity="0.9"/>
<path d="M203.708 60.4292C203.288 61.1211 202.555 61.6892 201.512 62.1242C200.466 62.563 199.375 62.7842 198.238 62.7842C196.099 62.7842 194.419 62.2498 193.195 61.1811C191.974 60.1161 191.359 58.5955 191.359 56.6286C191.359 54.3317 192.223 52.5336 193.946 51.2342C195.671 49.9386 198.122 49.2898 201.296 49.2898C201.844 49.2898 202.485 49.3817 203.224 49.5673C203.224 47.2311 201.75 46.063 198.793 46.063C197.051 46.063 195.593 46.3555 194.419 46.9348L193.418 43.3386C195.013 42.5698 196.909 42.1892 199.11 42.1892C202.136 42.1892 204.358 42.8773 205.765 44.2555C207.175 45.6317 207.881 48.2473 207.881 52.0892V56.3342C207.881 58.9817 208.41 60.6411 209.475 61.3217C209.089 61.9873 208.663 62.4017 208.195 62.5555C207.726 62.7092 207.19 62.7861 206.58 62.7861C205.915 62.7861 205.315 62.5405 204.784 62.0455C204.253 61.5505 203.891 61.0123 203.708 60.4292ZM203.261 53.0698C202.47 52.9123 201.876 52.8317 201.48 52.8317C197.824 52.8317 195.994 54.0298 195.994 56.428C195.994 58.2073 197.027 59.098 199.09 59.098C201.87 59.098 203.261 57.7067 203.261 54.9261V53.0698Z" fill="white" fill-opacity="0.9"/>
<path d="M211.66 61.136L213.311 57.4441C214.693 58.5466 216.257 59.096 218.003 59.096C219.805 59.096 220.708 58.451 220.708 57.1666C220.708 56.4129 220.435 55.7979 219.891 55.3141C219.347 54.8341 218.29 54.2623 216.72 53.6079C213.296 52.1866 211.586 50.1991 211.586 47.6379C211.586 45.9204 212.241 44.5835 213.551 43.6235C214.862 42.6673 216.536 42.1873 218.576 42.1873C220.641 42.1873 222.58 42.6485 224.396 43.5785L223.061 47.1748C222.047 46.3066 220.639 45.8754 218.837 45.8754C217.213 45.8754 216.407 46.5166 216.407 47.8048C216.407 48.311 216.673 48.7648 217.204 49.1735C217.735 49.5823 218.873 50.1298 220.616 50.8141C222.356 51.5023 223.613 52.331 224.378 53.3079C225.143 54.2848 225.525 55.4641 225.525 56.8535C225.525 58.691 224.843 60.1423 223.478 61.196C222.111 62.2535 220.253 62.7823 217.907 62.7823C216.581 62.7823 215.524 62.6716 214.725 62.456C213.93 62.246 212.906 61.8035 211.66 61.136Z" fill="white" fill-opacity="0.9"/>
<path d="M110.74 60.7593L109.701 62.2237H107.085V34.5974L111.722 33.4874V42.7556C112.956 42.0018 114.304 41.6231 115.763 41.6231C118.665 41.6231 121.009 42.5418 122.788 44.3774C124.568 46.2131 125.458 48.5624 125.458 51.4312C125.458 54.7556 124.56 57.3862 122.77 59.3193C120.977 61.2524 118.549 62.2237 115.485 62.2237C113.644 62.2256 112.061 61.7343 110.74 60.7593ZM111.722 46.7231V57.0862C112.401 57.8924 113.321 58.2918 114.484 58.2918C116.721 58.2918 118.307 57.7612 119.241 56.6981C120.173 55.6368 120.64 53.9324 120.64 51.5999C120.64 47.5687 118.71 45.5531 114.855 45.5531C113.483 45.5549 112.438 45.9468 111.722 46.7231Z" fill="white" fill-opacity="0.9"/>
<path d="M140.586 59.8667C140.164 60.5586 139.433 61.1267 138.392 61.5655C137.344 62.0005 136.253 62.2255 135.117 62.2255C132.977 62.2255 131.299 61.6911 130.077 60.6186C128.854 59.5536 128.241 58.033 128.241 56.0661C128.241 53.7692 129.102 51.9711 130.825 50.6755C132.55 49.3761 135.002 48.7273 138.178 48.7273C138.72 48.7273 139.363 48.8192 140.106 49.0048C140.106 46.6686 138.628 45.5005 135.675 45.5005C133.93 45.5005 132.475 45.7892 131.301 46.3723L130.3 42.7761C131.893 42.0111 133.791 41.6267 135.99 41.6267C139.017 41.6267 141.238 42.3186 142.647 43.693C144.055 45.073 144.76 47.6811 144.76 51.5305V55.7717C144.76 58.4192 145.29 60.0823 146.353 60.763C145.973 61.4286 145.545 61.8392 145.077 61.993C144.602 62.1467 144.066 62.2273 143.462 62.2273C142.797 62.2273 142.195 61.978 141.664 61.4848C141.133 60.9917 140.772 60.448 140.586 59.8667ZM140.14 52.5092C139.35 52.348 138.756 52.2673 138.362 52.2673C134.704 52.2673 132.876 53.4655 132.876 55.8636C132.876 57.643 133.905 58.5336 135.968 58.5336C138.75 58.5336 140.14 57.1423 140.14 54.3655V52.5092Z" fill="white" fill-opacity="0.9"/>
<path d="M162.539 61.8505V50.3737C162.539 48.6862 162.212 47.4468 161.564 46.6668C160.913 45.8868 159.855 45.4987 158.384 45.4987C157.705 45.4987 156.977 45.6937 156.205 46.0743C155.432 46.4549 154.832 46.9349 154.399 47.503V61.8505H149.764V41.9943H153.1L153.953 43.8468C155.211 42.3637 157.071 41.623 159.533 41.623C161.895 41.623 163.759 42.3337 165.122 43.7437C166.489 45.1612 167.17 47.1355 167.17 49.6687V61.8487H162.539V61.8505Z" fill="white" fill-opacity="0.9"/>
<path d="M184.875 61.8506L179.036 52.8599L176.811 55.2149V61.8506H172.176V34.5974L176.811 33.4874V49.6162L183.43 41.9962H189.011L182.299 49.5224L190.382 61.8524H184.875V61.8506Z" fill="white" fill-opacity="0.9"/>
<path d="M202.839 59.8667C202.419 60.5586 201.688 61.1267 200.644 61.5655C199.599 62.0005 198.506 62.2255 197.37 62.2255C195.233 62.2255 193.551 61.6911 192.33 60.6186C191.108 59.5536 190.494 58.033 190.494 56.0661C190.494 53.7692 191.357 51.9711 193.082 50.6755C194.807 49.3761 197.258 48.7273 200.432 48.7273C200.978 48.7273 201.621 48.8192 202.361 49.0048C202.361 46.6686 200.882 45.5005 197.929 45.5005C196.185 45.5005 194.728 45.7892 193.553 46.3723L192.553 42.7761C194.151 42.0111 196.043 41.6267 198.246 41.6267C201.274 41.6267 203.492 42.3186 204.9 43.693C206.308 45.073 207.015 47.6811 207.015 51.5305V55.7717C207.015 58.4192 207.546 60.0823 208.611 60.763C208.226 61.4286 207.801 61.8392 207.33 61.993C206.859 62.1467 206.325 62.2273 205.718 62.2273C205.05 62.2273 204.448 61.978 203.918 61.4848C203.387 60.9917 203.025 60.448 202.839 59.8667ZM202.395 52.5092C201.604 52.348 201.009 52.2673 200.614 52.2673C196.956 52.2673 195.126 53.4655 195.126 55.8636C195.126 57.643 196.159 58.5336 198.223 58.5336C201.004 58.5336 202.395 57.1423 202.395 54.3655V52.5092Z" fill="white" fill-opacity="0.9"/>
<path d="M210.793 60.5736L212.441 56.8855C213.827 57.9843 215.391 58.5336 217.135 58.5336C218.94 58.5336 219.84 57.8924 219.84 56.6043C219.84 55.8543 219.568 55.2355 219.025 54.7518C218.483 54.268 217.423 53.7036 215.854 53.0455C212.432 51.6243 210.72 49.6368 210.72 47.0793C210.72 45.3618 211.376 44.0211 212.685 43.0611C213.994 42.1049 215.67 41.6249 217.71 41.6249C219.775 41.6249 221.715 42.0861 223.53 43.0124L222.195 46.6124C221.183 45.748 219.773 45.3168 217.971 45.3168C216.349 45.3168 215.539 45.958 215.539 47.2424C215.539 47.7505 215.807 48.2061 216.336 48.6149C216.866 49.0218 218.005 49.5711 219.748 50.2518C221.49 50.9399 222.746 51.7724 223.51 52.7455C224.276 53.7224 224.661 54.9018 224.661 56.2874C224.661 58.1286 223.976 59.5799 222.611 60.6374C221.245 61.6911 219.386 62.2236 217.039 62.2236C215.717 62.2236 214.656 62.113 213.861 61.8974C213.068 61.6799 212.042 61.2393 210.793 60.5736Z" fill="white" fill-opacity="0.9"/>
</svg>
