<svg xmlns="http://www.w3.org/2000/svg" width="1000" height="500" viewBox="0 0 1000 500">
  <g fill="#FFF" transform="translate(100 178)">
    <path d="M.300859599 16.8685714C.300859599 6.89142857 4.81375358 1.95428571 13.8395415 1.95428571 22.8653295 1.95428571 27.3782235 6.89142857 27.3782235 16.8685714L27.3782235 59.5542857 77.2206304 6.17142857C79.8280802 3.39428571 82.9369628 2.05714286 86.6475645 2.05714286 90.2578797 2.05714286 93.1661891 3.18857143 95.5730659 5.55428571 97.9799427 7.92 99.1833811 10.6971429 99.1833811 13.9885714 99.1833811 17.1771429 98.1805158 19.7485714 96.2750716 21.7028571L60.3724928 58.8342857 101.189112 116.228571C104.598854 121.062857 106.303725 125.074286 106.303725 128.468571 106.303725 132.274286 105.100287 135.36 102.793696 137.828571 100.487106 140.297143 97.3782235 141.531429 93.5673352 141.531429 88.4527221 141.531429 84.1404011 139.062857 80.730659 134.022857L41.5186246 77.5542857 27.3782235 91.9542857 27.3782235 126.617143C27.3782235 136.594286 22.8653295 141.531429 13.8395415 141.531429 4.81375358 141.531429.300859599 136.594286.300859599 126.617143.300859599 126.617143.300859599 16.8685714.300859599 16.8685714zM151.532951 130.937143C149.426934 137.725714 145.014327 141.12 138.295129 141.12 134.383954 141.12 131.174785 139.988571 128.868195 137.725714 126.461318 135.462857 125.25788 132.48 125.25788 128.88 125.25788 126.617143 125.659026 124.251429 126.561605 121.68L163.166189 16.2514286C165.17192 10.4914286 167.378223 6.68571429 169.885387 4.73142857 172.39255 2.88 176.805158 1.95428571 183.223496 1.95428571 189.641834 1.95428571 194.054441 2.98285714 196.661891 4.93714286 198.868195 6.68571429 200.974212 10.3885714 202.879656 15.84L240.186246 121.68C241.088825 124.045714 241.489971 126.411429 241.489971 128.88 241.489971 132.48 240.286533 135.462857 237.77937 137.725714 235.372493 139.988571 232.163324 141.12 228.252149 141.12 221.733524 141.12 217.421203 137.725714 215.2149 130.937143L208.997135 111.6 157.750716 111.6 151.532951 130.937143zM183.223496 31.0628571L164.87106 88.8685714 201.676218 88.8685714 183.223496 31.0628571zM261.045845 16.8685714C261.045845 6.89142857 265.558739 1.95428571 274.584527 1.95428571 283.610315 1.95428571 288.123209 6.89142857 288.123209 16.8685714L288.123209 126.205714C288.123209 136.182857 283.610315 141.12 274.584527 141.12 265.558739 141.12 261.045845 136.182857 261.045845 126.205714L261.045845 16.8685714zM343.381089 124.56C343.381089 135.668571 338.868195 141.12 329.942693 141.12 321.017192 141.12 316.504298 135.565714 316.504298 124.56L316.504298 23.2457143C316.504298 15.3257143 317.60745 9.77142857 319.91404 6.68571429 322.22063 3.49714286 326.532951 1.95428571 333.051576 1.95428571 338.166189 1.95428571 342.47851 3.70285714 345.687679 7.2 347.492837 9.25714286 350.902579 14.4 355.816619 22.8342857L398.638968 96.9942857 398.638968 18.5142857C398.638968 7.40571429 403.151862 1.95428571 412.077364 1.95428571 421.002865 1.95428571 425.515759 7.50857143 425.515759 18.5142857L425.515759 120.137143C425.515759 127.851429 424.512894 133.2 422.406877 136.388571 420.30086 139.474286 416.489971 141.12 410.873926 141.12 405.358166 141.12 401.146132 139.885714 398.137536 137.52 395.830946 135.668571 392.922636 131.76 389.512894 125.794286L343.381089 46.2857143 343.381089 124.56 343.381089 124.56zM511.661891.308571429C531.418338.308571429 547.163324 6.78857143 558.796562 19.6457143 570.530086 32.5028571 576.346705 49.8857143 576.346705 71.7942857 576.346705 93.7028571 570.530086 111.085714 558.796562 123.942857 547.063037 136.8 531.418338 143.28 511.661891 143.28 491.905444 143.28 476.260745 136.902857 464.527221 124.045714 452.893983 111.188571 447.077364 93.8057143 447.077364 71.7942857 447.077364 49.7828571 452.893983 32.4 464.527221 19.5428571 476.260745 6.68571429 491.905444.308571429 511.661891.308571429zM511.661891 24.5828571C500.12894 24.5828571 491.103152 28.6971429 484.584527 36.9257143 478.065903 45.1542857 474.856734 56.7771429 474.856734 71.6914286 474.856734 86.6057143 478.065903 98.2285714 484.584527 106.457143 491.103152 114.685714 500.12894 118.8 511.661891 118.8 523.295129 118.8 532.421203 114.685714 539.040115 106.457143 545.558739 98.2285714 548.868195 86.6057143 548.868195 71.6914286 548.868195 56.7771429 545.558739 45.1542857 539.040115 36.9257143 532.421203 28.6971429 523.295129 24.5828571 511.661891 24.5828571zM692.378223 31.3714286C692.378223 34.9714286 691.275072 37.9542857 689.068768 40.2171429 686.862464 42.48 683.954155 43.6114286 680.243553 43.6114286 676.532951 43.6114286 673.424069 42.3771429 670.816619 40.0114286 668.510029 37.1314286 666.203438 34.1485714 663.796562 31.2685714 659.283668 25.6114286 652.063037 22.7314286 642.335244 22.7314286 627.492837 22.7314286 620.071633 28.1828571 620.071633 39.1885714 620.071633 44.7428571 622.679083 48.6514286 627.994269 51.12 629.498567 51.84 637.22063 54 651.160458 57.4971429 659.584527 59.6571429 665.501433 61.3028571 668.810888 62.4342857 674.727794 64.1828571 679.441261 66.1371429 683.151862 68.2971429 693.882521 74.4685714 699.297994 84.8571429 699.297994 99.4628571 699.297994 112.834286 694.684814 123.428571 685.458453 131.348571 676.232092 139.268571 663.495702 143.28 647.249284 143.28 631.203438 143.28 617.765043 139.268571 606.833811 131.245714 598.108883 124.868571 593.696275 117.36 593.696275 108.822857 593.696275 104.708571 594.899713 101.314286 597.206304 98.8457143 599.512894 96.3771429 602.52149 95.04 606.031519 95.04 610.143266 95.04 613.452722 96.6857143 616.160458 99.9771429 618.467049 103.371429 620.873926 106.765714 623.180516 110.16 628.495702 116.742857 636.418338 119.931429 646.848138 119.931429 663.997135 119.931429 672.52149 114.068571 672.52149 102.342857 672.52149 96.6857143 669.713467 92.3657143 664.097421 89.4857143 660.386819 87.7371429 651.561605 85.1657143 637.421203 81.9771429 621.475645 78.1714286 610.444126 73.7485714 604.326648 68.6057143 597.206304 62.5371429 593.696275 53.3828571 593.696275 41.04 593.696275 28.3885714 598.008596 18.4114286 606.733524 11.1085714 615.458453 3.90857143 627.793696.308571429 643.739255.308571429 658.080229.308571429 670.014327 3.80571429 679.641834 10.6971429 688.166189 16.8685714 692.378223 23.76 692.378223 31.3714286z"/>
    <path d="M.298102981 65.2758621C.298102981 63 1.09304426 61.0344828 2.68292683 59.4827586 4.27280939 57.8275862 6.16079494 57 8.34688347 57 10.532972 57 12.5203252 57.8275862 14.0108401 59.3793103 15.6007227 60.9310345 16.395664 62.8965517 16.395664 65.2758621 16.395664 67.5517241 15.6007227 69.5172414 14.0108401 71.1724138 12.4209575 72.8275862 10.532972 73.6551724 8.34688347 73.6551724 6.16079494 73.6551724 4.27280939 72.8275862 2.68292683 71.1724138 1.09304426 69.5172414.298102981 67.5517241.298102981 65.2758621zM28.3197832 7.96551724C28.3197832 2.68965517 30.6052394.103448276 35.0767841.103448276 39.5483288.103448276 41.833785 2.68965517 41.833785 7.96551724L41.833785 65.7931034C41.833785 71.0689655 39.5483288 73.6551724 35.0767841 73.6551724 30.5058717 73.6551724 28.3197832 71.0689655 28.3197832 65.7931034L28.3197832 7.96551724zM56.4408311 29.7931034L54.2547425 29.7931034C50.5781391 29.7931034 48.7895212 28.137931 48.7895212 24.8275862 48.7895212 21.5172414 50.5781391 19.862069 54.2547425 19.862069L56.4408311 19.862069 56.4408311 12.7241379C56.4408311 7.44827586 58.7262873 4.86206897 63.197832 4.86206897 67.7687444 4.86206897 70.0542005 7.44827586 70.0542005 12.7241379L70.0542005 19.862069 73.5320687 19.862069C77.2086721 19.862069 78.99729 21.5172414 78.99729 24.8275862 78.99729 28.137931 77.1093044 29.7931034 73.5320687 29.7931034L70.0542005 29.7931034 70.0542005 59.0689655C70.0542005 61.2413793 71.0478771 62.3793103 73.0352304 62.3793103 73.2339657 62.3793103 73.5320687 62.3793103 74.1282746 62.3793103 74.6251129 62.3793103 75.0225836 62.3793103 75.4200542 62.3793103 78.5998193 62.3793103 80.1897019 64.0344828 80.1897019 67.2413793 80.1897019 71.5862069 77.1093044 73.6551724 70.8491418 73.6551724 65.1851852 73.6551724 61.3098464 72.5172414 59.4218609 70.137931 57.5338753 67.9655172 56.6395664 64.137931 56.6395664 58.3448276L56.6395664 29.7931034 56.4408311 29.7931034 56.4408311 29.7931034z" transform="translate(719.512 69.517)"/>
  </g>
</svg>
