<svg width="244" height="90" viewBox="0 0 244 90" fill="none" xmlns="http://www.w3.org/2000/svg">
<path d="M26.4075 33.6731C26.4075 31.3256 27.5043 30.1481 29.7 30.1481C31.8881 30.1481 32.9887 31.3199 32.9887 33.6674V43.7437L45.0712 31.1287C45.6975 30.4762 46.4531 30.1481 47.3456 30.1481C48.2025 30.1481 48.9281 30.4218 49.5075 30.9712C50.0831 31.5206 50.3775 32.1824 50.3775 32.9549C50.3775 33.6974 50.1412 34.3068 49.6593 34.7812L40.9781 43.5637L50.8668 57.1143C51.6937 58.2487 52.1137 59.2087 52.1137 60.0149C52.1137 60.9093 51.8268 61.6387 51.2662 62.2199C50.7018 62.8031 49.9575 63.0918 49.035 63.0918C47.7862 63.0918 46.7475 62.4974 45.9187 61.3049L36.42 47.9793L32.9887 51.3768V59.5574C32.9887 61.9124 31.8881 63.0918 29.7 63.0918C27.5043 63.0918 26.4075 61.9162 26.4075 59.5649V33.6731Z" fill="white"/>
<path d="M63.0338 60.6262C62.535 62.2274 61.4644 63.0243 59.835 63.0243C58.8806 63.0243 58.1194 62.7562 57.5363 62.2181C56.9625 61.6874 56.6719 60.9881 56.6719 60.1274C56.6719 59.5931 56.7712 59.0287 56.9812 58.4362L65.8387 33.5324C66.3187 32.1693 66.8569 31.2618 67.47 30.8174C68.0756 30.3712 69.15 30.1481 70.6988 30.1481C72.2381 30.1481 73.32 30.3843 73.9444 30.8587C74.4788 31.2768 74.9869 32.1393 75.4594 33.4424L84.4969 58.4362C84.7069 59.0024 84.8138 59.5649 84.8138 60.1274C84.8138 60.9881 84.5175 61.6874 83.9213 62.2181C83.3325 62.7562 82.5544 63.0243 81.6056 63.0243C80.0363 63.0243 78.9844 62.2256 78.4425 60.6262L76.9275 56.0531H64.5094L63.0338 60.6262ZM70.7081 37.0181L66.2513 50.6718H75.1631L70.7081 37.0181Z" fill="white"/>
<path d="M89.5669 33.6674C89.5669 31.3218 90.6619 30.1499 92.8613 30.1499C95.0532 30.1499 96.1538 31.3218 96.1538 33.6674V59.5068C96.1538 61.8505 95.0532 63.0261 92.8613 63.0261C90.6619 63.0261 89.5669 61.8505 89.5669 59.5068V33.6674Z" fill="white"/>
<path d="M109.505 59.1056C109.505 61.7174 108.416 63.0243 106.243 63.0243C104.068 63.0243 102.98 61.7137 102.98 59.1056V35.1806C102.98 33.3093 103.26 32.0062 103.805 31.2618C104.359 30.5193 105.418 30.1481 106.995 30.1481C108.242 30.1481 109.267 30.5643 110.066 31.3949C110.51 31.8712 111.326 33.1031 112.513 35.0924L122.887 52.6087V34.0687C122.887 31.4549 123.977 30.1481 126.15 30.1481C128.325 30.1481 129.412 31.4531 129.412 34.0668V58.0799C129.412 59.8912 129.152 61.1643 128.655 61.9106C128.147 62.6512 127.209 63.0243 125.85 63.0243C124.507 63.0243 123.484 62.7431 122.773 62.1749C122.209 61.7324 121.505 60.8118 120.679 59.4131L109.505 40.6237V59.1056Z" fill="white"/>
<path d="M150.276 29.7599C155.055 29.7599 158.869 31.2805 161.704 34.3236C164.539 37.3668 165.962 41.4693 165.962 46.6349C165.962 51.7968 164.539 55.9068 161.704 58.9461C158.869 61.9893 155.055 63.5099 150.276 63.5099C145.493 63.5099 141.69 62.0005 138.87 58.9724C136.044 55.9443 134.638 51.8305 134.638 46.6349C134.638 41.4393 136.044 37.3311 138.87 34.2993C141.69 31.2711 145.494 29.7599 150.276 29.7599ZM150.272 35.4993C147.476 35.4993 145.29 36.4705 143.713 38.4168C142.136 40.363 141.347 43.1005 141.347 46.6349C141.347 50.1674 142.136 52.9105 143.713 54.8511C145.29 56.803 147.476 57.7705 150.272 57.7705C153.098 57.7705 155.304 56.803 156.894 54.8511C158.484 52.9105 159.278 50.1674 159.278 46.6349C159.278 43.1005 158.484 40.363 156.894 38.4168C155.303 36.4705 153.096 35.4993 150.272 35.4993Z" fill="white"/>
<path d="M194.053 37.1081C194.053 37.9706 193.789 38.6662 193.254 39.2006C192.726 39.7368 192.007 40.0012 191.121 40.0012C190.226 40.0012 189.471 39.7199 188.85 39.1499C188.28 38.4674 187.719 37.7774 187.157 37.0912C186.064 35.7487 184.322 35.0737 181.95 35.0737C178.359 35.0737 176.569 36.3674 176.569 38.9512C176.569 40.2618 177.204 41.1956 178.483 41.7618C178.837 41.9399 180.705 42.4443 184.093 43.2787C186.139 43.7831 187.567 44.1693 188.37 44.4356C189.795 44.8518 190.948 45.3112 191.839 45.8193C194.452 47.2743 195.761 49.7249 195.761 53.1749C195.761 56.3212 194.642 58.8337 192.403 60.7049C190.17 62.5762 187.087 63.5099 183.146 63.5099C179.272 63.5099 176.006 62.5631 173.351 60.6599C171.238 59.1468 170.179 57.3862 170.179 55.3687C170.179 54.3918 170.462 53.6081 171.03 53.0137C171.594 52.4212 172.318 52.1231 173.181 52.1231C174.167 52.1231 174.99 52.5074 175.641 53.2762C176.209 54.0824 176.775 54.8831 177.343 55.6818C178.626 57.2268 180.536 57.9956 183.079 57.9956C187.226 57.9956 189.306 56.6156 189.306 53.8537C189.306 52.5168 188.621 51.5062 187.254 50.8274C186.364 50.4112 184.207 49.8149 180.789 49.0462C176.925 48.1556 174.247 47.0981 172.761 45.8831C171.039 44.4562 170.177 42.2906 170.177 39.3768C170.177 36.3768 171.231 34.0256 173.342 32.3193C175.451 30.6112 178.436 29.7581 182.293 29.7581C185.771 29.7581 188.666 30.5737 190.98 32.2068C193.031 33.6637 194.053 35.2987 194.053 37.1081Z" fill="white"/>
<path d="M200.342 61.5487C200.342 61.0181 200.537 60.5644 200.92 60.1819C201.298 59.8012 201.76 59.61 202.286 59.61C202.838 59.61 203.299 59.8012 203.681 60.1669C204.066 60.5437 204.263 61.005 204.263 61.5469C204.263 62.0925 204.068 62.55 203.672 62.9344C203.278 63.315 202.821 63.5062 202.288 63.5062C201.761 63.5062 201.3 63.3112 200.921 62.9231C200.535 62.5387 200.342 62.0756 200.342 61.5487Z" fill="white"/>
<path d="M207.197 48.0768C207.197 46.8449 207.756 46.2262 208.858 46.2262C209.966 46.2262 210.521 46.8449 210.521 48.0768V61.6443C210.521 62.8781 209.966 63.4931 208.858 63.4931C207.756 63.4931 207.197 62.8781 207.197 61.6443V48.0768Z" fill="white"/>
<path d="M214.086 53.1992H213.55C212.663 53.1992 212.211 52.8111 212.211 52.0274C212.211 51.2474 212.663 50.8555 213.55 50.8555H214.086V49.1755C214.086 47.938 214.633 47.323 215.728 47.323C216.837 47.323 217.392 47.938 217.392 49.1755V50.8555H218.254C219.143 50.8555 219.587 51.2474 219.587 52.0274C219.587 52.8111 219.13 53.1992 218.239 53.1992H217.392V60.073C217.392 60.5886 217.637 60.8455 218.123 60.8455C218.172 60.8455 218.254 60.8455 218.38 60.8455C218.505 60.8455 218.607 60.8455 218.687 60.8455C219.467 60.8455 219.863 61.2224 219.863 61.9799C219.863 62.9942 219.098 63.493 217.575 63.493C216.184 63.493 215.248 63.2192 214.768 62.6755C214.317 62.173 214.088 61.2542 214.088 59.9099V53.1992H214.086Z" fill="white"/>
</svg>
