<svg width="163" height="60" viewBox="0 0 163 60" fill="none" xmlns="http://www.w3.org/2000/svg">
<path fill-rule="evenodd" clip-rule="evenodd" d="M121.25 0.550072C134.067 0.550072 142.4 3.16674 147.417 18.8334L159.8 59.4501H2.7002V0.550072H121.25Z" fill="white"/>
<path d="M159.8 60H2.70015C2.40015 60 2.15015 59.75 2.15015 59.45V0.549995C2.15015 0.249996 2.40015 0 2.70015 0H121.25C134.683 0 142.917 2.96667 147.95 18.6667L160.333 59.2833C160.383 59.45 160.35 59.6333 160.25 59.7667C160.133 59.9167 159.983 60 159.8 60ZM3.25015 58.9H159.067L146.9 19C142.083 3.95 134.167 1.09999 121.25 1.09999H3.25015V58.9Z" fill="#231F20"/>
<path fill-rule="evenodd" clip-rule="evenodd" d="M15.6334 6.23336L15.5167 6.11669L12.0667 6.58335V7.20002L12.6834 7.31669C12.9334 7.36669 13.0667 7.51668 13.0667 8.21668V17.3834C13.0667 18.1 12.9334 18.1667 11.9834 18.2167V18.8834H16.7501V18.2167C15.7667 18.1667 15.6334 18.1 15.6334 17.3834V14.5167H15.6834C16.2334 15.6667 16.9334 16.8334 17.7167 17.8667C18.3001 18.6834 18.9667 18.9 20.2334 18.9H21.7667V18.35C21.4001 18.2167 21.1834 18.0167 20.6834 17.4333C19.5334 16.1167 18.6001 14.7834 17.7001 13.3667L18.0667 12.9834C18.9667 12.1167 19.9834 11.3334 21.4334 11.0334V10.5H18.9501C18.5834 10.5 18.2501 10.6167 17.9501 11C17.6501 11.4167 17.3167 11.9167 16.9167 12.4834L15.6834 14.2334H15.6334V6.23336Z" fill="#231F20"/>
<path fill-rule="evenodd" clip-rule="evenodd" d="M28.8834 18.9H32.4168V18.2333C31.4334 18.1833 31.3001 18.1166 31.3001 17.4V10.3833L31.1834 10.2666L27.7334 10.7666V11.3833L28.3501 11.4666C28.6001 11.5166 28.7334 11.6666 28.7334 12.3666V15.9833C28.7334 16.2666 28.7001 16.6833 28.6001 16.9333C28.4668 17.35 28.0168 17.75 27.2668 17.75C26.3668 17.75 25.8501 17.2166 25.8501 15.8833V10.4L25.7334 10.2833L22.2834 10.7833V11.4L22.8668 11.4833C23.1501 11.5333 23.2834 11.6833 23.2834 12.3833V16.5666C23.2834 18.5666 24.5168 19.1333 25.7334 19.1333C27.1834 19.1333 28.0668 18.35 28.7501 17.9666L28.8834 18.9Z" fill="#231F20"/>
<path fill-rule="evenodd" clip-rule="evenodd" d="M36.7336 6.23331L36.6003 6.11664L33.167 6.58331V7.19998L33.7503 7.31664C34.0336 7.36664 34.167 7.51664 34.167 8.21664V17.3833C34.167 18.1 34.0336 18.1666 33.0503 18.2166V18.8833H37.8336V18.2166C36.8836 18.1666 36.7503 18.1 36.7503 17.3833V6.23331" fill="#231F20"/>
<path fill-rule="evenodd" clip-rule="evenodd" d="M47.0003 6.23326L46.8836 6.11659L43.4336 6.58325V7.19992L44.0503 7.31659C44.3003 7.36659 44.4336 7.51659 44.4336 8.21659V10.4666C44.067 10.3333 43.6003 10.2499 43.017 10.2499C41.7336 10.2499 40.617 10.6333 39.8336 11.3666C39.017 12.1166 38.5503 13.2833 38.5503 14.8166C38.5503 17.3333 39.8336 19.0833 41.9836 19.0833C42.6003 19.0833 43.517 18.7499 44.4336 18.0166V18.8832H48.117V18.2166C47.1336 18.1666 47.0003 18.0999 47.0003 17.3833V6.23326ZM44.4336 16.2666C44.4336 16.9666 44.217 17.7666 43.117 17.7666C42.0003 17.7666 41.2503 16.6833 41.2503 14.4833C41.2503 11.9499 42.2003 11.0499 43.1503 11.0499C43.7836 11.0499 44.1336 11.3499 44.3003 11.7166C44.4336 11.9666 44.4336 12.3499 44.4336 12.7166V16.2666Z" fill="#231F20"/>
<path fill-rule="evenodd" clip-rule="evenodd" d="M58.0001 12.9C58.0001 11.2834 57.1834 10.25 55.4334 10.25C54.4501 10.25 53.6501 10.7834 52.5334 11.45L52.3168 10.25L48.9668 10.75V11.3667L49.5501 11.45C49.8334 11.5 49.9668 11.65 49.9668 12.35V17.4C49.9668 18.1167 49.8334 18.1834 48.8501 18.2334V18.9H53.4168V18.2334L53.0834 18.2C52.7168 18.1667 52.5334 18.0834 52.5334 17.5V13.4333C52.5334 13.0667 52.5834 12.65 52.7001 12.4333C52.9168 11.9833 53.4001 11.6 54.1001 11.6C54.9668 11.6 55.4168 12.1334 55.4334 13.1667V17.5C55.4334 18.0834 55.2668 18.1667 54.9001 18.2L54.5334 18.2334V18.9H59.1001V18.2334C58.1168 18.1834 57.9834 18.1167 57.9834 17.4L58.0001 12.9Z" fill="#231F20"/>
<path fill-rule="evenodd" clip-rule="evenodd" d="M67.2835 16.25C66.7502 17.2333 66.0335 17.7833 65.0002 17.7833C63.3002 17.7833 62.7168 16.3666 62.7168 14.55H67.1002C67.7169 14.55 68.0169 14.3833 68.0169 13.8333C68.0169 12.4333 67.4835 10.2666 64.2335 10.2666C61.1668 10.2666 60.0168 12.2666 60.0168 14.7C60.0168 17.05 61.0168 19.1333 64.2002 19.0999C66.2002 19.0999 67.3168 18.1 67.8835 16.5833L67.2835 16.25ZM62.7168 13.7333C62.7168 12.4833 63.0502 11.05 64.1335 11.05C65.2002 11.05 65.3669 12.3333 65.3669 13.1333C65.3669 13.6 65.2335 13.7166 64.8335 13.7166L62.7168 13.7333Z" fill="#231F20"/>
<path fill-rule="evenodd" clip-rule="evenodd" d="M52.967 40.9999C52.967 47.3833 53.6337 51.4833 58.017 51.4833C62.4004 51.4833 63.067 47.3833 63.067 40.9999C63.067 34.9999 62.4004 30.5499 58.017 30.5499C53.6337 30.5499 52.967 34.9999 52.967 40.9999ZM50.9004 23.6666C53.8837 23.6666 55.367 24.7333 55.6337 27.0166C56.3837 26.9666 57.2004 26.9333 58.0004 26.9333C58.8337 26.9333 59.617 26.9666 60.367 27.0166C60.667 24.7333 62.1837 23.6666 65.1004 23.6666C68.467 23.6666 69.917 25.0333 69.917 27.9833C69.917 28.7999 69.7504 29.5166 69.4504 30.1333C72.0504 32.3833 73.217 35.8833 73.217 40.6499C73.217 48.8499 68.5837 54.0833 58.0004 54.0833C47.4837 54.0833 42.7837 48.8499 42.7837 40.6499C42.7837 35.8833 44.017 32.4333 46.567 30.1666C46.267 29.5499 46.1004 28.8333 46.1004 27.9999C46.1004 25.0166 47.5837 23.6666 50.9004 23.6666Z" fill="#231F20"/>
<path d="M58.0002 52.1667C52.7002 52.1667 52.2668 46.8834 52.2668 41.0001C52.2668 35.6167 52.7168 29.8668 58.0002 29.8668C63.2835 29.8668 63.7335 35.6167 63.7335 41.0001C63.7335 46.8834 63.3002 52.1667 58.0002 52.1667ZM58.0002 31.2334C54.3502 31.2334 53.6335 34.8167 53.6335 41.0001C53.6335 48.3167 54.7335 50.8001 58.0002 50.8001C61.2668 50.8001 62.3668 48.3334 62.3668 41.0001C62.3668 34.8167 61.6502 31.2334 58.0002 31.2334Z" fill="#231F20"/>
<path d="M58.0001 54.75C47.7501 54.75 42.1001 49.7333 42.1001 40.6333C42.1001 35.85 43.3001 32.3667 45.7501 29.9833C45.5334 29.3833 45.4168 28.7 45.4168 27.9833C45.4168 24.6167 47.2168 22.9833 50.9001 22.9833C53.9501 22.9833 55.6834 24.0667 56.2001 26.2833C57.3668 26.2167 58.6501 26.2167 59.8001 26.2833C60.3501 24.0667 62.0834 22.9833 65.1001 22.9833C68.8001 22.9833 70.6168 24.6167 70.6168 27.9833C70.6168 28.6833 70.5001 29.35 70.2834 29.95C72.7168 32.3 73.9168 35.8 73.9168 40.6333C73.9168 49.7333 68.2668 54.75 58.0001 54.75ZM50.9001 24.35C47.9834 24.35 46.7834 25.4 46.7834 27.9833C46.7834 28.6833 46.9168 29.3167 47.1834 29.85C47.3168 30.1333 47.2501 30.4667 47.0168 30.6667C44.6168 32.7833 43.4501 36.0333 43.4501 40.6333C43.4501 48.9667 48.4834 53.3833 57.9834 53.3833C67.5001 53.3833 72.5168 48.9667 72.5168 40.6333C72.5168 35.9833 71.3668 32.7167 68.9834 30.65C68.7501 30.45 68.6834 30.1 68.8168 29.8333C69.0834 29.3 69.2168 28.6833 69.2168 28C69.2168 25.3833 68.0501 24.3667 65.0834 24.3667C61.8334 24.3667 61.2001 25.75 61.0168 27.1167C60.9668 27.4833 60.6501 27.7333 60.2834 27.7167C59.5334 27.6667 58.7834 27.6333 57.9668 27.6333C57.1668 27.6333 56.3834 27.6667 55.6501 27.7167C55.2834 27.7333 54.9668 27.4833 54.9168 27.1167C54.7834 25.7333 54.1834 24.35 50.9001 24.35Z" fill="#231F20"/>
<path fill-rule="evenodd" clip-rule="evenodd" d="M52.967 40.9999C52.967 47.3833 53.6337 51.4833 58.017 51.4833C62.4004 51.4833 63.067 47.3833 63.067 40.9999C63.067 34.9999 62.4004 30.5499 58.017 30.5499C53.6337 30.5499 52.967 34.9999 52.967 40.9999ZM50.9004 23.6666C53.8837 23.6666 55.367 24.7333 55.6337 27.0166C56.3837 26.9666 57.2004 26.9333 58.0004 26.9333C58.8337 26.9333 59.617 26.9666 60.367 27.0166C60.667 24.7333 62.1837 23.6666 65.1004 23.6666C68.467 23.6666 69.917 25.0333 69.917 27.9833C69.917 28.7999 69.7504 29.5166 69.4504 30.1333C72.0504 32.3833 73.217 35.8833 73.217 40.6499C73.217 48.8499 68.5837 54.0833 58.0004 54.0833C47.4837 54.0833 42.7837 48.8499 42.7837 40.6499C42.7837 35.8833 44.017 32.4333 46.567 30.1666C46.267 29.5499 46.1004 28.8333 46.1004 27.9999C46.1004 25.0166 47.5837 23.6666 50.9004 23.6666Z" fill="#30302E"/>
<path d="M58 51.6167C53.6667 51.6167 52.8167 47.7167 52.8167 41C52.8167 35.6334 53.2167 30.4167 58 30.4167C62.7833 30.4167 63.1833 35.65 63.1833 41C63.1833 47.7167 62.35 51.6167 58 51.6167ZM58 30.6834C53.9167 30.6834 53.1 34.6334 53.1 41C53.1 47.7167 53.8833 51.35 58 51.35C62.1166 51.35 62.9 47.7167 62.9 41C62.9166 34.6334 62.1 30.6834 58 30.6834Z" fill="#231F20"/>
<path d="M58.0001 54.2C47.9501 54.2 42.6501 49.4999 42.6501 40.6333C42.6501 35.8333 43.8835 32.4 46.4168 30.1166C46.1168 29.4833 45.9668 28.7666 45.9668 27.9833C45.9668 24.95 47.5335 23.5333 50.9001 23.5333C53.8835 23.5333 55.4335 24.6 55.7501 26.8666C56.4668 26.8166 57.2168 26.7999 58.0001 26.7999C58.8001 26.7999 59.5335 26.8166 60.2501 26.8666C60.6001 24.5833 62.1502 23.5333 65.1002 23.5333C68.5335 23.5333 70.0668 24.9 70.0668 27.9833C70.0668 28.7666 69.9168 29.4666 69.6168 30.0999C72.1335 32.3333 73.3502 35.7833 73.3502 40.65C73.3668 46.8333 70.7001 54.2 58.0001 54.2ZM50.9001 23.7999C47.6835 23.7999 46.2501 25.0833 46.2501 27.9833C46.2501 28.7666 46.4001 29.4833 46.7168 30.0999C46.7501 30.1499 46.7335 30.2166 46.6835 30.2666C44.1668 32.4833 42.9335 35.8833 42.9335 40.65C42.9335 49.35 48.1501 53.95 58.0168 53.95C67.8835 53.95 73.1002 49.35 73.1002 40.65C73.1002 35.8333 71.8835 32.4166 69.3835 30.25C69.3335 30.2166 69.3168 30.1333 69.3502 30.0833C69.6502 29.4666 69.8168 28.7666 69.8168 28C69.8168 25.1 68.3668 23.8166 65.1335 23.8166C62.2835 23.8166 60.8335 24.8499 60.5335 27.0499C60.5168 27.1166 60.4668 27.1666 60.3835 27.1666C59.6335 27.1166 58.8502 27.0833 58.0168 27.0833C57.2002 27.0833 56.4001 27.1166 55.6501 27.1666C55.5835 27.1666 55.5168 27.1166 55.5001 27.0499C55.2335 24.7833 53.8168 23.7999 50.9001 23.7999Z" fill="#231F20"/>
<path fill-rule="evenodd" clip-rule="evenodd" d="M129.4 33.5499V25.6666C126.717 24.0999 123.15 23.7666 120.4 23.7666C113.267 23.7666 109.05 27.4666 109.05 33.0166C109.05 37.6166 112.25 40.0999 118.034 42.4332C122.6 44.2999 123.5 46.2999 123.55 48.1499C123.5 50.2166 122.15 51.6332 119.767 51.5999C116.034 51.5166 113.517 48.7833 110.9 43.0499H108.984L109.617 51.6832C112.184 53.3832 115.917 54.0833 119.434 54.0833C128.417 53.9999 131.534 49.6166 131.617 44.4166C131.534 38.4499 126.984 36.2499 122.717 34.5999C119.6 33.4333 117 32.0333 117 29.7166C117 27.6333 118.417 26.2333 120.484 26.2333C123.084 26.2333 125.417 27.9666 127.534 33.5333L129.4 33.5499Z" fill="#231F20"/>
<path d="M119.417 54.75C117.017 54.75 112.517 54.4167 109.233 52.25L108.967 52.0667L108.25 42.4H111.3L111.483 42.7833C114.1 48.5167 116.5 50.8833 119.767 50.95C119.783 50.95 119.8 50.95 119.833 50.95C121.733 50.95 122.833 49.9333 122.883 48.1333C122.833 46.65 122.2 44.85 117.767 43.05C112.133 40.7667 108.383 38.1833 108.383 33.0167C108.383 27 113.1 23.1 120.383 23.1C124.317 23.1 127.467 23.7667 129.717 25.0833L130.05 25.2667V34.2H127.067L126.9 33.7833C125.1 29.0333 123.1 26.9 120.467 26.9C118.75 26.9 117.633 28.0167 117.633 29.7333C117.633 31.3333 119.217 32.6 122.917 34C127.383 35.7167 132.15 38.0833 132.233 44.4167C132.2 48.25 130.45 54.65 119.417 54.75ZM110.233 51.3167C112.433 52.6667 115.75 53.4333 119.417 53.4333C126.867 53.3667 130.85 50.25 130.933 44.4C130.85 38.9 126.7 36.85 122.467 35.2167C119.433 34.0833 116.333 32.5333 116.333 29.7167C116.333 27.2833 118.033 25.5667 120.483 25.5667C123.617 25.5667 126.017 27.8833 127.983 32.8667H128.75V26.0167C126.717 24.9333 123.917 24.4 120.4 24.4C113.8 24.4 109.717 27.7 109.717 33C109.717 36.8833 112.033 39.2833 118.283 41.8167C122.3 43.4667 124.133 45.4 124.217 48.1167C124.15 50.6667 122.383 52.2833 119.767 52.25C115.983 52.1667 113.283 49.6833 110.483 43.7H109.667L110.233 51.3167Z" fill="#231F20"/>
<path fill-rule="evenodd" clip-rule="evenodd" d="M129.4 33.5499V25.6666C126.717 24.0999 123.15 23.7666 120.4 23.7666C113.267 23.7666 109.05 27.4666 109.05 33.0166C109.05 37.6166 112.25 40.0999 118.034 42.4332C122.6 44.2999 123.5 46.2999 123.55 48.1499C123.5 50.2166 122.15 51.6332 119.767 51.5999C116.034 51.5166 113.517 48.7833 110.9 43.0499H108.984L109.617 51.6832C112.184 53.3832 115.917 54.0833 119.434 54.0833C128.417 53.9999 131.534 49.6166 131.617 44.4166C131.534 38.4499 126.984 36.2499 122.717 34.5999C119.6 33.4333 117 32.0333 117 29.7166C117 27.6333 118.417 26.2333 120.484 26.2333C123.084 26.2333 125.417 27.9666 127.534 33.5333L129.4 33.5499Z" fill="#30302E"/>
<path d="M119.417 54.2167C117.083 54.2167 112.717 53.9 109.55 51.8L109.5 51.7667V51.7167L108.85 42.95H110.967L111 43.0167C113.717 48.9667 116.25 51.4333 119.767 51.5167C119.783 51.5167 119.817 51.5167 119.833 51.5167C122.017 51.5167 123.383 50.2333 123.45 48.1667C123.4 46.5833 122.733 44.5 118 42.55C112.567 40.35 108.95 37.8833 108.95 33.0333C108.95 27.25 113.333 23.6667 120.4 23.6667C124.233 23.6667 127.283 24.3167 129.467 25.5833L129.517 25.6167V33.6667H127.467L127.433 33.6C125.533 28.6 123.383 26.3667 120.483 26.3667C118.467 26.3667 117.117 27.7167 117.117 29.75C117.117 32.1 119.967 33.4833 122.767 34.5333C127.067 36.1833 131.65 38.45 131.733 44.45C131.6 50.6667 127.25 54.1333 119.417 54.2167ZM109.717 51.6333C112 53.1333 115.533 53.9833 119.417 53.9833C129.267 53.8833 131.417 48.7333 131.483 44.4167C131.4 38.5667 127.083 36.4167 122.667 34.7167C119.8 33.65 116.883 32.2167 116.883 29.7333C116.883 27.5833 118.333 26.1333 120.483 26.1333C123.433 26.1333 125.7 28.45 127.617 33.4333H129.3V25.7167C127.167 24.4833 124.167 23.8667 120.4 23.8667C113.467 23.8667 109.167 27.3667 109.167 33.0167C109.167 37.75 112.733 40.1667 118.067 42.3333C122.917 44.3167 123.6 46.4833 123.65 48.15C123.583 50.3667 122.117 51.7167 119.817 51.7167C119.8 51.7167 119.767 51.7167 119.75 51.7167C116.15 51.6333 113.567 49.15 110.817 43.1667H109.083L109.717 51.6333Z" fill="#231F20"/>
<path fill-rule="evenodd" clip-rule="evenodd" d="M88.0501 40.4167H89.4501C90.8501 40.4167 91.5334 41.3333 91.9334 42.85C92.1834 43.8333 92.5168 47.15 93.1001 49.0667C94.1668 52.3833 95.9168 53.4667 100.317 53.4667H105.783V51.6333C103.3 51.1667 103.05 49.1833 102.467 46.1667C101.8 42.8 101.05 40.1667 96.3334 38.95V38.8667C100.567 38.2833 103.55 35.7667 103.55 32.0167C103.55 25.6 98.1501 24.4333 92.7001 24.4333H75.8501V26.2667C78.3668 26.35 78.5834 26.65 78.5834 28.8333V49.05C78.5834 51.2167 78.3668 51.5333 75.8501 51.6167V53.45H90.7834V51.6167C88.2668 51.5333 88.0501 51.2333 88.0501 49.05V40.4167ZM88.0501 28.5167C88.0501 27.2333 88.3501 26.9 89.8834 26.9C92.0001 26.9 93.9834 28.4333 93.9834 32.3C93.9834 35.2833 92.9168 37.9333 89.5168 37.9333H88.0334L88.0501 28.5167Z" fill="#231F20"/>
<path d="M106.45 54.1167H100.334C95.6835 54.1167 93.6335 52.85 92.4835 49.25C92.1002 47.9834 91.8335 46.2167 91.6169 44.8C91.5002 44.0167 91.4002 43.3334 91.3002 43C90.8669 41.3 90.1502 41.0667 89.4502 41.0667H88.7169V49.05C88.7169 50.8834 88.7169 50.8834 90.8169 50.95L91.4502 50.9667V54.1H75.2002V50.9667L75.8335 50.95C77.9335 50.8834 77.9335 50.8834 77.9335 49.05V28.8167C77.9335 26.9834 77.9335 26.9834 75.8335 26.9167L75.2002 26.9V23.7667H92.7169C104.217 23.7667 104.217 29.9667 104.217 32C104.217 35.3334 102.1 37.9 98.5669 39.0334C101.75 40.5167 102.517 43.0167 103.117 46.0334L103.2 46.4834C103.75 49.3334 104.067 50.6167 105.9 50.9667L106.434 51.0667V54.1167H106.45ZM87.4002 39.75H89.4502C91.8169 39.75 92.3835 41.95 92.5669 42.6667C92.6669 43.0667 92.7669 43.7334 92.9002 44.6C93.1169 45.9834 93.3669 47.7 93.7335 48.8667C94.7002 51.8834 96.2335 52.8 100.317 52.8H105.117V52.1334C102.8 51.4334 102.4 49.3334 101.9 46.7334L101.817 46.2834C101.134 42.85 100.417 40.6834 96.1669 39.5834L95.6669 39.45V38.2834L96.2335 38.2C100.334 37.6334 102.884 35.25 102.884 32C102.884 27.2167 99.7502 25.0834 92.7002 25.0834H76.5002V25.6334C78.7502 25.8 79.2335 26.45 79.2335 28.8167V49.05C79.2335 51.4334 78.7502 52.0834 76.5002 52.2334V52.7834H90.1169V52.2334C87.8669 52.0667 87.3835 51.4167 87.3835 49.05V39.75H87.4002Z" fill="#231F20"/>
<path d="M89.5335 38.5834H87.4001V28.5C87.4001 26.8167 88.0501 26.2167 89.9001 26.2167C92.2001 26.2167 94.6501 27.8167 94.6501 32.2834C94.6501 36.35 92.8335 38.5834 89.5335 38.5834ZM88.7168 37.2667H89.5335C92.0501 37.2667 93.3335 35.6 93.3335 32.3C93.3335 29.3334 92.0501 27.55 89.9001 27.55C88.7835 27.55 88.7168 27.55 88.7168 28.5V37.2667Z" fill="#231F20"/>
<path fill-rule="evenodd" clip-rule="evenodd" d="M88.0501 40.4167H89.4501C90.8501 40.4167 91.5334 41.3333 91.9334 42.85C92.1834 43.8333 92.5168 47.15 93.1001 49.0667C94.1668 52.3833 95.9168 53.4667 100.317 53.4667H105.783V51.6333C103.3 51.1667 103.05 49.1833 102.467 46.1667C101.8 42.8 101.05 40.1667 96.3334 38.95V38.8667C100.567 38.2833 103.55 35.7667 103.55 32.0167C103.55 25.6 98.1501 24.4333 92.7001 24.4333H75.8501V26.2667C78.3668 26.35 78.5834 26.65 78.5834 28.8333V49.05C78.5834 51.2167 78.3668 51.5333 75.8501 51.6167V53.45H90.7834V51.6167C88.2668 51.5333 88.0501 51.2333 88.0501 49.05V40.4167ZM88.0501 28.5167C88.0501 27.2333 88.3501 26.9 89.8834 26.9C92.0001 26.9 93.9834 28.4333 93.9834 32.3C93.9834 35.2833 92.9168 37.9333 89.5168 37.9333H88.0334L88.0501 28.5167Z" fill="#30302E"/>
<path d="M105.9 53.5667H100.333C95.8667 53.5667 94.1001 52.4833 93.0167 49.0833C92.6501 47.8666 92.3834 46.1166 92.1667 44.7166C92.0501 43.9166 91.9334 43.2167 91.8501 42.8666C91.4334 41.25 90.7001 40.5166 89.4834 40.5166H88.1667V49.05C88.1667 51.15 88.3167 51.4166 90.8001 51.5H90.9001V53.55H75.7334V51.5H75.8334C78.3167 51.4166 78.4667 51.15 78.4667 49.05V28.8167C78.4667 26.7167 78.3167 26.45 75.8334 26.3667H75.7334V24.3167H92.7001C97.4001 24.3167 103.65 25.1166 103.65 32.0166C103.65 35.6 100.983 38.2333 96.6501 38.9333C101.05 40.1833 101.867 42.7167 102.55 46.15L102.633 46.6C103.15 49.3 103.5 51.0833 105.783 51.5166L105.867 51.5333V53.5667H105.9ZM87.9501 40.3H89.4501C90.7667 40.3 91.6001 41.1 92.0334 42.8C92.1334 43.1666 92.2334 43.8666 92.3501 44.6666C92.5667 46.0666 92.8334 47.8 93.2001 49C94.2501 52.2666 95.9667 53.3333 100.317 53.3333H105.667V51.7C103.317 51.2166 102.967 49.3833 102.433 46.6166L102.35 46.1666C101.65 42.6333 100.85 40.2167 96.3001 39.0333L96.2167 39.0166V38.75L96.3167 38.7333C100.717 38.1333 103.45 35.5333 103.45 31.9833C103.45 25.2833 97.3167 24.5166 92.7167 24.5166H75.9501V26.1333C78.3667 26.2166 78.6834 26.55 78.6834 28.8V49.05C78.6834 51.3 78.3667 51.6333 75.9501 51.7166V53.3333H90.6667V51.7166C88.2501 51.6333 87.9334 51.3 87.9334 49.05V40.3H87.9501Z" fill="#231F20"/>
<path d="M89.5335 38.0333H87.9502V28.5C87.9502 27.1333 88.3502 26.7666 89.9002 26.7666C93.0002 26.7666 94.1002 29.6167 94.1002 32.2833C94.1002 36 92.4835 38.0333 89.5335 38.0333ZM88.1669 37.8167H89.5335C93.1335 37.8167 93.8835 34.8167 93.8835 32.3C93.8835 27.3833 90.8335 27 89.9002 27C88.3835 27 88.1669 27.3167 88.1669 28.5V37.8167Z" fill="#231F20"/>
<path fill-rule="evenodd" clip-rule="evenodd" d="M23.4668 39.4333H25.0335C28.4668 39.4333 29.8002 42.5333 29.8002 45.4C29.8002 49.6333 28.0502 50.9833 25.9835 50.9833C23.9835 50.9833 23.4668 49.9833 23.4668 48.5833V39.4333ZM23.4668 27.9999C23.4668 27.2166 23.6335 26.8833 25.2835 26.8833C26.7335 26.8833 29.1335 27.6666 29.1335 31.8166C29.1335 34.35 28.2335 36.9499 24.9835 36.9499H23.4835V27.9999H23.4668ZM11.2668 24.4166V26.2499C13.7835 26.3333 13.9668 26.6333 13.9668 28.8166V49.0499C13.9668 51.2166 13.7668 51.5333 11.2668 51.6166V53.45H27.9835C33.7502 53.45 39.7502 52.3833 39.7502 45.6666C39.7502 39.9833 35.1168 38.4166 32.2502 37.9166V37.7833C36.4835 36.9499 38.6835 34.7166 38.6835 31.3166C38.6835 24.8166 31.9668 24.3499 26.9502 24.4L11.2668 24.4166Z" fill="#231F20"/>
<path d="M25.9833 51.6333C23.8833 51.6333 22.8167 50.6 22.8167 48.5833V38.7833H25.0333C28.7833 38.7833 30.4667 42.1166 30.4667 45.4C30.45 50.8333 27.65 51.6333 25.9833 51.6333ZM24.1333 40.1V48.5833C24.1333 49.7166 24.4333 50.3166 25.9833 50.3166C28.0833 50.3166 29.15 48.6666 29.15 45.4C29.15 42.95 28.0667 40.1 25.0333 40.1H24.1333Z" fill="#231F20"/>
<path d="M24.9667 37.6167H22.8V28C22.8 26.5167 23.7 26.2334 25.2667 26.2334C28.5834 26.2334 29.7667 29.1167 29.7667 31.8334C29.7834 35.5 28.0334 37.6167 24.9667 37.6167ZM24.1334 36.3H24.9834C27.3 36.3 28.4834 34.8 28.4834 31.8334C28.4834 28.1167 26.4834 27.55 25.3 27.55C24.3667 27.55 24.1834 27.6667 24.1667 27.6834C24.1667 27.6834 24.15 27.75 24.15 28L24.1334 36.3Z" fill="#231F20"/>
<path d="M27.9834 54.1167H10.6001V50.9834L11.2334 50.9667C13.3001 50.9 13.3001 50.9 13.3001 49.0667V28.8334C13.3001 27 13.3001 27 11.2334 26.9334L10.6001 26.9167V23.7834H26.9501C30.7834 23.75 35.0334 24.0167 37.4834 26.4334C38.7168 27.65 39.3501 29.3167 39.3501 31.35C39.3501 33.6 38.4668 36.3834 34.5668 37.85C38.4001 39.1334 40.4168 41.8167 40.4168 45.7C40.4001 53.2334 33.3168 54.1167 27.9834 54.1167ZM11.9168 52.8H27.9834C35.7668 52.8 39.0834 50.6667 39.0834 45.6834C39.0834 41.7834 36.7501 39.3834 32.1334 38.5834L31.5834 38.4834V37.25L32.1168 37.15C36.0334 36.3834 38.0334 34.4167 38.0334 31.3334C38.0334 29.6334 37.5501 28.3334 36.5668 27.35C34.4501 25.2667 30.3334 25.0334 26.9668 25.0834H11.9168V25.6334C14.1501 25.8 14.6168 26.45 14.6168 28.8167V49.05C14.6168 51.4334 14.1501 52.0834 11.9168 52.2334V52.8Z" fill="#231F20"/>
<path fill-rule="evenodd" clip-rule="evenodd" d="M23.4668 39.4333H25.0335C28.4668 39.4333 29.8002 42.5333 29.8002 45.4C29.8002 49.6333 28.0502 50.9833 25.9835 50.9833C23.9835 50.9833 23.4668 49.9833 23.4668 48.5833V39.4333ZM23.4668 27.9999C23.4668 27.2166 23.6335 26.8833 25.2835 26.8833C26.7335 26.8833 29.1335 27.6666 29.1335 31.8166C29.1335 34.35 28.2335 36.9499 24.9835 36.9499H23.4835V27.9999H23.4668ZM11.2668 24.4166V26.2499C13.7835 26.3333 13.9668 26.6333 13.9668 28.8166V49.0499C13.9668 51.2166 13.7668 51.5333 11.2668 51.6166V53.45H27.9835C33.7502 53.45 39.7502 52.3833 39.7502 45.6666C39.7502 39.9833 35.1168 38.4166 32.2502 37.9166V37.7833C36.4835 36.9499 38.6835 34.7166 38.6835 31.3166C38.6835 24.8166 31.9668 24.3499 26.9502 24.4L11.2668 24.4166Z" fill="#30302E"/>
<path d="M25.9834 51.0834C24.1667 51.0834 23.3667 50.3167 23.3667 48.5834V39.3334H25.0334C28.6334 39.3334 29.9167 42.6 29.9167 45.4C29.9 50.1 27.7667 51.0834 25.9834 51.0834ZM23.5834 39.55V48.5834C23.5834 50.1834 24.3 50.8667 25.9834 50.8667C28.4167 50.8667 29.7 48.9834 29.7 45.4C29.7 42.7 28.4834 39.55 25.05 39.55H23.5834Z" fill="#231F20"/>
<path d="M24.9668 37.0667H23.3501V28C23.3501 27.1 23.6334 26.7833 25.2668 26.7833C26.2001 26.7833 29.2168 27.15 29.2168 31.8333C29.2334 33.7833 28.6834 37.0667 24.9668 37.0667ZM23.5834 36.85H24.9834C26.8334 36.85 29.0334 35.9833 29.0334 31.8333C29.0334 27.4833 26.4168 27.0166 25.3001 27.0166C23.6668 27.0166 23.6001 27.35 23.6001 28.0166V36.85H23.5834Z" fill="#231F20"/>
<path d="M27.9837 53.5667H11.1504V51.5166H11.2504C13.7004 51.4333 13.8504 51.1667 13.8504 49.0667V28.8333C13.8504 26.7333 13.7004 26.4666 11.2504 26.3833H11.1504V24.3333H26.9504C30.6837 24.2833 34.8004 24.55 37.1004 26.8333C38.2337 27.95 38.8004 29.4667 38.8004 31.3667C38.8004 34.7667 36.6171 37.0333 32.4671 37.9C37.3004 38.8 39.8504 41.5 39.8504 45.7166C39.8671 52.6666 33.5171 53.5667 27.9837 53.5667ZM11.3671 53.35H27.9837C33.4171 53.35 39.6337 52.4833 39.6337 45.6833C39.6337 42.7833 38.3504 39.1166 32.2337 38.05L32.1504 38.0333V37.7166L32.2337 37.7C36.3837 36.8833 38.5837 34.6833 38.5837 31.3333C38.5837 29.5 38.0337 28.0333 36.9504 26.9666C34.7171 24.75 30.6337 24.5 26.9671 24.5333H11.3671V26.15C13.8671 26.25 14.0671 26.6667 14.0671 28.8167V49.05C14.0671 51.2166 13.8671 51.6333 11.3671 51.7166V53.35Z" fill="#231F20"/>
</svg>
