<svg xmlns="http://www.w3.org/2000/svg" width="1000" height="500" viewBox="0 0 1000 500">
  <g fill="#FFF" fill-rule="evenodd" transform="translate(100 99.867)">
    <path d="M5.55412186,297.416487 L792.349821,297.416487 L730.913262,95.9426523 C706.589247,19.9455197 666.615054,5.55698925 601.393548,5.55698925 L5.55412186,5.55698925 L5.55412186,297.416487 Z M796.051613,302.970609 L2.77562724,302.970609 C1.26164875,302.970609 2.27373675e-13,301.708961 2.27373675e-13,300.194982 L2.27373675e-13,2.77849462 C2.27373675e-13,1.26451613 1.26164875,8.52651283e-14 2.77562724,8.52651283e-14 L601.393548,8.52651283e-14 C669.224373,8.52651283e-14 710.798566,14.9820789 736.212186,94.2566308 L798.744086,299.351971 C798.996416,300.194982 798.82724,301.121147 798.325448,301.792115 C797.7319,302.549104 796.977778,302.970609 796.051613,302.970609 L796.051613,302.970609 Z"/>
    <path d="M68.0822939 31.4778495L67.4944803 30.8871685 50.0751254 33.2441577 50.0751254 36.3581362 53.1891039 36.9459498C54.4478853 37.1982796 55.1217204 37.9581362 55.1217204 41.4907527L55.1217204 87.7789247C55.1217204 91.3975627 54.4478853 91.735914 49.6507527 91.9882437L49.6507527 95.3516846 73.7224373 95.3516846 73.7224373 91.9882437C68.756129 91.735914 68.0822939 91.3975627 68.0822939 87.7789247L68.0822939 73.3043728 68.3346237 73.3043728C71.1131183 79.1108244 74.6486022 85.0004301 78.602724 90.2190681 81.5475269 94.3423656 84.9138351 95.4377061 91.3109677 95.4377061L99.0529032 95.4377061 99.0529032 92.6592115C97.2005735 91.9882437 96.105233 90.9760573 93.5848029 88.0312545 87.7754839 81.3817921 83.0643728 74.652043 78.5195699 67.4979211L80.3690323 65.5624373C84.9138351 61.1839427 90.049319 57.2269534 97.3697491 55.7129749L97.3697491 53.0233692 84.830681 53.0233692C82.9783513 53.0233692 81.2951971 53.6111828 79.7812186 55.5466667 78.2672401 57.6513262 76.584086 60.1746237 74.565448 63.0362724L68.3346237 71.8735484 68.0822939 71.8735484 68.0822939 31.4778495M134.989821 95.4365591L152.830681 95.4365591 152.830681 92.0702509C147.864373 91.8179211 147.193405 91.4824373 147.193405 87.8609319L147.193405 52.4315412 146.602724 51.8437276 129.183369 54.3698925 129.183369 57.483871 132.297348 57.902509C133.558996 58.1548387 134.229964 58.9146953 134.229964 62.4473118L134.229964 80.7096774C134.229964 82.1405018 134.063656 84.2451613 133.558996 85.50681 132.885161 87.6114695 130.614194 89.6301075 126.823513 89.6301075 122.27871 89.6301075 119.672258 86.9376344 119.672258 80.2050179L119.672258 52.5146953 119.081577 51.9268817 101.662222 54.4530466 101.662222 57.5670251 104.607025 57.9856631C106.037849 58.2379928 106.711685 58.9978495 106.711685 62.5304659L106.711685 83.6573477C106.711685 93.753405 112.939642 96.6150538 119.081577 96.6150538 126.404875 96.6150538 130.866523 92.6580645 134.315986 90.7225806L134.989821 95.4365591M174.626237 31.4778495L173.955269 30.8871685 156.619068 33.2441577 156.619068 36.3581362 159.563871 36.9459498C160.994695 37.1982796 161.665663 37.9581362 161.665663 41.4907527L161.665663 87.7789247C161.665663 91.3975627 160.994695 91.735914 156.028387 91.9882437L156.028387 95.3516846 180.180358 95.3516846 180.180358 91.9882437C175.386093 91.735914 174.709391 91.3975627 174.709391 87.7789247L174.709391 31.4778495M213.509391 82.141362C213.509391 85.6739785 212.41405 89.7141219 206.859928 89.7141219 201.222652 89.7141219 197.434839 84.2431541 197.434839 73.1349104 197.434839 60.3406452 202.229104 55.7958423 207.026237 55.7958423 210.223369 55.7958423 211.995412 57.3126882 212.835556 59.1650179 213.509391 60.4266667 213.509391 62.3650179 213.509391 64.2144803L213.509391 82.141362 213.509391 82.141362zM226.469964 31.4775627L225.879283 30.8868817 208.457061 33.243871 208.457061 36.3578495 211.571039 36.9456631C212.835556 37.1979928 213.509391 37.9578495 213.509391 41.4904659L213.509391 52.8539068C211.657061 52.1800717 209.300072 51.7585663 206.355269 51.7585663 199.874982 51.7585663 194.234839 53.6940502 190.280717 57.3987097 186.157419 61.1836559 183.80043 67.076129 183.80043 74.8180645 183.80043 87.5263082 190.280717 96.3635842 201.139498 96.3635842 204.250609 96.3635842 208.881434 94.6804301 213.509391 90.9757706L213.509391 95.3513978 232.10724 95.3513978 232.10724 91.987957C227.140932 91.7356272 226.469964 91.4001434 226.469964 87.778638L226.469964 31.4775627zM282.01319 65.1415054C282.01319 56.9751971 277.889892 51.7594265 269.052616 51.7594265 264.086308 51.7594265 260.049032 54.4518996 254.408889 57.8182079L253.313548 51.7594265 236.398853 54.282724 236.398853 57.3995699 239.343656 57.8182079C240.77448 58.0705376 241.451183 58.8275269 241.451183 62.3630108L241.451183 87.8626523C241.451183 91.4841577 240.77448 91.8196416 235.811039 92.0719713L235.811039 95.4354122 258.870538 95.4354122 258.870538 92.0719713 257.187384 91.9027957C255.335054 91.7336201 254.408889 91.3149821 254.408889 88.3701792L254.408889 67.8311111C254.408889 65.9816487 254.661219 63.8798566 255.2519 62.7845161 256.344373 60.5135484 258.784516 58.5751971 262.32 58.5751971 266.695627 58.5751971 268.969462 61.2676703 269.052616 66.4863082L269.052616 88.3701792C269.052616 91.3149821 268.212473 91.7336201 266.360143 91.9027957L264.510681 92.0719713 264.510681 95.4354122 287.567312 95.4354122 287.567312 92.0719713C282.601004 91.8196416 281.930036 91.4841577 281.930036 87.8626523L282.01319 65.1415054M305.82853 69.3473835C305.82853 63.0362724 307.514552 55.796129 312.982652 55.796129 318.370466 55.796129 319.210609 62.2792832 319.210609 66.3165591 319.210609 68.6764158 318.539642 69.2642294 316.518136 69.2642294L305.82853 69.3473835 305.82853 69.3473835zM328.888029 82.0584946C326.198423 87.0219355 322.576918 89.8004301 317.35828 89.8004301 308.773333 89.8004301 305.82853 82.6463082 305.82853 73.470681L327.964731 73.470681C331.07871 73.470681 332.592688 72.6305376 332.592688 69.8549104 332.592688 62.7839427 329.900215 51.8448746 313.487312 51.8448746 298.003441 51.8448746 292.196989 61.9409319 292.196989 74.2276703 292.196989 86.0957706 297.246452 96.6162007 313.318136 96.4470251 323.419928 96.4470251 329.060072 91.3975627 331.918853 83.7416487L328.888029 82.0584946zM246.162294 119.507097C261.227527 119.507097 268.714265 124.892043 270.061935 136.421792 273.849749 136.17233 277.973047 136.000287 282.01319 136.000287 286.222509 136.000287 290.176631 136.17233 293.964444 136.421792 295.478423 124.892043 303.137204 119.507097 317.864086 119.507097 334.864803 119.507097 342.185233 126.406022 342.185233 141.304946 342.185233 145.428244 341.342222 149.046882 339.831111 152.16086 352.957993 163.521434 358.850466 181.195986 358.850466 205.261935 358.850466 246.669821 335.455484 273.09276 282.01319 273.09276 228.909247 273.09276 205.175914 246.669821 205.175914 205.261935 205.175914 181.195986 211.403871 163.773763 224.28129 152.327168 222.767312 149.21319 221.924301 145.597419 221.924301 141.3881 221.924301 126.322867 229.413907 119.507097 246.162294 119.507097M256.59957 207.031111C256.59957 239.263369 259.963011 259.965878 282.096344 259.965878 304.229677 259.965878 307.598853 239.263369 307.598853 207.031111 307.598853 176.734337 304.229677 154.262652 282.096344 154.262652 259.963011 154.262652 256.59957 176.734337 256.59957 207.031111M642.547384 169.4119L642.547384 129.604014C628.996129 121.692903 610.986093 120.009749 597.099355 120.009749 561.082151 120.009749 539.788961 138.69362 539.788961 166.719427 539.788961 189.945233 555.949534 202.487168 585.150968 214.269247 608.210466 223.694337 612.752401 233.793262 613.007599 243.135197 612.752401 253.572473 605.936631 260.723728 593.902222 260.554552 575.052043 260.135914 562.343799 246.33233 549.130896 217.380358L539.453477 217.380358 542.650609 260.976057C555.611183 269.561004 574.464229 273.09362 592.219068 273.09362 637.583943 272.674982 653.320143 250.541649 653.738781 224.285018 653.320143 194.154552 630.343799 183.046308 608.79828 174.716559 593.062079 168.824086 579.93233 161.753118 579.93233 150.057061 579.93233 139.536631 587.086452 132.465663 597.523728 132.465663 610.650609 132.465663 622.432688 141.219785 633.122294 169.328746L642.547384 169.4119M433.749104 143.997419C433.749104 137.514265 435.263082 135.831111 443.007885 135.831111 453.694624 135.831111 463.710394 143.575914 463.710394 163.099928 463.710394 178.165161 458.322581 191.544373 441.155556 191.544373L433.66595 191.544373 433.749104 143.997419 433.749104 143.997419zM433.749104 204.086308L440.820072 204.086308C447.891039 204.086308 451.340502 208.714265 453.35914 216.373047 454.620789 221.339355 456.303943 238.084875 459.251613 247.762294 464.633692 264.510681 473.473835 269.981649 495.69319 269.981649L523.294624 269.981649 523.294624 260.722867C510.752688 258.368746 509.491039 248.352975 506.549104 233.118566 503.179928 216.117849 499.394982 202.824659 475.578495 196.679857L475.578495 196.261219C496.951971 193.313548 512.017204 180.605305 512.017204 161.669104 512.017204 129.26767 484.748387 123.378065 457.230108 123.378065L372.146237 123.378065 372.146237 132.633978C384.85448 133.058351 385.946953 134.57233 385.946953 145.597419L385.946953 247.67914C385.946953 258.621075 384.85448 260.218208 372.146237 260.639713L372.146237 269.895627 447.549821 269.895627 447.549821 260.639713C434.844444 260.218208 433.749104 258.704229 433.749104 247.67914L433.749104 204.086308zM46.0335484 123.292903L46.0335484 132.551685C58.7417921 132.97319 59.667957 134.484301 59.667957 145.512258L59.667957 247.68C59.667957 258.619068 58.6557706 260.219068 46.0335484 260.637706L46.0335484 269.896487 130.443584 269.896487C159.564731 269.896487 189.858638 264.511541 189.858638 230.596129 189.858638 201.896487 166.463656 193.985376 151.989104 191.459211L151.989104 190.788244C173.365448 186.578925 184.473692 175.304373 184.473692 158.13448 184.473692 125.314409 150.55828 122.957419 125.224946 123.209749L46.0335484 123.292903 46.0335484 123.292903zM107.636416 141.388961C107.636416 137.431971 108.479427 135.748817 116.812043 135.748817 124.132473 135.748817 136.252903 139.705806 136.252903 160.657778 136.252903 173.452043 131.7081 186.578925 115.295197 186.578925L107.722437 186.578925 107.722437 141.388961 107.636416 141.388961zM107.636416 199.117993L115.547527 199.117993C132.883728 199.117993 139.619211 214.773907 139.619211 229.248459 139.619211 250.624803 130.781935 257.440573 120.344659 257.440573 110.248602 257.440573 107.636416 252.391111 107.636416 245.323011L107.636416 199.117993z"/>
  </g>
</svg>
