<svg width="217" height="80" viewBox="0 0 217 80" fill="none" xmlns="http://www.w3.org/2000/svg">
<path d="M66.5571 60.41V26.899H75.5735V41.7761L87.7457 26.899H97.814L85.191 42.3772L101.12 60.41H89.3987L75.5735 44.6313V60.41H66.5571ZM114.795 60.7105L98.4151 26.899H108.033L116.899 46.4346L126.366 26.899H136.134L118.702 60.7105H114.795ZM129.972 56.6531C129.972 55.451 130.423 54.399 131.325 53.6477C132.227 52.746 133.278 52.4455 134.631 52.4455C135.983 52.4455 137.035 52.8963 137.937 53.6477C138.839 54.5493 139.289 55.451 139.289 56.6531C139.289 57.8553 138.839 58.9072 137.937 59.6586C137.035 60.5602 135.983 60.8608 134.631 60.8608C133.278 60.8608 132.227 60.41 131.325 59.6586C130.423 58.9072 129.972 57.8553 129.972 56.6531ZM145.3 60.41V26.899H169.344V33.0602H154.317V39.9728H168.743V46.2843H154.317V54.2488H169.795V60.41H145.3ZM175.505 60.41V26.899H199.549V33.0602H184.522V39.9728H198.948V46.2843H184.522V54.2488H200V60.41H175.505Z" fill="white"/>
<path fill-rule="evenodd" clip-rule="evenodd" d="M57.2403 38.0192V60.4099H47.3222L42.3632 48.9891L49.1255 47.6367L32.7457 31.858L32.5955 54.6995L38.3058 50.7924L42.3632 60.4099H16.967V38.0192L37.1037 18.3334L57.2403 38.0192Z" fill="white"/>
</svg>
