<svg xmlns="http://www.w3.org/2000/svg" width="1000" height="500" viewBox="0 0 1000 500">
  <g fill="#FFF" fill-rule="evenodd" transform="translate(100 156)">
    <path d="M692.050882,184.612059 L692.050882,38.3326471 L797.006765,38.3326471 L797.006765,65.2267647 L731.409706,65.2267647 L731.409706,95.4002941 L794.383235,95.4002941 L794.383235,122.950294 L731.409706,122.950294 L731.409706,157.717941 L798.974412,157.717941 L798.974412,184.612059 L692.050882,184.612059 Z M560.200882,184.612059 L560.200882,38.3326471 L665.156765,38.3326471 L665.156765,65.2267647 L599.559706,65.2267647 L599.559706,95.4002941 L662.533235,95.4002941 L662.533235,122.950294 L599.559706,122.950294 L599.559706,157.717941 L667.124412,157.717941 L667.124412,184.612059 L560.200882,184.612059 Z M493.292059,168.215 C493.292059,162.967941 495.259706,158.373824 499.195,155.094412 C503.130294,151.159118 507.724412,149.847353 513.627353,149.847353 C519.530294,149.847353 524.121471,151.815 528.059706,155.094412 C531.995,159.032647 533.962647,162.967941 533.962647,168.215 C533.962647,173.462059 531.995,178.056176 528.059706,181.335588 C524.121471,185.270882 519.530294,186.582647 513.627353,186.582647 C507.724412,186.582647 503.130294,184.612059 499.195,181.335588 C495.259706,178.056176 493.292059,173.462059 493.292059,168.215 L493.292059,168.215 Z M427.039118,185.923824 L355.536176,38.3326471 L397.518529,38.3326471 L436.221471,123.609118 L477.547941,38.3326471 L520.186176,38.3326471 L444.092059,185.923824 L427.039118,185.923824 Z M216.471471,184.612059 L216.471471,38.3326471 L255.830294,38.3326471 L255.830294,103.273824 L308.962647,38.3326471 L352.912647,38.3326471 L297.812647,105.894412 L367.345,184.612059 L316.180294,184.612059 L255.830294,115.735588 L255.830294,184.612059 L216.471471,184.612059 Z"/>
    <polygon points="175.801 86.873 175.801 184.611 132.507 184.611 110.86 134.758 140.378 128.855 68.878 59.979 68.222 159.687 93.148 142.631 110.86 184.611 .001 184.611 .001 86.873 87.901 .94"/>
  </g>
</svg>
