<svg xmlns="http://www.w3.org/2000/svg" width="1000" height="500" viewBox="0 0 1000 500">
  <g fill="#FFF" fill-rule="evenodd" transform="translate(100 155)">
    <path d="M760.205165,0.402162162 C781.281441,0.402162162 798.535495,17.649009 798.535495,38.7324925 L798.535495,153.721081 C798.535495,174.802162 781.281441,192.051411 760.205165,192.051411 L38.3288889,192.051411 C17.243003,192.051411 -0.00144144144,174.802162 -0.00144144144,153.721081 L-0.00144144144,38.7324925 C-0.00144144144,17.649009 17.243003,0.402162162 38.3288889,0.402162162 L760.205165,0.402162162 Z M143.737658,16.3728529 L47.913033,16.3728529 C30.3394595,16.3728529 15.9706907,30.7464264 15.9706907,48.3127928 L15.9706907,48.3127928 L15.9706907,144.13982 C15.9706907,161.706186 30.3394595,176.07976 47.913033,176.07976 L47.913033,176.07976 L143.737658,176.07976 C161.299219,176.07976 175.677598,161.706186 175.677598,144.13982 L175.677598,144.13982 L175.677598,48.3127928 C175.677598,30.7464264 161.299219,16.3728529 143.737658,16.3728529 L143.737658,16.3728529 Z M750.624625,16.3728529 L223.59039,16.3728529 C206.016817,16.3728529 191.648048,30.7464264 191.648048,48.3127928 L191.648048,48.3127928 L191.648048,144.13982 C191.648048,161.706186 206.016817,176.07976 223.59039,176.07976 L223.59039,176.07976 L750.624625,176.07976 C768.186186,176.07976 782.564565,161.706186 782.564565,144.13982 L782.564565,144.13982 L782.564565,48.3127928 C782.564565,30.7464264 768.186186,16.3728529 750.624625,16.3728529 L750.624625,16.3728529 Z"/>
    <path d="M93.5300901 62.1835435L92.4538138 60.5571171C91.3775375 60.0213814 91.3775375 58.9403003 92.4538138 58.4141742L95.6802402 54.6496096C96.2303904 54.0970571 97.8327928 54.0970571 98.3685285 54.6496096L115.062823 71.3294895C115.610571 71.87003 115.610571 72.9415015 115.062823 74.0273874L111.305465 77.2514114C110.755315 77.7967568 109.671832 77.7967568 108.605165 77.2514114L107.531291 76.1775375 97.8351952 85.8616216 136.607568 123.540901C138.217177 125.164925 138.217177 128.386547 136.607568 130.008168 134.010571 132.062222 131.663423 134.409369 129.606967 137.006366 127.978138 138.618378 124.763724 138.618378 122.611171 137.006366L85.4604204 98.2556156 75.7643243 107.932492 76.8406006 109.546907C77.3883483 110.099459 77.3883483 111.170931 76.8406006 111.697057L73.0712312 115.471231C72.5330931 116.014174 71.4568168 116.014174 70.9306907 115.471231 65.3691291 109.902462 59.8027628 104.340901 54.2315916 98.7817417 53.6982583 98.2508108 53.6982583 96.6315916 54.2315916 96.0886486L58.0057658 92.8574174C58.5487087 91.7763363 59.624985 91.7763363 60.1559159 92.8574174L61.7631231 93.9384985 93.5300901 62.1835435zM682.193874 53.6812012L719.337417 53.6812012C723.046727 53.6812012 726.2203 54.2145345 727.813093 56.3214414 729.92 57.9238438 731.005886 60.0403604 731.005886 63.2331532 731.005886 66.4091291 729.924805 68.5400601 727.813093 70.1208408 726.2203 71.7232432 723.58006 72.7706907 719.870751 72.7706907L692.805285 72.7706907 692.805285 83.3917117 714.556637 83.3917117C718.277958 83.3917117 720.918198 83.925045 722.510991 85.5058258 724.106186 87.0962162 724.634715 89.2151351 724.634715 92.3983183 724.634715 95.5935135 724.101381 97.7052252 722.510991 99.2932132 720.396877 100.895616 718.277958 101.421742 715.082763 101.421742L692.80048 101.421742 692.80048 114.161682 720.913393 114.161682C724.62991 114.161682 727.284565 114.685405 729.403483 116.801922 731.527207 118.397117 732.581862 120.511231 732.581862 124.232553 732.581862 126.875195 731.534414 129.534655 729.403483 131.127447 727.805886 132.717838 725.156036 133.246366 721.434715 133.246366L682.193874 133.246366C676.891772 133.246366 672.649129 132.186907 670.525405 130.067988 667.868348 127.944264 666.808889 124.227748 666.808889 118.925646L666.808889 68.528048C666.808889 62.683003 667.868348 58.9712913 670.525405 56.8571772 672.653934 54.7382583 676.891772 53.6812012 682.193874 53.6812012L682.193874 53.6812012zM604.735616 53.6812012L642.405285 53.6812012C645.590871 53.6812012 648.766847 54.2145345 650.35964 56.3214414 652.488168 57.9238438 653.554835 60.0403604 653.554835 63.2331532 653.554835 66.4091291 652.495375 68.5400601 650.35964 70.1208408 648.766847 71.7232432 646.126607 72.7706907 642.405285 72.7706907L615.33982 72.7706907 615.33982 83.3917117 637.107988 83.3917117C640.8197 83.3917117 643.476757 83.925045 645.057538 85.5058258 646.65033 87.0962162 647.176456 89.2151351 647.176456 92.3983183 647.176456 95.5935135 646.643123 97.7052252 645.057538 99.2932132 642.938619 100.895616 640.8197 101.421742 637.631712 101.421742L615.335015 101.421742 615.335015 114.161682 644.007688 114.161682C647.176456 114.161682 650.354835 114.685405 651.945225 116.801922 654.064144 118.397117 655.145225 120.511231 655.145225 124.232553 655.145225 126.875195 654.068949 129.534655 651.945225 131.127447 650.354835 132.717838 647.702583 133.246366 644.007688 133.246366L604.730811 133.246366C599.428709 133.246366 595.190871 132.186907 593.067147 130.067988 590.953033 127.944264 589.367447 124.227748 589.367447 118.925646L589.367447 68.528048C589.367447 62.683003 590.953033 58.9712913 593.067147 56.8571772 595.198078 54.7382583 599.433514 53.6812012 604.735616 53.6812012L604.735616 53.6812012zM551.692973 121.58991C551.692973 118.397117 553.283363 115.742462 555.414294 113.095015 557.526006 110.973694 560.704384 109.907027 563.894775 109.907027 567.077958 109.907027 569.718198 110.968889 572.38006 113.095015 574.498979 115.742462 575.568048 118.397117 575.568048 121.58991 575.568048 124.773093 574.503784 127.415736 572.38006 130.08 569.718198 132.194114 567.077958 133.258378 563.894775 133.258378 560.704384 133.258378 557.533213 132.198919 555.414294 130.08 553.283363 127.410931 551.692973 124.765886 551.692973 121.58991L551.692973 121.58991zM494.405285 106.185706L502.354835 78.6109309 510.311592 106.185706 494.405285 106.185706zM488.038919 127.410931L489.6197 122.637357 515.075556 122.637357 517.216096 127.410931C517.737417 130.075195 519.335015 131.665586 520.918198 132.717838 523.034715 134.313033 525.165646 134.843964 527.822703 134.843964 531.527207 134.843964 534.184264 133.784505 536.317598 131.660781 538.426907 130.067988 539.495976 127.406126 539.495976 123.696817 539.495976 123.170691 539.495976 122.108829 538.957838 121.049369 538.957838 120.506426 538.957838 119.454174 538.426907 118.93045L518.792072 64.2902102C517.216096 59.5214414 515.613694 56.3166366 513.494775 54.7334535 511.904384 53.1430631 509.252132 52.6169369 506.068949 52.6169369L498.643123 52.6169369C495.45033 52.6169369 492.802883 53.1478679 490.679159 55.2667868 489.086366 56.8643844 486.967447 60.037958 485.903183 64.2902102L466.275556 118.93045C466.275556 119.458979 465.742222 119.9803 465.742222 121.049369L465.742222 123.696817C465.742222 126.875195 466.808889 130.067988 468.927808 131.660781 471.051532 133.7797 473.706186 134.843964 476.889369 134.843964 479.551231 134.843964 482.198679 134.308228 483.779459 132.717838 485.903183 131.665586 486.974655 130.075195 488.038919 127.410931L488.038919 127.410931zM406.868949 74.3730931C403.15964 74.3730931 400.497778 73.3136336 398.374054 71.7232432 396.793273 70.1208408 395.733814 67.4781982 395.733814 64.295015 395.733814 60.5736937 396.793273 57.9238438 398.374054 56.3214414 400.492973 54.2145345 403.154835 53.6812012 406.868949 53.6812012L460.973453 53.6812012C464.677958 53.6812012 467.344625 54.7382583 468.932613 56.3214414 471.056336 57.9238438 472.115796 61.0902102 472.115796 64.295015 472.115796 67.4781982 471.061141 70.1208408 468.932613 71.7232432 467.344625 73.3136336 464.677958 74.3730931 460.973453 74.3730931L446.662342 74.3730931 446.662342 122.637357C446.662342 126.358679 445.588468 129.541862 443.474354 131.665586 441.36024 133.251171 438.167447 134.313033 433.924805 134.313033 429.682162 134.313033 426.496577 133.251171 424.368048 131.127447 422.261141 129.018138 421.194474 126.358679 421.194474 122.113634L421.194474 74.3682883 406.868949 74.3682883 406.868949 74.3730931zM324.637117 115.742462C324.637117 112.571291 325.710991 109.907027 327.8203 107.788108 329.944024 105.671592 332.067748 104.604925 335.250931 104.604925 338.436517 104.604925 342.145826 106.728649 345.867147 109.907027 346.393273 110.968889 346.914595 111.49982 346.914595 111.49982 349.033514 113.623544 351.164444 115.213934 352.762042 115.742462 354.35964 116.280601 356.471351 116.801922 358.595075 116.801922 361.778258 116.801922 363.897177 116.275796 365.49958 115.213934 367.087568 114.161682 368.151832 112.571291 368.151832 110.445165 368.151832 107.788108 364.44012 105.671592 357.535616 103.547868 355.407087 103.002523 353.831111 102.481201 352.766847 101.945465 347.46955 100.352673 343.222102 98.7718919 340.026907 97.7052252 336.843724 96.652973 334.72 95.0625826 333.144024 93.9887087 330.472553 91.8697898 328.351231 89.2199399 327.291772 86.5652853 325.718198 83.3845045 325.184865 80.2013213 325.184865 76.4872072 325.184865 68.5352553 327.8203 62.1592793 333.665345 57.919039 339.495976 53.673994 347.981261 51.0241441 358.595075 51.0241441 368.151832 51.0241441 376.103784 53.1430631 381.939219 56.3166366 387.774655 60.037958 390.953033 64.2902102 390.953033 69.5827027 390.953033 72.7658859 389.893574 74.8992192 388.300781 77.0133333 386.181862 78.6061261 384.058138 79.1322523 380.346426 79.1322523 377.165646 79.1322523 373.984865 78.0727928 370.258739 74.8944144 369.737417 73.8205405 368.68036 73.2968168 368.151832 72.7586787 366.554234 71.7112312 364.956637 70.6517718 363.371051 70.1088288 361.778258 69.5754955 360.187868 69.0493694 358.602282 69.0493694 355.95003 69.0493694 353.831111 69.5827027 352.228709 70.6517718 350.652733 71.7112312 350.119399 72.7586787 350.119399 74.3610811 350.119399 77.5370571 353.835916 79.6631832 361.268949 81.7893093L361.268949 82.3226426C362.323604 82.3226426 362.854535 82.8535736 363.909189 82.8535736 374.513393 86.043964 380.886967 88.6818018 384.07015 90.8127327 387.250931 93.464985 389.372252 95.5863063 390.962643 98.7718919 392.565045 101.421742 393.086366 104.604925 393.086366 108.316637 393.086366 117.34006 389.898378 124.232553 384.07015 128.472793 377.696577 133.246366 368.68997 135.903423 357.014294 135.903423 347.474354 135.903423 339.505586 133.789309 333.677357 130.075195 327.8203 126.358679 324.637117 121.58991 324.637117 115.742462L324.637117 115.742462zM234.455736 93.464985C234.455736 80.7346547 238.165045 70.1136336 245.607688 62.6926126 253.023904 55.2667868 263.644925 51.5550751 276.363243 51.5550751 289.103183 51.5550751 299.174054 55.2667868 306.611892 62.6926126 314.037718 70.1208408 317.747027 80.7418619 317.747027 93.464985 317.747027 106.728649 314.037718 116.801922 306.611892 124.232553 299.178859 131.665586 289.103183 135.898619 276.363243 135.898619 263.64012 135.898619 253.019099 131.660781 245.607688 124.232553 238.165045 116.801922 234.455736 106.735856 234.455736 93.464985L234.455736 93.464985zM260.444925 93.464985C260.444925 100.895616 262.042523 106.728649 264.171051 110.44036 266.823303 113.623544 271.077958 115.737658 276.363243 115.737658 281.67015 115.737658 285.374655 113.623544 288.036517 110.44036 290.693574 106.728649 291.743423 100.888408 291.743423 93.464985 291.743423 86.0367568 290.693574 80.2013213 288.036517 77.0205405 285.374655 73.3088288 281.67015 71.7184384 276.363243 71.7184384 271.077958 71.7184384 266.823303 73.3088288 264.171051 77.0205405 262.042523 80.2013213 260.444925 86.043964 260.444925 93.464985L260.444925 93.464985z"/>
  </g>
</svg>
