<svg width="217" height="80" viewBox="0 0 217 80" fill="none" xmlns="http://www.w3.org/2000/svg">
<path d="M54.5667 51.7667C54.5667 56.0567 51.0554 59.5667 46.7667 59.5667H23.3667C19.0754 59.5667 15.5667 56.0567 15.5667 51.7667V28.3667C15.5667 24.0767 19.0754 20.5667 23.3667 20.5667H46.7667C51.0554 20.5667 54.5667 24.0767 54.5667 28.3667V51.7667Z" fill="white"/>
<path fill-rule="evenodd" clip-rule="evenodd" d="M34.5064 31.7532L34.2438 31.3567C33.9812 31.2254 33.9812 30.9615 34.2438 30.8328L35.0316 29.9137C35.1655 29.7785 35.5568 29.7785 35.6881 29.9137L39.7649 33.9866C39.8988 34.1192 39.8988 34.3805 39.7649 34.6457L38.8471 35.4335C38.7132 35.5661 38.448 35.5661 38.188 35.4335L37.9254 35.1709L35.5581 37.5356L45.026 46.737C45.4186 47.1335 45.4186 47.92 45.026 48.3165C44.3918 48.8176 43.8181 49.3909 43.3165 50.0247C42.9187 50.4186 42.1335 50.4186 41.6083 50.0247L32.5356 40.562L30.1683 42.9254L30.4309 43.3193C30.5648 43.4545 30.5648 43.7158 30.4309 43.8445L29.5105 44.7662C29.3792 44.8988 29.1166 44.8988 28.9879 44.7662C27.6298 43.4064 26.2704 42.0479 24.9098 40.6907C24.7798 40.5607 24.7798 40.1655 24.9098 40.0329L25.8315 39.2438C25.9641 38.9799 26.2267 38.9799 26.3567 39.2438L26.7493 39.5077L34.5064 31.7532Z" fill="#30302E"/>
<path d="M75.2668 39.3919C75.2668 41.2067 75.6568 42.6315 76.1768 43.5376C76.8242 44.315 77.8629 44.8311 79.1538 44.8311C80.4499 44.8311 81.3547 44.315 82.0047 43.5376C82.6534 42.6315 82.9095 41.2054 82.9095 39.3919C82.9095 37.5784 82.6534 36.1536 82.0047 35.3762C81.3547 34.4701 80.4499 34.0814 79.1538 34.0814C77.8629 34.0814 76.8242 34.4701 76.1768 35.3762C75.6568 36.1536 75.2668 37.5797 75.2668 39.3919ZM68.9202 39.3919C68.9202 36.2836 69.8263 33.6901 71.6437 31.8779C73.4546 30.0644 76.0481 29.1583 79.1538 29.1583C82.2647 29.1583 84.7243 30.0644 86.5404 31.8779C88.3539 33.6914 89.26 36.2849 89.26 39.3919C89.26 42.6315 88.3539 45.0911 86.5404 46.9059C84.7256 48.7207 82.2647 49.7542 79.1538 49.7542C76.0468 49.7542 73.4533 48.7194 71.6437 46.9059C69.8263 45.0911 68.9202 42.6328 68.9202 39.3919ZM90.9422 44.8324C90.9422 44.0576 91.2048 43.4076 91.7196 42.8902C92.2383 42.3728 92.757 42.1128 93.5344 42.1128C94.3118 42.1128 95.2179 42.6315 96.1266 43.4076C96.2553 43.6663 96.3827 43.7963 96.3827 43.7963C96.9001 44.315 97.4201 44.7037 97.8101 44.8324C98.2001 44.9637 98.7162 45.0911 99.2349 45.0911C100.012 45.0911 100.53 44.9624 100.921 44.7037C101.308 44.4463 101.568 44.0576 101.568 43.5389C101.568 42.8902 100.662 42.3728 98.9762 41.8541C98.4562 41.7215 98.0714 41.5941 97.8114 41.4628C96.5179 41.0741 95.4805 40.688 94.7005 40.428C93.9231 40.1706 93.4044 39.7819 93.0196 39.5206C92.367 39.0032 91.8496 38.3558 91.5909 37.7071C91.2061 36.931 91.0761 36.1536 91.0761 35.2462C91.0761 33.304 91.7196 31.7479 93.147 30.7118C94.5705 29.6757 96.6427 29.0283 99.2349 29.0283C101.568 29.0283 103.511 29.5457 104.935 30.3205C106.36 31.2292 107.136 32.2679 107.136 33.5601C107.136 34.3375 106.878 34.8588 106.489 35.3749C105.971 35.7636 105.453 35.8923 104.547 35.8923C103.769 35.8923 102.993 35.6336 102.083 34.8575C101.956 34.5949 101.697 34.4675 101.568 34.3362C101.178 34.0801 100.788 33.8214 100.401 33.6888C100.012 33.5588 99.6236 33.4301 99.2362 33.4301C98.5888 33.4301 98.0714 33.5601 97.6801 33.8214C97.2953 34.0801 97.1653 34.3362 97.1653 34.7275C97.1653 35.5023 98.0727 36.0223 99.8875 36.541V36.671C100.145 36.671 100.275 36.801 100.532 36.801C103.122 37.5797 104.678 38.2245 105.455 38.7445C106.233 39.3919 106.75 39.9106 107.139 40.688C107.53 41.3354 107.658 42.1128 107.658 43.0189C107.658 45.2224 106.879 46.9059 105.455 47.9407C103.899 49.1068 101.7 49.7555 98.8488 49.7555C96.5192 49.7555 94.5731 49.2394 93.1496 48.332C91.7196 47.4246 90.9422 46.2598 90.9422 44.8324ZM111.023 34.7301C110.117 34.7301 109.467 34.4714 108.948 34.0827C108.562 33.6914 108.304 33.0466 108.304 32.2692C108.304 31.3605 108.562 30.7131 108.948 30.3218C109.466 29.807 110.116 29.677 111.023 29.677H124.235C125.14 29.677 125.791 29.9357 126.179 30.3218C126.697 30.7131 126.956 31.4866 126.956 32.2692C126.956 33.0466 126.699 33.6914 126.179 34.0827C125.791 34.4714 125.14 34.7301 124.235 34.7301H120.741V46.5159C120.741 47.4246 120.478 48.202 119.962 48.7207C119.446 49.1081 118.666 49.3668 117.63 49.3668C116.594 49.3668 115.816 49.1081 115.296 48.5894C114.782 48.0746 114.522 47.4246 114.522 46.3885V34.7288H111.023V34.7301ZM130.844 47.682L131.23 46.5159H137.447L137.97 47.682C138.097 48.332 138.487 48.7207 138.873 48.9781C139.391 49.3668 139.911 49.4968 140.559 49.4968C141.464 49.4968 142.113 49.2381 142.634 48.7194C143.149 48.3307 143.41 47.6807 143.41 46.7746C143.41 46.6459 143.41 46.3872 143.279 46.1285C143.279 45.9959 143.279 45.7385 143.149 45.6111L138.354 32.2679C137.97 31.1031 137.578 30.3205 137.061 29.9344C136.672 29.5457 136.025 29.417 135.247 29.417H133.434C132.654 29.417 132.008 29.547 131.489 30.0644C131.1 30.4544 130.583 31.2292 130.323 32.2679L125.53 45.6111C125.53 45.7398 125.4 45.8672 125.4 46.1285V46.7746C125.4 47.5507 125.66 48.3307 126.177 48.7194C126.696 49.2368 127.345 49.4968 128.122 49.4968C128.772 49.4968 129.418 49.3655 129.804 48.9781C130.323 48.7207 130.584 48.332 130.844 47.682ZM132.399 42.4989L134.34 35.7649L136.284 42.4989H132.399ZM146.388 46.2598C146.388 45.4811 146.777 44.8324 147.297 44.1863C147.813 43.6676 148.589 43.4076 149.368 43.4076C150.145 43.4076 150.79 43.6663 151.44 44.1863C151.958 44.8324 152.219 45.4811 152.219 46.2598C152.219 47.0372 151.959 47.6833 151.44 48.3333C150.79 48.8494 150.145 49.1094 149.368 49.1094C148.589 49.1094 147.815 48.8507 147.297 48.3333C146.777 47.682 146.388 47.0359 146.388 46.2598ZM159.342 29.677H168.54C169.318 29.677 170.094 29.807 170.483 30.3218C171.003 30.7131 171.263 31.2305 171.263 32.0092C171.263 32.7853 171.004 33.3053 170.483 33.6914C170.094 34.0827 169.449 34.3388 168.54 34.3388H161.931V36.9323H167.247C168.153 36.9323 168.802 37.0623 169.188 37.4484C169.577 37.8371 169.705 38.3545 169.705 39.1319C169.705 39.9119 169.575 40.428 169.188 40.8154C168.67 41.2067 168.153 41.3354 167.374 41.3354H161.93V44.4463H168.932C169.705 44.4463 170.481 44.5737 170.87 45.0911C171.387 45.4811 171.651 45.9972 171.651 46.9059C171.651 47.5507 171.389 48.2007 170.87 48.5894C170.481 48.9781 169.834 49.1068 168.932 49.1068H159.34C158.046 49.1068 157.011 48.8481 156.492 48.3307C155.976 47.812 155.589 46.9046 155.589 45.6098V33.3027C155.589 31.8753 155.976 30.9692 156.492 30.4531C157.012 29.9357 158.047 29.677 159.342 29.677ZM178.257 29.677H187.327C188.233 29.677 189.008 29.807 189.396 30.3218C189.911 30.7131 190.176 31.2305 190.176 32.0092C190.176 32.7853 189.912 33.3053 189.396 33.6914C189.008 34.0827 188.363 34.3388 187.457 34.3388H180.848V36.9323H186.159C187.068 36.9323 187.713 37.0623 188.102 37.4484C188.492 37.8371 188.62 38.3545 188.62 39.1319C188.62 39.9119 188.49 40.428 188.102 40.8154C187.585 41.2067 187.068 41.3354 186.288 41.3354H180.846V44.4463H187.712C188.619 44.4463 189.268 44.5737 189.785 45.0911C190.304 45.4811 190.561 45.9972 190.561 46.9059C190.561 47.5507 190.305 48.2007 189.785 48.5894C189.395 48.9781 188.748 49.1068 187.839 49.1068H178.257C176.962 49.1068 175.926 48.8481 175.407 48.3307C174.758 47.812 174.5 46.9046 174.5 45.6098V33.3027C174.5 31.8753 174.758 30.9692 175.407 30.4531C175.927 29.9357 176.962 29.677 178.257 29.677Z" fill="white"/>
</svg>
