<svg xmlns="http://www.w3.org/2000/svg" width="1000" height="500" viewBox="0 0 1000 500">
  <g fill="#FFF" transform="translate(100 163)">
    <path d="M48.2758621 76.3906817C75.3752535 76.3906817 94.7670386 62.9663778 94.7670386 36.0378634 94.8478702 12.3855185 78.7018256 0 52.2515213 0L.892494929 0 .892494929 15.0224353 11.1156187 15.5817813 11.1156187 111.38976C11.1156187 114.905649 9.00608519 116.024341 5.92292089 116.343967L0 116.903313 0 131.206589 50.3042596 131.206589 50.3042596 116.184154 33.1034483 115.624808 33.1034483 76.3906817 48.2758621 76.3906817zM30.1014199 64.404696L33.1034483 56.5738521 33.1034483 27.0883275C33.1034483 20.5359887 41.3793103 14.8626222 52.0081136 14.8626222 61.9066937 14.8626222 70.9127789 19.6570164 70.9127789 38.5149671 70.9127789 50.820579 65.4766734 63.2060975 49.5740365 63.2060975 46.0040568 63.2060975 42.4340771 62.6467515 38.9452333 61.7677792L30.1014199 64.404696zM276.754564 118.741164L267.099391 118.741164 267.099391 13.584117 236.348884 13.584117 236.348884 26.8486078 242.352941 27.1682341C245.192698 27.4079538 246.653144 29.5654312 246.653144 32.0425349L246.653144 132.005655 283.1643 132.005655C279.026369 126.252382 277.890467 124.814064 276.754564 118.741164zM355.862069 102.200504L355.862069 46.905157 325.35497 46.905157C310.263692 46.905157 298.904665 48.6631016 291.359026 57.2131047 283.813387 65.7631078 280 77.7490934 280 93.091155 280 105.7963 282.839757 115.864528 288.438134 123.215932 294.036511 130.567337 302.718053 132.005655 314.401623 132.005655 324.381339 132.005655 332.251521 130.167804 337.931034 122.017334L338.41785 122.177147 338.41785 132.005655 355.943205 132.005655 355.862069 102.200504 355.862069 102.200504zM335.983773 105.077141C335.983773 108.912656 334.361055 112.348639 331.196755 115.305182 327.951318 118.341631 323.894523 118.741164 318.864097 118.741164 306.93712 118.741164 301.014199 110.670601 301.014199 92.3719958 301.014199 82.3037679 302.718053 74.2332043 306.206897 68.1603049 309.614604 62.0874055 315.212982 60.0897412 322.839757 60.0897412 328.438134 60.0897412 332.900609 59.7701149 336.064909 61.2084332L335.983773 105.077141zM163.56998 102.200504L163.56998 46.905157 133.06288 46.905157C117.971602 46.905157 106.612576 48.6631016 99.0669371 57.2131047 91.5212982 65.7631078 87.7079108 77.7490934 87.7079108 93.091155 87.7079108 105.7963 90.5476673 115.864528 96.1460446 123.215932 101.744422 130.567337 110.425963 132.005655 122.109533 132.005655 132.089249 132.005655 139.959432 130.167804 145.638945 122.017334L146.125761 122.177147 146.125761 132.005655 163.651116 132.005655 163.56998 102.200504 163.56998 102.200504zM143.691684 105.077141C143.691684 108.912656 142.068966 112.348639 138.904665 115.305182 135.740365 118.341631 131.602434 118.741164 126.572008 118.741164 114.64503 118.741164 108.72211 110.670601 108.72211 92.3719958 108.72211 82.3037679 110.425963 74.2332043 113.914807 68.1603049 117.322515 62.0874055 122.920892 60.0897412 130.547667 60.0897412 136.146045 60.0897412 140.527383 59.7701149 143.772819 61.2084332L143.691684 105.077141zM216.389452 60.8089004C213.630832 59.7701149 210.30426 60.0897412 206.409736 60.0897412 202.515213 60.0897412 199.432049 59.8500215 197.079108 61.5280595 194.726166 63.2060975 193.590264 64.6444158 193.590264 67.201426 193.509128 69.2789969 193.914807 71.2766611 194.888438 73.1145123 195.862069 74.6327371 197.322515 75.9112422 198.945233 76.7902145 202.271805 78.3883459 205.679513 79.6668511 209.249493 80.6257299 213.225152 81.6645153 216.227181 82.5434876 218.174442 83.1827402 220.689655 84.0617125 223.123732 85.1004979 225.476673 86.2990964 227.991886 87.4177884 230.182556 89.0159198 232.048682 91.0135841 236.024341 95.1687258 235.862069 100.522466 235.862069 107.074805 235.862069 115.544901 234.969574 122.177147 228.72211 126.971541 222.474645 131.765935 214.523327 131.925748 204.94929 131.925748 190.993915 131.925748 180.446247 132.405188 173.306288 128.889299L173.306288 105.396767 188.803245 104.198168 188.803245 112.348639C188.803245 117.302846 193.590264 118.741164 203.245436 118.741164 212.900609 118.741164 217.687627 116.343967 217.687627 109.472002 217.768763 107.154711 216.876268 104.997234 215.172414 103.399103 213.793103 102.040691 212.170385 100.921999 210.30426 100.20284 208.681542 99.6434938 206.73428 99.0841478 204.543611 98.5248018 202.352941 97.9654558 200.162272 97.3262032 198.052738 96.8467638 195.699797 96.2075112 193.427992 95.4883521 191.156187 94.5294732 188.31643 93.4107812 185.557809 91.972463 182.96146 90.3743316 177.119675 86.6187227 174.198783 80.3860102 174.198783 71.676194 174.198783 62.9663778 177.363083 56.1743193 183.610548 51.4598316 189.939148 46.7453439 197.809331 46.905157 207.383367 46.905157 216.957404 46.905157 226.450304 46.6654373 235.780933 51.1402053L235.780933 71.4364743 220.283976 72.6350728 220.283976 65.523388C220.365112 62.6467515 219.066937 61.8476858 216.389452 60.8089004zM659.310345 60.8089004C656.551724 59.7701149 653.225152 60.0897412 649.330629 60.0897412 645.436105 60.0897412 642.352941 59.8500215 640 61.5280595 637.647059 63.2060975 636.511156 64.6444158 636.511156 67.201426 636.43002 69.2789969 636.8357 71.2766611 637.809331 73.1145123 638.782961 74.6327371 640.243408 75.9112422 641.866126 76.7902145 645.192698 78.3883459 648.600406 79.6668511 652.170385 80.6257299 656.146045 81.6645153 659.148073 82.5434876 661.095335 83.1827402 663.610548 84.0617125 666.044625 85.1004979 668.397566 86.2990964 670.912779 87.4177884 673.103448 89.0958264 675.05071 91.0135841 679.026369 95.1687258 678.864097 100.522466 678.864097 107.074805 678.864097 115.544901 677.971602 122.177147 671.724138 126.971541 665.476673 131.765935 657.525355 132.005655 647.951318 132.005655 633.995943 132.005655 623.448276 132.485094 616.308316 128.969205L616.308316 105.476673 631.805274 104.278075 631.805274 112.428545C631.805274 117.382752 636.592292 118.821071 646.247465 118.821071 655.902637 118.821071 660.689655 116.423874 660.689655 109.551909 660.770791 107.234618 659.878296 105.077141 658.174442 103.479009 656.795132 102.120597 655.172414 101.001905 653.306288 100.282746 651.68357 99.7234003 649.736308 99.1640543 647.545639 98.6047083 645.35497 98.0453623 643.1643 97.4061098 641.054767 96.9266704 638.701826 96.2874178 636.43002 95.4883521 634.158215 94.6093798 631.318458 93.4906878 628.559838 92.0523695 626.044625 90.4542381 620.20284 86.6986293 617.281947 80.4659168 617.281947 71.7561006 617.281947 63.0462843 620.446247 56.2542258 626.693712 51.5397382 633.022312 46.8252505 640.892495 46.9850636 650.466531 46.9850636 660.040568 46.9850636 669.533469 46.7453439 678.864097 51.2201119L678.864097 71.5163808 663.36714 72.7149794 663.36714 65.523388C663.204868 62.6467515 661.906694 61.7677792 659.310345 60.8089004zM754.969574 118.741164L742.068966 118.741164 742.068966 13.584117 711.318458 13.584117 711.318458 26.7687012 717.322515 27.0883275C720.162272 27.3280472 721.622718 29.4855246 721.622718 31.9626283L721.622718 131.925748 759.756592 131.925748C755.618661 126.252382 756.105477 124.814064 754.969574 118.741164z"/>
    <path d="M792.778905 118.821071C788.965517 118.821071 786.125761 117.862192 784.259635 115.864528 782.393509 113.866863 781.501014 110.430881 781.501014 105.476673L781.501014 60.0897412 800 60.0897412 800 46.905157 781.501014 46.9850636 781.501014 26.7687012 770.30426 26.7687012C768.032454 32.8416006 765.517241 39.5537525 762.758621 42.9098285 760 46.2659045 755.943205 46.4257176 750.588235 46.905157L748.884381 46.905157 748.884381 60.0897412 761.054767 60.0897412 761.054767 106.036019C761.054767 131.925748 766.3286 131.925748 787.667343 131.925748L800 131.925748 800 118.741164 792.778905 118.741164 792.778905 118.821071zM688.600406 121.85752C688.600406 116.26406 693.225152 111.709386 698.904665 111.709386 704.584178 111.709386 709.208925 116.26406 709.208925 121.85752 709.208925 127.45098 704.584178 132.005655 698.904665 132.005655L698.904665 132.005655C693.144016 132.005655 688.600406 127.45098 688.600406 121.85752zM407.626775 46.905157L407.626775 60.1696478 413.144016 60.1696478C414.361055 60.1696478 415.578093 60.6490872 416.470588 61.4481529 417.119675 62.1673121 417.444219 64.404696 417.444219 66.1626406L417.444219 101.880878C417.525355 106.355646 415.740365 110.590694 412.576065 113.70705 409.330629 116.98322 405.030426 118.581351 399.59432 118.581351 394.158215 118.581351 390.669371 117.063126 388.965517 114.026677 387.261663 110.990227 386.369168 106.435552 386.369168 100.522466L386.369168 46.905157 365.922921 46.905157 365.922921 104.917327C365.922921 124.414531 374.766734 132.005655 392.535497 132.005655 404.787018 132.005655 414.036511 129.768271 420.365112 120.978548L420.365112 132.005655 437.890467 132.005655 437.890467 46.905157 407.626775 46.905157zM522.920892 104.437888L522.920892 78.0687197C522.839757 75.591616 523.002028 73.1145123 523.245436 70.7173151 524.219067 62.0074989 526.085193 55.3752535 532.332657 50.6607659 535.010142 48.6631016 536.308316 47.5444096 539.553753 46.905157L492.332657 46.905157C477.241379 46.905157 465.882353 48.6631016 458.336714 57.2131047 450.791075 65.7631078 446.977688 77.7490934 446.977688 93.091155 446.977688 105.876206 449.817444 115.864528 455.415822 123.215932 461.014199 130.567337 469.69574 132.005655 481.37931 132.005655 490.628803 132.005655 498.093306 130.407524 503.691684 123.615465L503.691684 132.325281C503.691684 146.069211 499.716024 156.377159 484.462475 156.377159 479.432049 156.377159 475.780933 155.89772 472.697769 154.779028 469.69574 153.660336 468.884381 151.982298 468.884381 148.865941L468.884381 141.035097 453.144016 142.313603 453.144016 165.007069C460.121704 168.443051 473.914807 170.440715 484.381339 170.440715 509.290061 170.440715 520.730223 159.333702 522.758621 135.281824 522.839757 134.163132 522.920892 133.124347 523.002028 132.005655L522.920892 104.437888zM502.96146 105.077141C502.96146 108.912656 501.338742 112.348639 498.174442 115.305182 494.929006 118.261725 490.872211 118.741164 485.841785 118.741164 473.914807 118.741164 467.991886 110.670601 467.991886 92.3719958 467.991886 82.3037679 469.69574 74.2332043 473.103448 68.1603049 476.511156 62.0874055 482.109533 60.0897412 489.736308 60.0897412 495.334686 60.0897412 499.716024 59.7701149 502.96146 61.2084332L502.96146 105.077141z"/>
    <path d="M572.170385,44.1883336 C584.908722,44.1883336 610.628803,48.1037556 610.628803,87.1780687 C610.628803,119.77995 592.129817,134.802385 569.411765,134.802385 C546.288032,134.802385 531.115619,120.179482 531.115619,89.4154527 C531.115619,54.0168418 554.401623,44.1883336 572.170385,44.1883336 Z M589.614604,89.8948921 C589.614604,70.8771283 584.989858,59.1308624 571.196755,59.1308624 C557.565923,59.1308624 552.048682,70.7173151 552.048682,87.0182556 C552.048682,102.839757 554.320487,119.859856 570.872211,119.859856 C584.259635,119.77995 589.614604,107.554244 589.614604,89.8948921 L589.614604,89.8948921 Z"/>
  </g>
</svg>
