<svg width="244" height="90" viewBox="0 0 244 90" fill="none" xmlns="http://www.w3.org/2000/svg">
<path d="M35.848 48.4649C42.5755 48.4649 47.428 45.0449 47.428 38.3174C47.428 32.3606 43.4586 29.1637 36.8418 29.1637H24.0468V32.9137L26.5855 33.0243V57.1781C26.5855 58.0612 26.0343 58.3912 25.2618 58.3912L23.8274 58.5018V62.1412H36.2886V58.3912L31.9874 58.2787V48.3524H35.8499V48.4649H35.848ZM31.3255 45.4856L31.9874 43.5018V36.1124C31.9874 34.4587 34.0818 33.0243 36.7311 33.0243C39.1574 33.0243 41.473 34.2374 41.473 38.9793C41.473 42.0674 40.1474 45.1537 36.178 45.1537C35.4074 45.1537 34.4136 45.0431 33.5305 44.8237L31.3255 45.4856Z" fill="white"/>
<path d="M92.5386 59.1636H90.1142V32.6924H82.5017V36.0018L84.0448 36.1124C84.7067 36.223 85.1492 36.6636 85.1492 37.3255V56.518V58.393V62.5818H94.1923C93.088 61.1493 92.7617 60.7068 92.5386 59.1636Z" fill="white"/>
<path d="M112.17 54.9712V41.0737C108.973 41.0737 106.986 41.0737 104.561 41.0737C100.811 41.0737 97.9425 41.5144 96.0694 43.7212C94.1925 45.9281 93.1987 48.9056 93.1987 52.7662C93.1987 55.9631 93.8625 58.5019 95.2969 60.3769C96.7312 62.2537 98.8256 62.5819 101.692 62.5819C104.119 62.5819 106.104 62.1431 107.537 60.045H107.649V62.4712H111.951V57.8381V54.9712H112.17ZM107.209 55.7437C107.209 56.7356 106.77 57.6206 105.997 58.2806C105.225 59.0531 104.231 59.1637 102.909 59.1637C99.9318 59.1637 98.4975 57.0694 98.4975 52.5469C98.4975 50.01 98.9362 48.0262 99.8194 46.4794C100.704 44.9362 102.028 44.385 104.012 44.385C105.446 44.385 106.549 44.2744 107.319 44.7169V55.7456H107.209V55.7437Z" fill="white"/>
<path d="M64.4134 54.9712V41.0737C61.2165 41.0737 59.229 41.0737 56.8046 41.0737C53.0546 41.0737 50.1859 41.5144 48.3128 43.7212C46.4359 45.9281 45.4421 48.9056 45.4421 52.7662C45.4421 55.9631 46.1059 58.5019 47.5403 60.3769C48.9746 62.2537 51.069 62.5819 53.9359 62.5819C56.3621 62.5819 58.3478 62.1431 59.7803 60.045H59.8928V62.4712H64.4134V57.8381V54.9712ZM59.4503 55.7437C59.4503 56.7356 59.0096 57.6206 58.239 58.2806C57.4665 59.0531 56.4728 59.1637 55.149 59.1637C52.1734 59.1637 50.7371 57.0694 50.7371 52.5469C50.7371 50.01 51.1778 48.0262 52.0609 46.4794C52.944 44.9362 54.2696 44.385 56.2515 44.385C57.6878 44.385 58.7903 44.2744 59.5609 44.7169V55.7456H59.4503V55.7437Z" fill="white"/>
<path d="M77.5386 44.6062C76.8748 44.3849 75.9936 44.3849 75.1123 44.3849C74.1186 44.3849 73.3442 44.2743 72.7948 44.7168C72.2417 45.1556 71.9117 45.4874 71.9117 46.1512C71.9117 46.8131 72.0242 47.2537 72.2417 47.6943C72.4648 48.0281 72.7948 48.3581 73.2355 48.5774C73.8992 48.9112 74.7805 49.2412 75.7742 49.5712C76.7661 49.7906 77.5386 50.0118 77.9773 50.2312C78.4217 50.3437 79.0836 50.6737 79.7455 51.0018C80.5161 51.3356 81.0673 51.7781 81.3992 52.2168C82.3911 53.3212 82.3911 54.6431 82.3911 56.2987C82.3911 58.3949 82.1717 60.1574 80.6267 61.2618C79.0836 62.4731 77.098 62.4731 74.6698 62.4731C71.2536 62.4731 68.6042 62.5837 66.8398 61.7024V55.7437L70.7023 55.4118V57.5081C70.7023 58.7193 71.9136 59.1618 74.2311 59.1618C76.6555 59.1618 77.7598 58.6106 77.7598 56.8443C77.7598 56.1843 77.5405 55.7437 77.098 55.3031C76.6555 54.8606 76.3255 54.6393 75.8867 54.5306C75.4423 54.4218 75.0017 54.1987 74.4505 54.0899C73.8992 53.9812 73.3442 53.7599 72.7948 53.6493C72.2417 53.5387 71.6923 53.3193 71.1411 53.0981C70.5898 52.8787 69.8173 52.5468 69.1555 52.1062C67.7192 51.1143 66.9486 49.5693 66.9486 47.3643C66.9486 45.1574 67.7192 43.5037 69.2661 42.2906C70.8055 41.0774 72.793 41.1881 75.2211 41.1881C77.6473 41.1881 79.963 41.0774 82.2805 42.2906V47.3643L78.4198 47.6943V45.7106C78.5323 45.0449 78.2005 44.8256 77.5386 44.6062Z" fill="white"/>
<path d="M187.389 44.6062C186.729 44.3849 185.848 44.3849 184.965 44.3849C183.973 44.3849 183.202 44.2743 182.649 44.7168C182.098 45.1556 181.768 45.4874 181.768 46.1512C181.768 46.8131 181.878 47.2537 182.098 47.6943C182.319 48.0281 182.649 48.3581 183.09 48.5774C183.753 48.9112 184.635 49.2412 185.628 49.5712C186.618 49.7906 187.389 50.0118 187.835 50.2312C188.276 50.3437 188.936 50.6737 189.598 51.0018C190.37 51.3356 190.92 51.7781 191.252 52.2168C192.247 53.3212 192.247 54.6431 192.247 56.2987C192.247 58.3949 192.022 60.1574 190.481 61.2618C188.936 62.4731 186.952 62.4731 184.526 62.4731C181.106 62.4731 178.458 62.5837 176.692 61.7024V55.7437L180.555 55.4118V57.5081C180.555 58.7193 181.768 59.1618 184.083 59.1618C186.399 59.1618 187.616 58.6106 187.616 56.8443C187.616 56.1843 187.391 55.7437 186.952 55.3031C186.512 54.8606 186.18 54.6393 185.739 54.5306C185.298 54.4218 184.854 54.1987 184.303 54.0899C183.753 53.9793 183.202 53.7599 182.649 53.6493C182.098 53.5387 181.547 53.3193 180.995 53.0981C180.332 52.8787 179.67 52.5468 179.01 52.1062C177.573 51.1143 176.803 49.5693 176.803 47.3643C176.803 45.1574 177.573 43.5037 179.118 42.2906C180.663 41.0774 182.647 41.1881 185.073 41.1881C187.5 41.1881 189.817 41.0774 192.133 42.2906V47.3643L188.274 47.6943V45.7106C188.387 45.0449 188.053 44.8256 187.389 44.6062Z" fill="white"/>
<path d="M211.215 59.1636H208.016V32.6924H200.404V36.0018L201.949 36.1124C202.61 36.223 203.053 36.6636 203.053 37.3255V56.518V58.393V62.5818H212.54C211.327 61.0405 211.44 60.7068 211.215 59.1636Z" fill="white"/>
<path d="M220.59 59.1637C219.598 59.1637 218.934 58.9443 218.495 58.3931C218.055 57.84 217.832 57.0693 217.832 55.7456V44.385H222.465V41.0756H217.832V36.0018H215.073C214.524 37.5468 213.862 39.1987 213.2 40.0856C212.538 40.9668 211.547 40.9668 210.223 41.0756H209.78V44.385H212.76V55.965C212.76 62.4731 214.082 62.4731 219.377 62.4731C220.811 62.4731 221.139 62.4731 222.463 62.4731V59.1637C221.364 59.1637 221.364 59.1637 220.59 59.1637Z" fill="white"/>
<path d="M194.67 59.9362C194.67 58.5018 195.773 57.3975 197.209 57.3975C198.643 57.3975 199.746 58.5018 199.746 59.9362C199.746 61.3706 198.643 62.4731 197.209 62.4731C195.885 62.5818 194.67 61.3687 194.67 59.9362Z" fill="white"/>
<path d="M124.965 41.0756V44.385H126.289C126.729 44.385 126.951 44.4956 127.172 44.7169C127.281 44.9381 127.391 45.4875 127.391 45.93V54.9731C127.391 56.1862 126.951 57.18 126.18 57.9506C125.408 58.8337 124.303 59.1637 122.981 59.1637C121.659 59.1637 120.774 58.8319 120.334 58.0612C119.893 57.2887 119.67 56.1862 119.67 54.6412V41.0756H114.598V45.8194V48.9075V55.7437C114.598 60.705 116.803 62.58 121.215 62.58C124.301 62.58 126.508 62.0287 128.164 59.8237V62.58H132.463V57.8381V52.9875V41.0737H124.965V41.0756Z" fill="white"/>
<path d="M153.641 55.6312V55.0856V49.0162C153.641 48.4649 153.641 47.8031 153.754 47.1431C153.973 44.9362 154.418 43.2824 155.959 42.0693C156.621 41.5181 156.953 41.2968 157.723 41.0756H153.641C153.309 41.0756 153.092 41.0756 152.758 41.0756C150 41.0756 148.238 41.0756 146.031 41.0756C142.279 41.0756 139.414 41.5162 137.539 43.7231C135.662 45.9299 134.672 48.9074 134.672 52.7681C134.672 55.9649 135.334 58.5037 136.766 60.3787C138.201 62.2556 140.295 62.5837 143.162 62.5837C145.477 62.5837 147.354 62.1449 148.678 60.4912V61.8112V62.6962C148.678 66.1124 147.686 68.7599 143.936 68.7599C142.723 68.7599 141.84 68.6493 140.957 68.3212C140.186 67.9893 139.965 67.6593 139.965 66.8887V64.9012L136.104 65.2312V70.9687C137.869 71.8499 141.289 72.2906 143.826 72.2906C150 72.2906 152.869 69.5306 153.309 63.4668C153.309 63.2474 153.309 62.9156 153.309 62.5837L153.641 55.6312ZM148.68 55.7437C148.68 56.7356 148.239 57.6206 147.467 58.2806C146.694 59.0531 145.703 59.1637 144.379 59.1637C141.401 59.1637 139.967 57.0693 139.967 52.5468C139.967 50.0099 140.408 48.0262 141.291 46.4793C142.174 44.9362 143.496 44.3849 145.479 44.3849C146.914 44.3849 148.016 44.2743 148.789 44.7168V55.7456H148.68V55.7437Z" fill="white"/>
<path d="M165.774 40.4119C168.973 40.4119 175.371 41.4037 175.371 51.2231C175.371 59.4919 170.737 63.2437 165.112 63.2437C159.375 63.2437 155.625 59.6044 155.625 51.7744C155.627 42.84 161.364 40.4119 165.774 40.4119ZM170.188 51.885C170.188 47.0325 169.086 44.1619 165.555 44.1619C162.137 44.1619 160.813 47.0325 160.813 51.2231C160.813 55.1925 161.364 59.4919 165.444 59.4919C168.864 59.4919 170.188 56.4075 170.188 51.885Z" fill="white"/>
</svg>
