<svg xmlns="http://www.w3.org/2000/svg" width="1000" height="500" viewBox="0 0 1000 500">
  <path fill="#FFF" d="M78.4719101 17.5882353C78.4719101 27.1490196 70.741573 34.9058824 61.2134831 34.9058824 51.6853933 34.9058824 43.9550562 27.1490196 43.9550562 17.5882353 43.9550562 8.02745098 51.6853933.270588235 61.2134831.270588235 70.741573.270588235 78.4719101 8.02745098 78.4719101 17.5882353zM29.752809 49.1568627C23.011236 42.3921569 12.0449438 42.3921569 5.30337079 49.1568627-1.43820225 55.9215686-1.43820225 66.9254902 5.30337079 73.6901961 12.0449438 80.454902 23.011236 80.454902 29.752809 73.6901961 36.494382 66.9254902 36.494382 55.9215686 29.752809 49.1568627zM117.033708 73.6901961C123.775281 66.9254902 123.775281 55.9215686 117.033708 49.1568627 110.292135 42.3921569 99.3258427 42.3921569 92.5842697 49.1568627 88 53.7568627 86.5617978 60.2509804 88.1797753 66.1137255 89.3483146 71.6156863 88.5393258 76.0352941 85.752809 78.8313725 85.3932584 79.1921569 85.4831461 79.8235294 85.9325843 80.2745098 86.3820225 80.7254902 87.011236 80.8156863 87.3707865 80.454902 90.0674157 77.7490196 94.3820225 76.9372549 99.5955056 77.9294118 105.617978 79.8235294 112.359551 78.3803922 117.033708 73.6901961zM48.988764 92.9921569C42.247191 99.7568627 42.247191 110.760784 48.988764 117.52549 55.7303371 124.290196 66.6966292 124.290196 73.4382022 117.52549 78.0224719 112.92549 79.4606742 106.431373 77.8426966 100.568627 76.6741573 95.0666667 77.4831461 90.6470588 80.2696629 87.8509804 80.6292135 87.4901961 80.5393258 86.8588235 80.0898876 86.4078431 79.6404494 85.9568627 79.011236 85.8666667 78.6516854 86.227451 75.9550562 88.9333333 71.6404494 89.745098 66.4269663 88.6627451 60.4044944 86.8588235 53.6629213 88.2117647 48.988764 92.9921569zM104.808989 87.9411765C95.2808989 87.9411765 87.5505618 95.6980392 87.5505618 105.258824 87.5505618 114.819608 95.2808989 122.576471 104.808989 122.576471 114.337079 122.576471 122.067416 114.819608 122.067416 105.258824 122.157303 95.6980392 114.426966 87.9411765 104.808989 87.9411765zM136.269663 73.6901961C143.011236 80.454902 153.977528 80.454902 160.719101 73.6901961 167.460674 66.9254902 167.460674 55.9215686 160.719101 49.1568627 153.977528 42.3921569 143.011236 42.3921569 136.269663 49.1568627 129.52809 55.9215686 129.52809 66.9254902 136.269663 73.6901961zM117.033708 29.854902C123.775281 23.0901961 123.775281 12.0862745 117.033708 5.32156863 110.292135-1.44313725 99.3258427-1.44313725 92.5842697 5.32156863 88 9.92156863 86.5617978 16.4156863 88.1797753 22.2784314 89.3483146 27.7803922 88.5393258 32.2 85.752809 34.9960784 85.3932584 35.3568627 85.4831461 35.9882353 85.9325843 36.4392157 86.3820225 36.8901961 87.011236 36.9803922 87.3707865 36.6196078 90.0674157 33.9137255 94.3820225 33.1019608 99.5955056 34.0941176 105.617978 35.9882353 112.359551 34.545098 117.033708 29.854902zM48.988764 49.1568627C42.247191 55.9215686 42.247191 66.9254902 48.988764 73.6901961 55.7303371 80.454902 66.6966292 80.454902 73.4382022 73.6901961 78.0224719 69.0901961 79.4606742 62.5960784 77.8426966 56.7333333 76.6741573 51.2313725 77.4831461 46.8117647 80.2696629 44.0156863 80.6292135 43.654902 80.5393258 43.0235294 80.0898876 42.572549 79.6404494 42.1215686 79.011236 42.0313725 78.6516854 42.3921569 75.9550562 45.0980392 71.6404494 45.9098039 66.4269663 44.9176471 60.4044944 43.0235294 53.6629213 44.4666667 48.988764 49.1568627zM632 120.592157C622.202247 120.592157 614.202247 117.345098 608.719101 111.301961 603.235955 105.168627 600.269663 96.1490196 600.269663 85.2352941L600.269663 52.4941176C600.269663 49.427451 602.786517 46.9019608 605.842697 46.9019608L613.123596 46.9019608C616.179775 46.9019608 618.696629 49.427451 618.696629 52.4941176L618.696629 84.1529412C618.696629 96.6901961 624 102.733333 634.876404 102.733333 646.202247 102.733333 651.955056 95.9686275 651.955056 82.5294118L651.955056 52.4941176C651.955056 49.427451 654.47191 46.9019608 657.52809 46.9019608L664.808989 46.9019608C667.865169 46.9019608 670.382022 49.427451 670.382022 52.4941176L670.382022 114.007843C670.382022 117.07451 667.865169 119.6 664.808989 119.6L663.011236 119.6C660.224719 119.6 657.797753 117.435294 657.52809 114.639216L657.258427 112.023529C657.168539 111.482353 656.808989 110.941176 656.269663 110.760784 656.089888 110.760784 656 110.670588 655.820225 110.670588 655.370787 110.670588 655.011236 110.85098 654.741573 111.211765 649.52809 117.254902 641.52809 120.592157 632 120.592157zM246.202247 120.411765C234.966292 120.411765 223.550562 116.803922 216.539326 111.031373 215.280899 110.039216 214.561798 108.505882 214.47191 106.882353 214.382022 105.258824 215.011236 103.72549 216.179775 102.643137L218.966292 100.027451C220.044944 99.0352941 221.393258 98.4941176 222.741573 98.4941176 223.820225 98.4941176 224.898876 98.854902 225.88764 99.4862745 231.101124 103.094118 239.011236 105.439216 246.022472 105.439216L246.741573 105.439216C253.752809 105.439216 257.617978 102.913725 257.617978 98.3137255 257.617978 93.2627451 254.47191 91.2784314 245.213483 90.4666667 245.213483 90.4666667 241.078652 90.0156863 241.078652 90.0156863 232.269663 89.2941176 225.438202 87.0392157 220.853933 83.5215686 216.269663 80.0039216 213.932584 75.0431373 213.932584 68.9098039 213.932584 55.2901961 225.707865 46 243.325843 45.8196078L244.494382 45.8196078C253.932584 45.8196078 263.550562 49.1568627 270.292135 54.8392157 271.550562 55.8313725 272.269663 57.3647059 272.269663 58.9882353 272.269663 60.6117647 271.640449 62.145098 270.47191 63.227451L267.865169 65.6627451C266.786517 66.654902 265.438202 67.1960784 264.089888 67.1960784 262.921348 67.1960784 261.842697 66.8352941 260.853933 66.1137255 255.550562 62.2352941 248.719101 60.5215686 244.674157 60.5215686L243.41573 60.5215686C241.438202 60.6117647 232.359551 61.1529412 232.359551 67.827451 232.359551 71.345098 234.337079 73.5098039 244.224719 74.3215686 244.314607 74.3215686 244.314607 74.3215686 244.404494 74.3215686 247.910112 74.772549 249.168539 74.8627451 249.348315 74.8627451 258.157303 75.4941176 264.898876 77.7490196 269.393258 81.627451 273.797753 85.4156863 276.044944 90.7372549 276.044944 97.5019608 276.044944 110.941176 264.089888 120.321569 246.921348 120.321569L246.202247 120.321569 246.202247 120.411765zM571.41573 119.509804C568.359551 119.509804 565.842697 116.984314 565.842697 113.917647L565.842697 52.4039216C565.842697 49.3372549 568.359551 46.8117647 571.41573 46.8117647L578.696629 46.8117647C581.752809 46.8117647 584.269663 49.3372549 584.269663 52.4039216L584.269663 113.917647C584.269663 116.984314 581.752809 119.509804 578.696629 119.509804L571.41573 119.509804zM450.786517 119.509804C447.730337 119.509804 445.213483 116.984314 445.213483 113.917647L445.213483 23.3607843C445.213483 20.2941176 447.730337 17.7686275 450.786517 17.7686275L458.247191 17.7686275C461.303371 17.7686275 463.820225 20.2941176 463.820225 23.3607843L463.820225 113.917647C463.820225 116.984314 461.303371 119.509804 458.247191 119.509804L450.786517 119.509804zM343.011236 119.509804C341.123596 119.509804 339.41573 118.517647 338.337079 116.984314L327.550562 100.207843C322.696629 92.8117647 320.179775 91.0980392 313.797753 91.0980392L310.202247 91.0980392C309.393258 91.0980392 308.764045 91.7294118 308.764045 92.5411765L308.764045 114.007843C308.764045 117.07451 306.247191 119.6 303.191011 119.6L295.910112 119.6C292.853933 119.6 290.337079 117.07451 290.337079 114.007843L290.337079 23.3607843C290.337079 20.2941176 292.853933 17.7686275 295.910112 17.7686275L303.191011 17.7686275C306.247191 17.7686275 308.764045 20.2941176 308.764045 23.3607843L308.764045 71.7960784C308.764045 72.6078431 309.393258 73.2392157 310.202247 73.2392157L313.258427 73.2392157C319.550562 73.2392157 322.157303 71.5254902 326.831461 64.1294118L336.449438 49.3372549C337.438202 47.8039216 339.235955 46.8117647 341.123596 46.8117647L348.224719 46.8117647C350.292135 46.8117647 352.179775 47.9843137 353.078652 49.7882353 354.067416 51.5921569 353.977528 53.7568627 352.808989 55.4705882L342.292135 71.4352941C339.775281 75.4039216 336.808989 78.8313725 334.202247 80.7254902 333.842697 80.9960784 333.573034 81.4470588 333.573034 81.9882353 333.573034 82.4392157 333.842697 82.8901961 334.202247 83.1607843 337.617978 85.4156863 340.853933 89.654902 342.921348 92.9019608L354.696629 110.85098C355.775281 112.564706 355.865169 114.729412 354.966292 116.533333 353.977528 118.337255 352.089888 119.419608 350.11236 119.419608L343.011236 119.419608 343.011236 119.509804zM575.011236 39.5058824C568.988764 39.5058824 564.314607 34.7254902 564.314607 28.6823529 564.314607 22.6392157 568.988764 17.8588235 575.011236 17.8588235 581.123596 17.8588235 585.88764 22.6392157 585.88764 28.6823529 585.88764 34.7254902 581.123596 39.5058824 575.011236 39.5058824zM553.977528 83.2509804C553.977528 61.9647059 538.876404 45.9098039 518.831461 45.9098039 512.539326 45.9098039 506.606742 47.9843137 502.11236 51.6823529 501.842697 51.8627451 501.483146 52.0431373 501.213483 52.0431373 501.033708 52.0431373 500.764045 51.9529412 500.58427 51.8627451 500.044944 51.5921569 499.775281 51.1411765 499.775281 50.5098039L499.775281 23.3607843C499.775281 20.2941176 497.258427 17.7686275 494.202247 17.7686275L486.921348 17.7686275C483.865169 17.7686275 481.348315 20.2941176 481.348315 23.3607843L481.348315 113.917647C481.348315 116.984314 483.865169 119.509804 486.921348 119.509804L488.629213 119.509804C491.505618 119.509804 493.842697 117.345098 494.202247 114.458824L494.382022 112.47451C494.47191 111.933333 494.831461 111.392157 495.370787 111.211765 495.550562 111.121569 495.730337 111.121569 495.910112 111.121569 496.269663 111.121569 496.629213 111.301961 496.898876 111.572549 502.651685 117.254902 510.47191 120.411765 518.921348 120.411765 538.876404 120.411765 553.977528 104.447059 553.977528 83.2509804zM535.640449 82.1686275C535.640449 94.7058824 526.022472 101.470588 516.94382 101.470588 507.865169 101.470588 498.247191 94.7058824 498.247191 82.1686275 498.247191 72.6078431 505.258427 62.6862745 516.94382 62.6862745 526.022472 62.7764706 535.640449 69.5411765 535.640449 82.1686275zM399.011236 120.231373C389.033708 120.231373 379.775281 116.352941 372.764045 109.317647 365.752809 102.282353 361.88764 92.9019608 361.88764 82.9803922 361.88764 72.9686275 365.752809 63.6784314 372.764045 56.6431373 379.775281 49.6078431 389.123596 45.7294118 399.011236 45.7294118 408.898876 45.7294118 418.157303 49.6078431 425.168539 56.5529412 425.168539 56.5529412 429.752809 61.1529412 429.752809 61.1529412 430.292135 61.6941176 430.382022 62.5058824 429.932584 63.0470588 428.674157 65.0313725 427.146067 67.0156863 425.348315 68.7294118L405.033708 89.1137255C403.41573 90.7372549 401.258427 91.6392157 398.921348 91.6392157 396.58427 91.6392157 394.426966 90.7372549 392.808989 89.1137255 391.191011 87.4901961 390.292135 85.3254902 390.292135 82.9803922 390.292135 80.6352941 391.191011 78.4705882 392.808989 76.8470588 392.808989 76.8470588 405.393258 64.2196078 405.393258 64.2196078 403.325843 63.4980392 401.078652 63.1372549 398.921348 63.1372549 393.617978 63.1372549 388.674157 65.2117647 384.898876 68.9098039 377.168539 76.6666667 377.168539 89.2941176 384.898876 97.0509804 388.674157 100.839216 393.617978 102.823529 398.921348 102.823529 404.224719 102.823529 409.168539 100.74902 412.94382 97.0509804L412.94382 97.0509804C414.561798 95.427451 416.808989 94.5254902 419.05618 94.5254902 421.393258 94.5254902 423.640449 95.427451 425.258427 97.1411765 426.966292 98.945098 428.58427 100.839216 429.842697 102.913725 430.202247 103.545098 430.11236 104.356863 429.662921 104.807843L425.168539 109.317647C418.247191 116.352941 408.898876 120.231373 399.011236 120.231373zM699.775281 120.592157C693.752809 120.592157 689.078652 115.811765 689.078652 109.768627 689.078652 103.72549 693.752809 98.945098 699.775281 98.945098 705.88764 98.945098 710.651685 103.72549 710.651685 109.768627 710.651685 115.811765 705.88764 120.592157 699.775281 120.592157zM770.516854 120.592157C769.078652 120.592157 767.640449 120.05098 766.561798 118.968627 765.483146 117.886275 764.94382 116.443137 764.94382 115L764.94382 66.2039216C764.94382 65.3921569 764.314607 64.7607843 763.505618 64.7607843L759.370787 64.7607843C757.932584 64.7607843 756.494382 64.2196078 755.41573 63.1372549 754.337079 62.054902 753.797753 60.6117647 753.797753 59.1686275L753.797753 52.4039216C753.797753 50.9607843 754.337079 49.5176471 755.41573 48.4352941 756.494382 47.3529412 757.932584 46.8117647 759.370787 46.8117647L763.505618 46.8117647C763.865169 46.8117647 764.224719 46.6313725 764.494382 46.3607843 764.764045 46.0901961 764.94382 45.7294118 764.94382 45.2784314L764.94382 24.2627451C764.94382 22.8196078 765.483146 21.3764706 766.561798 20.2941176 767.640449 19.2117647 769.078652 18.6705882 770.516854 18.6705882L777.977528 18.6705882C779.41573 18.6705882 780.853933 19.2117647 781.932584 20.2941176 783.011236 21.3764706 783.550562 22.8196078 783.550562 24.2627451L783.550562 45.2784314C783.550562 46.0901961 784.179775 46.7215686 784.988764 46.7215686L794.426966 46.7215686C795.865169 46.7215686 797.303371 47.2627451 798.382022 48.345098 799.460674 49.427451 800 50.8705882 800 52.3137255L800 59.0784314C800 60.5215686 799.460674 61.9647059 798.382022 63.0470588 797.303371 64.1294118 795.865169 64.6705882 794.426966 64.6705882L784.988764 64.6705882C784.179775 64.6705882 783.550562 65.3019608 783.550562 66.1137255L783.550562 114.909804C783.550562 116.352941 783.011236 117.796078 781.932584 118.878431 780.853933 119.960784 779.41573 120.501961 777.977528 120.501961L770.516854 120.501961 770.516854 120.592157zM731.595506 120.592157C730.157303 120.592157 728.719101 120.05098 727.640449 118.968627 726.561798 117.886275 726.022472 116.443137 726.022472 115L726.022472 24.4431373C726.022472 23 726.561798 21.5568627 727.640449 20.4745098 728.719101 19.3921569 730.157303 18.8509804 731.595506 18.8509804L739.05618 18.8509804C740.494382 18.8509804 741.932584 19.3921569 743.011236 20.4745098 744.089888 21.5568627 744.629213 23 744.629213 24.4431373L744.629213 115C744.629213 116.443137 744.089888 117.886275 743.011236 118.968627 741.932584 120.05098 740.494382 120.592157 739.05618 120.592157L731.595506 120.592157z" transform="translate(100 189)"/>
</svg>
