<svg width="244" height="90" viewBox="0 0 244 90" fill="none" xmlns="http://www.w3.org/2000/svg">
<path d="M32.3813 34.1419C32.3813 36.7856 30.2382 38.9288 27.5944 38.9288C24.9563 38.9288 22.8132 36.7856 22.8132 34.1419C22.8132 31.5019 24.9563 29.3588 27.5944 29.3588C30.2382 29.3588 32.3813 31.5019 32.3813 34.1419ZM18.8832 42.8569C17.0138 40.9856 13.9875 40.9856 12.12 42.8569C10.2507 44.7244 10.2507 47.7525 12.12 49.62C13.9875 51.4875 17.0138 51.4875 18.8832 49.62C20.7507 47.7544 20.7507 44.7263 18.8832 42.8569ZM43.0763 49.6219C44.9419 47.7544 44.9419 44.7263 43.0763 42.8588C41.2051 40.9875 38.1769 40.9875 36.3094 42.8588C35.0419 44.1225 34.635 45.9244 35.0869 47.5313C35.4207 49.0444 35.1938 50.2706 34.425 51.0394C34.3257 51.1388 34.3482 51.3169 34.4719 51.4425C34.5938 51.5663 34.7757 51.5888 34.8732 51.4894C35.6138 50.7488 36.8138 50.5181 38.265 50.805C39.9075 51.3169 41.7713 50.925 43.0763 49.6219ZM24.2119 54.9506C22.3444 56.8219 22.3444 59.8463 24.2119 61.7175C26.0813 63.585 29.1094 63.585 30.9788 61.7175C32.2463 60.45 32.6494 58.6481 32.2013 57.0413C31.8657 55.5281 32.0925 54.3019 32.8613 53.5331C32.9607 53.4338 32.9382 53.2556 32.8144 53.13C32.6907 53.01 32.5107 52.9875 32.415 53.0869C31.6744 53.8275 30.4725 54.0619 29.0232 53.7675C27.3807 53.2538 25.515 53.6494 24.2119 54.9506Z" fill="white" fill-opacity="0.9"/>
<path d="M39.3562 53.5519C36.7143 53.5519 34.5731 55.6913 34.5731 58.335C34.5731 60.9788 36.7143 63.1181 39.3562 63.1181C41.9981 63.1181 44.1393 60.9788 44.1393 58.335C44.1393 55.6913 41.9981 53.5519 39.3562 53.5519ZM48.0675 49.6219C49.935 51.4894 52.9631 51.4894 54.8325 49.6219C56.6981 47.7544 56.6981 44.7263 54.8325 42.8588C52.9631 40.9875 49.935 40.9875 48.0675 42.8588C46.1981 44.7263 46.1981 47.7544 48.0675 49.6219ZM42.7406 37.53C44.6062 35.6588 44.6062 32.6306 42.7406 30.7594C40.8693 28.8956 37.8412 28.8956 35.9737 30.7594C34.7062 32.0306 34.2993 33.8288 34.7512 35.4394C35.085 36.9525 34.8581 38.1788 34.0893 38.9475C33.99 39.0469 34.0125 39.2213 34.1362 39.3506C34.2581 39.4744 34.44 39.4931 34.5375 39.3975C35.2781 38.655 36.4781 38.4225 37.9293 38.7094C39.5718 39.2213 41.4356 38.8294 42.7406 37.53ZM23.8762 42.8569C22.0087 44.7244 22.0087 47.7525 23.8762 49.62C25.7456 51.4875 28.7737 51.4875 30.6431 49.62C31.9106 48.3525 32.3137 46.5544 31.8656 44.9438C31.53 43.4306 31.7568 42.2044 32.5256 41.4394C32.625 41.3363 32.6025 41.1581 32.4787 41.0325C32.355 40.9125 32.175 40.8863 32.0793 40.9856C31.3387 41.7281 30.1368 41.9625 28.6875 41.6738C27.045 41.1581 25.1793 41.5538 23.8762 42.8569ZM185.411 62.5669C182.706 62.5669 180.474 61.6838 178.959 60.0075C177.433 58.3238 176.627 55.8356 176.627 52.8188V43.7663C176.627 42.9169 177.315 42.2288 178.164 42.2288H180.184C181.033 42.2288 181.719 42.9169 181.719 43.7663V52.5C181.719 55.9538 183.189 57.6338 186.212 57.6338C189.352 57.6338 190.944 55.755 190.944 52.0519V43.7644C190.944 42.915 191.632 42.2269 192.484 42.2269H194.501C195.349 42.2269 196.037 42.915 196.037 43.7644V60.7463C196.037 61.5956 195.349 62.2875 194.501 62.2875H193.999C193.219 62.2875 192.559 61.6988 192.472 60.9244L192.388 60.1913C192.369 60.03 192.259 59.8988 192.103 59.85C192.064 59.8388 192.026 59.8313 191.987 59.8313C191.867 59.8313 191.756 59.8819 191.677 59.9775C190.266 61.6481 188.04 62.5669 185.411 62.5669ZM78.5175 62.5275C75.3956 62.5275 72.2418 61.5356 70.2862 59.9269C69.945 59.6494 69.7406 59.2388 69.7256 58.7925C69.7106 58.3538 69.885 57.9281 70.2056 57.6206L70.9706 56.8988C71.2631 56.6213 71.6437 56.4806 72.0243 56.4806C72.3281 56.4806 72.6318 56.5688 72.8962 56.7525C74.3493 57.7481 76.5393 58.3969 78.4743 58.3969H78.675C80.6156 58.3969 81.6843 57.6975 81.6843 56.43C81.6843 55.0425 80.8162 54.4931 78.2493 54.2663C78.2381 54.2663 77.0906 54.1463 77.0906 54.1463C74.6456 53.9344 72.7593 53.3325 71.49 52.3519C70.215 51.3713 69.5681 50.0156 69.5681 48.33C69.5681 44.5575 72.8418 41.9944 77.7168 41.9475H78.0375C80.64 41.9475 83.31 42.8813 85.1756 44.4375C85.515 44.7188 85.7156 45.1369 85.7268 45.5756C85.7381 46.0181 85.56 46.4438 85.2356 46.7438L84.5062 47.4206C84.2175 47.6944 83.8387 47.8313 83.4581 47.8313C83.1468 47.8313 82.8318 47.7356 82.5618 47.5425C81.0862 46.485 79.1981 46.0013 78.0731 46.0013H77.7356C77.1881 46.0163 74.6625 46.1813 74.6625 48.0075C74.6625 48.9788 75.2006 49.5863 77.9568 49.8094C77.9756 49.8094 77.9943 49.8131 78.0093 49.8169C78.9843 49.9313 79.3181 49.9669 79.3818 49.9744C81.8212 50.1506 83.6887 50.7769 84.9337 51.8381C86.1562 52.8863 86.775 54.3619 86.775 56.2331C86.775 59.94 83.4581 62.5275 78.7106 62.5275H78.5175ZM168.615 62.2894C167.767 62.2894 167.079 61.5975 167.079 60.7481V43.7663C167.079 42.9169 167.767 42.2288 168.615 42.2288H170.636C171.484 42.2288 172.174 42.9169 172.174 43.7663V60.7481C172.174 61.5975 171.484 62.2894 170.636 62.2894H168.615ZM135.204 62.2894C134.351 62.2894 133.665 61.5975 133.665 60.7481V35.7413C133.665 34.8919 134.351 34.2038 135.204 34.2038H137.261C138.112 34.2038 138.801 34.8919 138.801 35.7413V60.7463C138.801 61.5956 138.112 62.2875 137.261 62.2875H135.204V62.2894ZM105.347 62.2894C104.826 62.2894 104.34 62.0213 104.057 61.5863L101.059 56.9531C99.7181 54.8981 99.0056 54.4256 97.2487 54.4256H96.2493C96.0262 54.4256 95.8462 54.6056 95.8462 54.8288V60.7463C95.8462 61.5956 95.1581 62.2875 94.3087 62.2875H92.2875C91.4381 62.2875 90.75 61.5956 90.75 60.7463V35.7413C90.75 34.8919 91.4381 34.2038 92.2875 34.2038H94.3087C95.1581 34.2038 95.8462 34.8919 95.8462 35.7413V49.1269C95.8462 49.3463 96.0262 49.53 96.2493 49.53H97.0875C98.8425 49.53 99.5475 49.0575 100.86 47.0025L103.534 42.9225C103.817 42.4875 104.299 42.2269 104.82 42.2269H106.779C107.349 42.2269 107.867 42.5381 108.135 43.0369C108.407 43.5394 108.379 44.1431 108.066 44.6156L105.144 49.0219C104.454 50.1056 103.62 51.0656 102.913 51.5813C102.806 51.6619 102.746 51.7819 102.75 51.9188C102.754 52.0556 102.821 52.1756 102.932 52.2488C103.871 52.86 104.767 54.0544 105.354 54.9469L108.607 59.9063C108.915 60.3825 108.943 60.9825 108.673 61.4813C108.405 61.98 107.886 62.2913 107.319 62.2913H105.347V62.2894ZM169.607 40.185C167.942 40.185 166.641 38.8706 166.641 37.1925C166.641 35.5181 167.942 34.2038 169.607 34.2038C171.294 34.2038 172.614 35.5181 172.614 37.1925C172.612 38.8688 171.294 40.185 169.607 40.185ZM163.791 52.2581C163.791 46.38 159.602 41.9456 154.042 41.9456C152.289 41.9456 150.647 42.5175 149.413 43.5469C149.34 43.6088 149.246 43.6425 149.152 43.6425C149.094 43.6425 149.032 43.6275 148.98 43.605C148.841 43.5394 148.746 43.3931 148.746 43.2356V35.7431C148.746 34.8938 148.059 34.2056 147.208 34.2056H145.191C144.341 34.2056 143.653 34.8938 143.653 35.7431V60.7481C143.653 61.5975 144.341 62.2894 145.191 62.2894H145.671C146.462 62.2894 147.12 61.6894 147.201 60.9019L147.251 60.3488C147.268 60.195 147.375 60.06 147.519 60.0075C147.562 59.9888 147.611 59.9813 147.656 59.9813C147.767 59.9813 147.862 60.0206 147.941 60.0975C149.524 61.665 151.689 62.5256 154.041 62.5256C159.602 62.5275 163.791 58.11 163.791 52.2581ZM158.696 51.9806C158.696 55.4494 156.03 57.3169 153.519 57.3169C151.011 57.3169 148.344 55.4494 148.344 51.9806C148.344 49.3369 150.279 46.605 153.519 46.605C156.032 46.6031 158.696 48.4894 158.696 51.9806ZM120.853 62.4713C118.099 62.4713 115.513 61.4025 113.572 59.4619C111.632 57.5213 110.561 54.9356 110.561 52.185C110.561 49.4306 111.632 46.845 113.572 44.9044C115.513 42.96 118.099 41.895 120.853 41.895C123.594 41.895 126.167 42.9525 128.106 44.88C128.115 44.8875 129.377 46.1513 129.377 46.1513C129.519 46.2938 129.544 46.5131 129.437 46.6819C129.079 47.2425 128.653 47.7731 128.166 48.2644L122.548 53.8819C122.094 54.3356 121.491 54.585 120.853 54.585C120.208 54.585 119.606 54.3356 119.154 53.8819C118.701 53.4281 118.451 52.8244 118.451 52.1869C118.451 51.5456 118.699 50.9456 119.147 50.4956C119.151 50.4919 122.644 46.9988 122.644 46.9988C122.068 46.8019 121.459 46.6988 120.849 46.6988C119.379 46.6988 118.001 47.2669 116.968 48.3019C114.825 50.445 114.825 53.9269 116.968 56.07C118.005 57.1069 119.383 57.6731 120.853 57.6731C122.321 57.6731 123.701 57.105 124.734 56.07C125.192 55.6238 125.792 55.3819 126.431 55.3819C127.084 55.3819 127.693 55.635 128.154 56.0963C128.638 56.5838 129.067 57.1181 129.433 57.6863C129.544 57.855 129.519 58.0781 129.377 58.2206L128.13 59.4656C126.187 61.4025 123.606 62.4713 120.853 62.4713ZM204.18 62.5706C202.513 62.5706 201.21 61.2525 201.21 59.5781C201.21 57.9 202.513 56.5894 204.18 56.5894C205.864 56.5894 207.187 57.9 207.187 59.5781C207.187 61.2525 205.866 62.5706 204.18 62.5706ZM223.787 62.5706C223.393 62.5706 222.999 62.4169 222.699 62.1169C222.399 61.8169 222.247 61.425 222.247 61.0294V47.5669C222.247 47.3475 222.066 47.1638 221.842 47.1638H220.693C220.301 47.1638 219.906 47.0138 219.606 46.71C219.307 46.41 219.156 46.0181 219.156 45.6263V43.7663C219.156 43.3706 219.307 42.9788 219.606 42.6788C219.906 42.3788 220.301 42.2288 220.693 42.2288H221.842C221.951 42.2288 222.052 42.1894 222.129 42.1125C222.204 42.0356 222.246 41.9325 222.246 41.8275V36.03C222.246 35.6344 222.397 35.2388 222.697 34.9388C222.997 34.6388 223.391 34.4888 223.785 34.4888H225.844C226.236 34.4888 226.631 34.6388 226.929 34.9388C227.231 35.2388 227.381 35.6344 227.381 36.03V41.8275C227.381 42.0469 227.561 42.2306 227.786 42.2306H230.394C230.788 42.2306 231.184 42.3806 231.484 42.6806C231.784 42.9806 231.934 43.3725 231.934 43.7681V45.6281C231.934 46.02 231.784 46.4119 231.484 46.7119C231.184 47.0156 230.788 47.1656 230.394 47.1656H227.786C227.561 47.1656 227.381 47.3494 227.381 47.5688V61.0313C227.381 61.4269 227.231 61.8188 226.929 62.1188C226.631 62.4188 226.236 62.5725 225.844 62.5725H223.787V62.5706ZM213.002 62.5706C212.61 62.5706 212.214 62.4169 211.914 62.1169C211.618 61.8169 211.466 61.425 211.466 61.0294V36.0281C211.466 35.6325 211.618 35.2369 211.914 34.9369C212.214 34.6369 212.61 34.4869 213.002 34.4869H215.062C215.456 34.4869 215.85 34.6369 216.15 34.9369C216.452 35.2369 216.6 35.6325 216.6 36.0281V61.0294C216.6 61.425 216.452 61.8169 216.15 62.1169C215.85 62.4169 215.456 62.5706 215.062 62.5706H213.002Z" fill="white" fill-opacity="0.9"/>
</svg>
