<svg xmlns="http://www.w3.org/2000/svg" xmlns:xlink="http://www.w3.org/1999/xlink" viewBox="0 0 586.43 206.35"><defs><style>.cls-1{fill:url(#linear-gradient);}.cls-2{fill:url(#linear-gradient-2);}.cls-3{fill:url(#linear-gradient-3);}</style><linearGradient id="linear-gradient" x1="-0.87" y1="4.42" x2="276.38" y2="198.42" gradientUnits="userSpaceOnUse"><stop offset="0" stop-color="#1b75bc"/><stop offset="1" stop-color="#06517f"/></linearGradient><linearGradient id="linear-gradient-2" x1="-33.82" y1="51.52" x2="243.43" y2="245.52" xlink:href="#linear-gradient"/><linearGradient id="linear-gradient-3" x1="31.61" y1="-41.99" x2="308.86" y2="152.01" xlink:href="#linear-gradient"/></defs><title>BCG_logo_ok</title><g id="Layer_2" data-name="Layer 2"><g id="Layer_3" data-name="Layer 3"><path class="cls-1" d="M181,164.77c0,29.87-19,41.56-40.77,41.56-22.34,0-41.3-12.21-41.3-41.56V42.19C99,12.84,117.65.64,141,.64c20.77,0,40,9.86,40,39.73v6.49a26.49,26.49,0,0,1-26.49,26.5h0V45.57c0-14.55-7.27-19.74-14.54-19.74S125.44,31,125.44,45.57V161.4c0,14.54,7.27,19.74,14.55,19.74s14.54-5.2,14.54-19.74V127.48A26.49,26.49,0,0,1,181,101h0Z"/><path class="cls-2" d="M61.82,100.89c14-5.46,19-16.63,19-30.13V42.1C80.78,13.27,64.67.55,44.67.55H0V164.79c0,28.83,16.11,41.56,36.11,41.56H47.27c20,0,36.1-12.73,36.1-41.56v-32C83.37,118,77.92,106.86,61.82,100.89ZM26.5,25.74H39.74c9.87,0,14.54,5.19,14.54,19.74V68.94c0,14.54-4.67,19.74-14.54,19.74H26.5ZM56.88,161.41c0,14.55-4.67,19.74-14.54,19.74H41c-9.87,0-14.54-5.19-14.54-19.74V113.87H39.74c9.87,0,17.14,5.19,17.14,19.74Z"/><path class="cls-3" d="M255,126.34h0a17.66,17.66,0,0,1-17.66-17.66v-7.53H257.3a24.23,24.23,0,0,1,24.23,24.23v39.39c0,29.87-19,41.56-42.07,41.56-23.64,0-42.6-12.21-42.6-41.56V42.19C196.86,12.84,215,.64,239.46.64c24.67,0,42.07,12.46,42.07,41.55v4.42A26.49,26.49,0,0,1,255,73.1h0V45.57c0-14.55-7.27-19.74-15.84-19.74S223.35,31,223.35,45.57V161.4c0,14.54,7.28,19.74,15.85,19.74S255,175.94,255,161.4Z"/><path d="M339,.46c6.67,0,11.14,3.18,11.14,10.15v8c0,4.62-1.51,7-4.24,8,2.88,1.14,4.55,3.18,4.55,8.11v9.16c0,7.05-4.47,10-11.14,10H328.72V.46Zm5.76,17.42V12.5c0-5.38-1.74-6.82-6-6.82H334.1v18.8h5.23C342.89,24.48,344.71,23.49,344.71,17.88ZM345,42.13v-7c0-5-2-6.29-5.46-6.29H334.1V48.72h5C343,48.72,345,47.59,345,42.13Z"/><path d="M373.36,41.91H362l-2.28,12h-5.45L364.87.38h5.68L381,53.88h-5.46Zm-.69-4.7-4.92-27-5,27Z"/><path d="M385.7,53.88V.46h5.46V48.65h12.43v5.23Z"/><path d="M415,5.68v48.2H409.5V5.68h-7.73V.46h21.07V5.68Z"/><path d="M428.29,53.88V.46h5.38V53.88Z"/><path d="M458.52,11.59c0-4.32-2.65-6.36-6-6.36s-5.91,2-5.91,6.36V42.74c0,4.32,2.65,6.36,5.91,6.36s6-2,6-6.36V40.31h5.38v2.28c0,6.89-4.69,11.74-11.36,11.74s-11.29-4.85-11.29-11.74V11.82c0-7,4.62-11.82,11.29-11.82S463.9,4.85,463.9,11.82v1.74h-5.38Z"/><path d="M345.32,87.45c0-4.32-2.65-6.37-6-6.37s-5.91,2-5.91,6.37v31.14c0,4.32,2.65,6.37,5.91,6.37s6-2,6-6.37v-2.42h5.38v2.27c0,6.9-4.7,11.75-11.37,11.75S328,125.34,328,118.44V87.68c0-7,4.63-11.82,11.29-11.82S350.7,80.7,350.7,87.68v1.74h-5.38Z"/><path d="M356.68,129.73V76.31h5.46V124.5h12.43v5.23Z"/><path d="M396.09,117.76H384.72l-2.27,12H377l10.61-53.5h5.68l10.46,53.5h-5.46Zm-.68-4.7-4.93-27-5,27Z"/><path d="M427.68,87.3h-5.3c0-4.55-2.73-6.37-5.69-6.37a5.19,5.19,0,0,0-5.53,5.46c0,2.5,1.07,4.85,3,7.65l9.39,13.57c3.34,4.85,4.48,8,4.48,11.74,0,6.52-4.48,10.91-11.14,10.91S405.4,126,405.4,118.37h5.39c0,4.85,2.8,6.66,6.13,6.66s5.69-2.27,5.69-5.91c0-2.42-.54-4.32-3.19-8.1L410.1,97.45c-2.72-4-4.24-7.8-4.24-11.06,0-6.59,4.77-10.61,10.91-10.61S427.68,79.87,427.68,87.3Z"/><path d="M453.29,87.3H448c0-4.55-2.73-6.37-5.68-6.37a5.19,5.19,0,0,0-5.53,5.46c0,2.5,1.06,4.85,3,7.65l9.4,13.57c3.33,4.85,4.47,8,4.47,11.74,0,6.52-4.47,10.91-11.14,10.91S431,126,431,118.37h5.38c0,4.85,2.8,6.66,6.14,6.66s5.68-2.27,5.68-5.91c0-2.42-.53-4.32-3.19-8.1l-9.32-13.57c-2.72-4-4.24-7.8-4.24-11.06,0-6.59,4.78-10.61,10.91-10.61S453.29,79.87,453.29,87.3Z"/><path d="M459.2,129.73V76.31h5.39v53.42Z"/><path d="M478.22,81.54V100.1h9.17v4.78h-9.17v24.85h-5.38V76.31H491.1v5.23Z"/><path d="M496.94,129.73V76.31h5.38v53.42Z"/><path d="M516,81.54V100.1h9.93v4.78H516V124.5h13.56v5.23H510.58V76.31h18.94v5.23Z"/><path d="M558.92,88.81v28.34c0,8.26-4.62,12.58-11.29,12.58H536.72V76.31h10.91C554.3,76.39,558.92,80.7,558.92,88.81ZM547,81.54H542.1v43H547c3.56,0,6.59-2,6.59-7.43V88.81C553.62,83.51,550.59,81.54,547,81.54Z"/><path d="M586.13,87.3h-5.31c0-4.55-2.72-6.37-5.68-6.37a5.19,5.19,0,0,0-5.53,5.46c0,2.5,1.06,4.85,2.95,7.65l9.4,13.57c3.33,4.85,4.47,8,4.47,11.74,0,6.52-4.47,10.91-11.14,10.91s-11.44-4.24-11.44-11.89h5.38c0,4.85,2.8,6.66,6.14,6.66s5.68-2.27,5.68-5.91c0-2.42-.53-4.32-3.18-8.1l-9.32-13.57c-2.73-4-4.25-7.8-4.25-11.06,0-6.59,4.78-10.61,10.92-10.61S586.13,79.87,586.13,87.3Z"/><path d="M350.62,194.37c0,6.9-4.62,11.67-11.29,11.67S328,201.27,328,194.37V163.53c0-7,4.63-11.82,11.29-11.82s11.22,4.77,11.29,11.67h-5.38c0-4.32-2.65-6.37-5.91-6.37s-5.91,2.05-5.91,6.29v31.22c0,4.63,3.11,6.37,5.91,6.37,3.26,0,5.91-2,5.91-6.37v-8.79h-6.06V181h11.44Z"/><path d="M357.9,152.16h10.38c6.67,0,11.29,4.1,11.29,12.05v13c0,6.59-2.8,9.78-6.82,11.22l7.05,17.2h-6c-2.05-5.23-4.09-10.61-6.21-15.84h-4.25v15.84H357.9Zm5.45,32.44h4.32c3.87,0,6.6-1.52,6.6-8.57V164.21c0-5.15-3-6.82-6.6-6.82h-4.32Z"/><path d="M386.24,194.3V163.53c0-7,4.62-11.82,11.29-11.82s11.36,4.85,11.36,11.82V194.3c0,6.89-4.7,11.74-11.36,11.74S386.24,201.19,386.24,194.3Zm17.27.15V163.3c0-4.32-2.65-6.36-6-6.36s-5.91,2-5.91,6.36v31.15c0,4.32,2.65,6.36,5.91,6.36S403.51,198.77,403.51,194.45Z"/><path d="M438.6,152.16V194.3c0,6.89-4.7,11.74-11.29,11.74s-11.37-4.85-11.37-11.74V152.16h5.38v42.36c0,4.63,3.18,6.29,6,6.29,3.18,0,5.91-2,5.91-6.29V152.16Z"/><path d="M446.47,152.16h10.39c6.67,0,11.29,4.25,11.29,12v14.7c0,7.73-4.62,11.82-11.29,11.82h-4.93v14.93h-5.46Zm5.46,33.35h4.32c3.56,0,6.59-1.82,6.59-6.75V164.14c0-5-2.95-6.75-6.59-6.75h-4.32Z"/></g></g></svg>