<svg width="114" height="40" viewBox="0 0 114 40" fill="none" xmlns="http://www.w3.org/2000/svg">
<g clip-path="url(#clip0)">
<path d="M35.0857 31.9399C35.0857 37.7301 31.4026 39.9961 27.1826 39.9961C22.8521 39.9961 19.1768 37.6293 19.1768 31.9399V8.17833C19.1903 2.48897 22.8055 0.124054 27.3318 0.124054C31.358 0.124054 35.0857 2.03537 35.0857 7.82553V9.08359C35.0859 9.75809 34.9533 10.426 34.6953 11.0492C34.4374 11.6725 34.0592 12.2388 33.5823 12.7158C33.1055 13.1928 32.5393 13.5713 31.9162 13.8294C31.2931 14.0876 30.6252 14.2205 29.9507 14.2205V8.83353C29.9507 6.01308 28.5414 5.00702 27.1322 5.00702C25.7229 5.00702 24.3156 6.0092 24.3156 8.83353V31.2866C24.3156 34.1052 25.7249 35.1132 27.1361 35.1132C28.5472 35.1132 29.9546 34.1052 29.9546 31.2866V24.7114C29.9551 23.3505 30.4958 22.0455 31.4579 21.0831C32.42 20.1206 33.7248 19.5794 35.0857 19.5784V31.9399Z" fill="white"/>
<path d="M11.9835 19.5571C14.6974 18.4987 15.6666 16.3334 15.6666 13.7165V8.1609C15.6588 2.57234 12.536 0.106628 8.65907 0.106628H0V31.9438C0 37.5324 3.12285 40 6.99976 40H9.16307C13.04 40 16.1609 37.5324 16.1609 31.9438V25.7407C16.1609 22.8738 15.1044 20.7143 11.9835 19.5571ZM5.1369 4.98959H7.70342C9.61667 4.98959 10.5219 5.99565 10.5219 8.8161V13.3637C10.5219 16.1822 9.61667 17.1902 7.70342 17.1902H5.1369V4.98959ZM11.0259 31.2886C11.0259 34.109 10.1207 35.1151 8.20741 35.1151H7.94766C6.03441 35.1151 5.12915 34.109 5.12915 31.2886V22.0732H7.70342C9.61667 22.0732 11.0259 23.0792 11.0259 25.8997V31.2886Z" fill="white"/>
<path d="M49.4303 24.4904C48.5224 24.4904 47.6517 24.1298 47.0097 23.4878C46.3677 22.8458 46.007 21.975 46.007 21.0671V19.6075H49.8762C51.1219 19.6075 52.3165 20.1023 53.1974 20.9831C54.0782 21.864 54.5731 23.0586 54.5731 24.3043V31.9399C54.5731 37.7301 50.89 39.9961 46.418 39.9961C41.8355 39.9961 38.1602 37.6293 38.1602 31.9399V8.17833C38.1602 2.48897 41.6765 0.124054 46.418 0.124054C51.2001 0.124054 54.5731 2.53937 54.5731 8.17833V9.03513C54.5731 9.71011 54.44 10.3785 54.1814 11.002C53.9229 11.6255 53.544 12.1919 53.0663 12.6688C52.5887 13.1458 52.0217 13.5238 51.3978 13.7814C50.7739 14.039 50.1053 14.1711 49.4303 14.1701V8.83353C49.4303 6.01308 48.0211 5.00702 46.3598 5.00702C44.6986 5.00702 43.2951 6.0092 43.2951 8.83353V31.2866C43.2951 34.1052 44.7063 35.1132 46.3676 35.1132C48.0288 35.1132 49.4303 34.1052 49.4303 31.2866V24.4904Z" fill="white"/>
<path d="M65.7134 0.0891724C67.0064 0.0891724 67.8728 0.705601 67.8728 2.0567V3.60747C67.8728 4.50303 67.5801 4.96438 67.0509 5.15823C67.6092 5.37921 67.9329 5.77466 67.9329 6.73032V8.50594C67.9329 9.87255 67.0665 10.4444 65.7735 10.4444H63.7207V0.0891724H65.7134ZM66.83 3.46596V2.42307C66.83 1.38018 66.4927 1.10105 65.6669 1.10105H64.7636V4.74534H65.7774C66.4675 4.74534 66.8203 4.55343 66.8203 3.46596H66.83ZM66.8765 8.16671V6.80979C66.8765 5.84057 66.4888 5.59051 65.8181 5.59051H64.7636V9.44415H65.7328C66.4888 9.44415 66.8765 9.22511 66.8765 8.16671Z" fill="white"/>
<path d="M72.3743 8.12407H70.1723L69.7303 10.4502H68.6738L70.7286 0.0736694H71.8296L73.8553 10.4444H72.7969L72.3743 8.12407ZM72.2406 7.213L71.2869 1.97917L70.3176 7.213H72.2406Z" fill="white"/>
<path d="M74.7666 10.4444V0.0891724H75.825V9.43058H78.2345V10.4444H74.7666Z" fill="white"/>
<path d="M80.4454 1.10105V10.4444H79.3793V1.10105H77.8809V0.0891724H81.9652V1.10105H80.4454Z" fill="white"/>
<path d="M83.0225 10.4444V0.0891724H84.0653V10.4444H83.0225Z" fill="white"/>
<path d="M88.8819 2.24667C88.8819 1.40926 88.3682 1.01381 87.7188 1.01381C87.0694 1.01381 86.5732 1.4015 86.5732 2.24667V8.28495C86.5732 9.12236 87.0869 9.51781 87.7188 9.51781C88.3507 9.51781 88.8819 9.13012 88.8819 8.28495V7.81391H89.9248V8.25588C89.9248 9.59147 89.0156 10.5316 87.7227 10.5316C86.4297 10.5316 85.5342 9.59147 85.5342 8.25588V2.29125C85.5342 0.934335 86.4297 0 87.7227 0C89.0156 0 89.9248 0.94015 89.9248 2.29125V2.62854H88.8819V2.24667Z" fill="white"/>
<path d="M66.9385 16.9518C66.9385 16.1144 66.4248 15.717 65.7754 15.717C65.126 15.717 64.6298 16.1047 64.6298 16.9518V22.9881C64.6298 23.8255 65.1435 24.2229 65.7754 24.2229C66.4073 24.2229 66.9385 23.8352 66.9385 22.9881V22.519H67.9814V22.959C67.9814 24.2966 67.0703 25.2367 65.7773 25.2367C64.4844 25.2367 63.5811 24.2966 63.5811 22.959V16.9964C63.5811 15.6394 64.4786 14.7051 65.7696 14.7051C67.0606 14.7051 67.9814 15.6433 67.9814 16.9964V17.3337H66.9385V16.9518Z" fill="white"/>
<path d="M69.1406 25.1476V14.7924H70.199V24.1338H72.6085V25.1476H69.1406Z" fill="white"/>
<path d="M76.7806 22.8272H74.5766L74.1365 25.1534H73.0801L75.1368 14.7827H76.2378L78.2654 25.1534H77.207L76.7806 22.8272ZM76.6488 21.9162L75.6931 16.6823L74.7239 21.9162H76.6488Z" fill="white"/>
<path d="M82.9038 16.9227H81.8765C81.8765 16.0407 81.3473 15.6879 80.7735 15.6879C80.6314 15.6784 80.4889 15.6991 80.3555 15.7487C80.222 15.7984 80.1006 15.8758 79.9992 15.9758C79.8979 16.0758 79.819 16.1963 79.7677 16.3291C79.7163 16.4619 79.6938 16.6041 79.7015 16.7463C79.7015 17.2309 79.9089 17.6865 80.2831 18.2292L82.1033 20.8597C82.7507 21.7999 82.9717 22.4105 82.9717 23.1355C82.9717 24.3993 82.1033 25.2503 80.8123 25.2503C79.5212 25.2503 78.585 24.4245 78.585 22.9455H79.6298C79.6298 23.8856 80.1726 24.2365 80.8181 24.2365C81.4636 24.2365 81.921 23.7965 81.921 23.0909C81.921 22.6218 81.8164 22.2535 81.3027 21.5207L79.496 18.8902C78.9688 18.1149 78.6741 17.3782 78.6741 16.7463C78.6741 15.4689 79.5988 14.6896 80.789 14.6896C81.9792 14.6896 82.9038 15.4824 82.9038 16.9227Z" fill="white"/>
<path d="M87.8687 16.9227H86.8432C86.8432 16.0407 86.314 15.6879 85.7422 15.6879C85.6001 15.6784 85.4576 15.6991 85.3242 15.7487C85.1907 15.7984 85.0693 15.8758 84.9679 15.9758C84.8666 16.0758 84.7877 16.1963 84.7364 16.3291C84.685 16.4619 84.6625 16.6041 84.6702 16.7463C84.6702 17.2309 84.8757 17.6865 85.2517 18.2292L87.0739 20.8597C87.7194 21.7999 87.9404 22.4105 87.9404 23.1355C87.9404 24.3993 87.0739 25.2503 85.7809 25.2503C84.488 25.2503 83.5479 24.4245 83.5479 22.9455H84.5907C84.5907 23.8856 85.1335 24.2365 85.7809 24.2365C86.4284 24.2365 86.882 23.7965 86.882 23.0909C86.882 22.6218 86.7792 22.2535 86.2636 21.5207L84.457 18.8902C83.9297 18.1149 83.6351 17.3782 83.6351 16.7463C83.6351 15.4689 84.5617 14.6896 85.7499 14.6896C86.9382 14.6896 87.8687 15.4824 87.8687 16.9227Z" fill="white"/>
<path d="M89.0137 25.1476V14.7924H90.0585V25.1476H89.0137Z" fill="white"/>
<path d="M92.7011 15.8062V19.4039H94.4787V20.3305H92.7011V25.1476H91.6582V14.7924H95.1978V15.8062H92.7011Z" fill="white"/>
<path d="M96.3291 25.1476V14.7924H97.372V25.1476H96.3291Z" fill="white"/>
<path d="M100.024 15.8062V19.4039H101.949V20.3305H100.024V24.1338H102.653V25.1476H98.9736V14.7924H102.645V15.8062H100.024Z" fill="white"/>
<path d="M108.344 17.2154V22.709C108.344 24.3102 107.449 25.1476 106.156 25.1476H104.041V14.7924H106.156C107.449 14.8079 108.344 15.6433 108.344 17.2154ZM106.034 15.8062H105.084V24.1415H106.034C106.724 24.1415 107.311 23.7538 107.311 22.7013V17.2154C107.317 16.188 106.73 15.8062 106.034 15.8062Z" fill="white"/>
<path d="M113.619 16.9227H112.589C112.589 16.0407 112.062 15.6879 111.488 15.6879C111.346 15.6784 111.204 15.6991 111.07 15.7487C110.937 15.7984 110.815 15.8758 110.714 15.9758C110.613 16.0758 110.534 16.1963 110.483 16.3291C110.431 16.4619 110.409 16.6041 110.416 16.7463C110.416 17.2309 110.622 17.6865 110.988 18.2292L112.81 20.8597C113.456 21.7999 113.677 22.4105 113.677 23.1355C113.677 24.3993 112.81 25.2503 111.517 25.2503C110.224 25.2503 109.3 24.4284 109.3 22.9455H110.343C110.343 23.8856 110.885 24.2365 111.533 24.2365C112.18 24.2365 112.634 23.7965 112.634 23.0909C112.634 22.6218 112.531 22.2535 112.018 21.5207L110.211 18.8902C109.682 18.1149 109.387 17.3782 109.387 16.7463C109.387 15.4689 110.314 14.6896 111.504 14.6896C112.694 14.6896 113.619 15.4824 113.619 16.9227Z" fill="white"/>
<path d="M67.9658 37.6777C67.9658 39.0153 67.0703 39.9399 65.7773 39.9399C64.4844 39.9399 63.5811 39.0153 63.5811 37.6777V31.6995C63.5811 30.3426 64.4786 29.4083 65.7696 29.4083C67.0606 29.4083 67.9445 30.3329 67.9581 31.6705H66.9152C66.9152 30.8331 66.4015 30.4357 65.7696 30.4357C65.1376 30.4357 64.6239 30.8331 64.6239 31.655V37.7068C64.6239 38.6043 65.2268 38.9416 65.7696 38.9416C66.4015 38.9416 66.9152 38.5539 66.9152 37.7068V36.0029H65.7405V35.086H67.9581L67.9658 37.6777Z" fill="white"/>
<path d="M69.377 29.4955H71.3891C72.682 29.4955 73.5776 30.2903 73.5776 31.8314V34.3513C73.5776 35.6288 73.0348 36.2471 72.2556 36.5263L73.6222 39.8604H72.4591C72.0617 38.8466 71.6663 37.8037 71.2553 36.7899H70.4315V39.8604H69.377V29.4955ZM70.4334 35.7839H71.2708C72.021 35.7839 72.5502 35.4892 72.5502 34.1226V31.8314C72.5502 30.833 71.9687 30.5093 71.2708 30.5093H70.4334V35.7839Z" fill="white"/>
<path d="M74.8711 37.6642V31.6995C74.8711 30.3426 75.7667 29.4083 77.0596 29.4083C78.3525 29.4083 79.2617 30.3484 79.2617 31.6995V37.6642C79.2617 38.9998 78.3506 39.9399 77.0596 39.9399C75.7686 39.9399 74.8711 38.9998 74.8711 37.6642ZM78.2188 37.6932V31.655C78.2188 30.8175 77.7051 30.4221 77.0557 30.4221C76.4063 30.4221 75.9101 30.8098 75.9101 31.655V37.6932C75.9101 38.5307 76.4238 38.9261 77.0557 38.9261C77.6877 38.9261 78.2188 38.5307 78.2188 37.6932Z" fill="white"/>
<path d="M85.0205 29.4955V37.6642C85.0205 38.9998 84.1094 39.9399 82.832 39.9399C81.5545 39.9399 80.6279 38.9998 80.6279 37.6642V29.4955H81.6708V37.7068C81.6708 38.6043 82.2873 38.9261 82.8339 38.9261C83.4503 38.9261 83.9795 38.5384 83.9795 37.7068V29.4955H85.0205Z" fill="white"/>
<path d="M86.5459 29.4955H88.5599C89.8529 29.4955 90.7485 30.3194 90.7485 31.8217V34.6712C90.7485 36.1696 89.8529 36.9624 88.5599 36.9624H87.6043V39.8565H86.5459V29.4955ZM87.6043 35.9603H88.4417C89.1318 35.9603 89.7191 35.6075 89.7191 34.6518V31.8178C89.7191 30.8486 89.1473 30.5093 88.4417 30.5093H87.6043V35.9603Z" fill="white"/>
</g>
<defs>
<clipPath id="clip0">
<rect width="113.677" height="40" fill="white"/>
</clipPath>
</defs>
</svg>
